<?xml version="1.0" standalone="no"?>
<!DOCTYPE svg PUBLIC "-//W3C//DTD SVG 1.1//EN" "http://www.w3.org/Graphics/SVG/1.1/DTD/svg11.dtd" >
<svg>
<metadata>
Created by FontForge 20090622 at Wed Dec 23 05:45:50 2015
 By deploy user
2010 Lukasz Dziedzic published by FSI FontShop International GmbH
</metadata>
<defs>
<font id="MorePro-Bold" horiz-adv-x="341" >
  <font-face 
    font-family="MorePro-Bold"
    font-weight="700"
    font-stretch="normal"
    units-per-em="1000"
    panose-1="2 1 8 4 4 1 1 1 1 2"
    ascent="796"
    descent="-204"
    x-height="522"
    cap-height="740"
    bbox="-340 -234 1629 1124"
    underline-thickness="65"
    underline-position="-36"
    unicode-range="U+000D-U+FB04"
  />
<missing-glyph horiz-adv-x="651" 
d="M17 0v740h617v-740h-617zM106 89h439v562h-439v-562z" />
    <glyph glyph-name="uniFB00" unicode="ff" horiz-adv-x="741" 
d="M457 82v347h-197v-347q22 -14 73 -21v-61h-306v59q47 7 77 23v347h-94v86h94q2 102 64 171.5t166 69.5q74 0 139 -48l3 -57q27 62 83.5 98.5t133.5 36.5q69 0 133 -32l8 -144h-107l-27 85q-33 12 -64 12q-22 -38 -23 -156v-36h137v-86h-137v-347q30 -16 76 -23v-59h-306
v61q51 7 74 21zM457 551q0 31 6 59h-98l-23 55q-26 11 -61 13q-13 -25 -16.5 -59.5t-4.5 -103.5h197v36z" />
    <glyph glyph-name="fi" unicode="fi" horiz-adv-x="680" 
d="M10 514h88v24q0 105 82 178t212 73q95 0 168 -34q12 -71 18 -150h-135l-33 80q-46 19 -113 22q-42 -51 -43 -169v-24h106q115 0 232 10q5 -137 5 -209v-233q30 -16 76 -23v-59h-306v61q44 5 74 21v233q0 74 -4 104q-35 10 -83 10h-100v-347q30 -16 73 -21v-61h-306v59
q45 7 77 23v347h-88v85z" />
    <glyph glyph-name="fl" unicode="fl" horiz-adv-x="690" 
d="M104 82v347h-94v86h94q0 110 70.5 190.5t184.5 80.5q83 0 147 -41l30 26h63q4 -110 4 -212v-477q30 -16 76 -23v-59h-306v59q42 7 74 23v477q0 42 -3 84q-49 59 -140 59q-44 -56 -44 -187h119v-86h-119v-347q33 -17 73 -23v-59h-306v59q47 7 77 23z" />
    <glyph glyph-name="uniFB03" unicode="ffi" horiz-adv-x="1028" 
d="M447 82v347h-187v-347q34 -19 73 -21v-61h-306v59q47 7 77 23v347h-94v85h94q1 101 70.5 173.5t179.5 72.5q98 0 167 -51q83 80 219 80q96 0 169 -34q12 -71 18 -150h-134l-33 80q-50 20 -113 23q-42 -49 -44 -170v-24h106q117 0 232 10q4 -110 4 -209v-233
q31 -16 77 -23v-59h-306v61q44 5 74 21v233q0 74 -4 104q-35 10 -83 10h-100v-347q30 -16 73 -21v-61h-303v61q43 5 74 21zM260 514h187q0 54 7 79q-19 39 -59 63t-96 24q-38 -52 -39 -166z" />
    <glyph glyph-name="uniFB04" unicode="ffl" horiz-adv-x="1027" 
d="M447 82v347h-187v-347q27 -16 73 -23v-59h-306v59q47 7 77 23v347h-94v85h94q1 101 70.5 173.5t179.5 72.5q97 0 166 -51q72 77 181 77q80 0 146 -39l27 23h62q4 -108 4 -213v-475q31 -16 76 -23v-59h-305v59q44 7 73 23v475q0 32 -2 84q-49 60 -135 61q-44 -56 -44 -188
h105v-85h-105v-347q34 -17 74 -23v-59h-307v59q47 7 77 23zM447 514q0 39 9 75q-17 40 -57 65.5t-95 25.5h-5q-38 -52 -39 -166h187z" />
    <glyph glyph-name="f_b" unicode="fb" horiz-adv-x="954" 
d="M592 557v-89q68 64 144 64q89 0 142 -72.5t53 -184.5q0 -129 -67 -207t-174 -78q-80 0 -140 53l-42 -43h-71v557q0 33 -4 97q-48 48 -129 48q-44 -56 -44 -186h105v-87h-105v-347q33 -17 73 -23v-59h-306v59q47 7 77 23v347h-94v87h94q0 109 71 189.5t183 80.5
q79 0 143 -37l25 22h62q4 -110 4 -214zM660 420q-32 0 -68 -17v-247q0 -40 23.5 -61.5t62.5 -21.5q17 0 35 3q63 51 63 179q0 165 -116 165z" />
    <glyph glyph-name="f_h" unicode="fh" horiz-adv-x="980" 
d="M437 82v475q0 33 -4 97q-48 48 -129 48q-44 -56 -44 -186h105v-87h-105v-347q33 -17 73 -23v-59h-306v59q47 7 77 23v347h-94v87h94q0 109 71 189.5t183 80.5q79 0 143 -37l25 22h62q4 -110 4 -214v-99q72 74 155 74q72 0 115 -52t43 -135v-263q30 -16 76 -23v-59h-289
v61q35 6 57 21v243q0 91 -75 91q-38 0 -82 -24v-310q21 -14 56 -21v-61h-268v61q35 6 57 21z" />
    <glyph glyph-name="f_k" unicode="fk" horiz-adv-x="965" 
d="M437 82v475q0 33 -4 97q-48 48 -129 48q-44 -56 -44 -186h105v-87h-105v-347q33 -17 73 -23v-59h-306v59q47 7 77 23v347h-94v87h94q0 109 71 189.5t183 80.5q79 0 143 -37l25 22h62q4 -110 4 -214v-268l146 151q-22 16 -61 22v60h247v-58q-49 -8 -77 -24l-108 -108
l154 -250q31 -16 77 -23v-59h-208l-131 224l-39 -39v-103q21 -14 56 -21v-61h-268v61q35 6 57 21z" />
    <glyph glyph-name="f_t" unicode="ft" horiz-adv-x="723" 
d="M10 429v87h94v35q0 101 66.5 168t178.5 67q82 0 143 -32l11 -111l-118 -25l-25 73q-36 16 -75 16q-24 -40 -25 -156v-35h181v59l156 31v-90h97v-87h-97v-290q0 -61 51 -61q17 0 39 11l16 -64q-50 -36 -115 -36q-71 0 -109 41t-38 113v286h-181v-347q32 -16 76 -23v-59
h-309v59q47 7 77 23v347h-94z" />
    <glyph glyph-name=".notdef" horiz-adv-x="651" 
d="M17 0v740h617v-740h-617zM106 89h439v562h-439v-562z" />
    <glyph glyph-name=".null" horiz-adv-x="0" 
 />
    <glyph glyph-name=".null" horiz-adv-x="0" 
 />
    <glyph glyph-name="nonmarkingreturn" horiz-adv-x="333" 
 />
    <glyph glyph-name="CR" unicode="&#xd;" horiz-adv-x="186" 
 />
    <glyph glyph-name="space" unicode=" " horiz-adv-x="186" 
 />
    <glyph glyph-name="exclam" unicode="!" horiz-adv-x="264" 
d="M168 251h-73l-56 397q0 43 24 72.5t70 29.5q44 0 67.5 -29.5t23.5 -72.5zM46 75q0 36 25 61t61 25q35 0 60.5 -25t25.5 -61t-25 -60.5t-61 -24.5t-61 24.5t-25 60.5z" />
    <glyph glyph-name="quotedbl" unicode="&#x22;" horiz-adv-x="413" 
d="M266 520l-35 174q-3 15 -3 28q0 37 22.5 57t54.5 20q31 0 53 -20t22 -56q0 -14 -3 -29l-35 -174h-76zM70 520l-35 174q-3 15 -3 28q0 37 22.5 57t54.5 20q31 0 53 -20t22 -56q0 -14 -3 -29l-35 -174h-76z" />
    <glyph glyph-name="numbersign" unicode="#" horiz-adv-x="588" 
d="M23 396v100h150l27 198h107l-95 -694h-107l27 198h-109v100h123l13 98h-136zM565 299v-100h-150l-27 -199h-107l95 694h107l-27 -198h109v-100h-123l-13 -97h136z" />
    <glyph glyph-name="dollar" unicode="$" horiz-adv-x="525" 
d="M203 -115l5 109q-93 12 -154 61v157h105l22 -104q54 -34 120 -34h13q50 34 50 86q0 42 -32.5 71t-79 49.5t-93 44.5t-79 69t-32.5 109q0 77 56 139.5t151 76.5l16 112h103l-6 -116q61 -13 112 -43v-164h-104l-30 100q-46 20 -92 20h-10q-44 -31 -44 -85q0 -39 31.5 -67
t76 -47.5t89.5 -43t76.5 -68t31.5 -108.5q0 -78 -50 -135.5t-131 -75.5l-19 -113h-102z" />
    <glyph glyph-name="percent" unicode="%" horiz-adv-x="716" 
d="M364 150q0 75 49 117.5t128 42.5q72 0 115.5 -43.5t43.5 -116.5q0 -76 -48.5 -118t-128.5 -42q-70 0 -114.5 44.5t-44.5 115.5zM16 553q0 75 49 117.5t128 42.5q71 0 115 -43.5t44 -116.5q0 -76 -48.5 -118t-128.5 -42q-70 0 -114.5 44.5t-44.5 115.5zM65 0l474 699h102
l-475 -699h-101zM193 451q7 0 17 2q21 24 21 67q0 60 -15.5 91t-40.5 31q-5 0 -15 -2q-23 -23 -23 -69q0 -59 15.5 -89.5t40.5 -30.5zM541 48q6 0 16 2q22 23 22 68q0 59 -15.5 90t-40.5 31q-6 0 -16 -2q-21 -24 -21 -68q0 -59 15.5 -90t39.5 -31z" />
    <glyph glyph-name="ampersand" unicode="&#x26;" horiz-adv-x="723" 
d="M613 354q-58 -107 -86 -150l106 -122q32 -16 77 -23v-59h-202l-73 86q-98 -96 -214 -96q-88 0 -146.5 53.5t-58.5 134.5q0 64 40.5 114.5t113.5 103.5q-50 58 -69.5 97t-19.5 82q0 71 59.5 122.5t159.5 51.5q94 0 141 -42.5t47 -101.5q0 -28 -11.5 -53t-36.5 -49
t-45.5 -39.5t-57.5 -39.5l134 -155q19 41 33 86q-22 17 -52 22v60h228v-60q-36 -6 -67 -23zM170 220q0 -54 31 -84t86 -30t98 37l-163 192q-52 -55 -52 -115zM233 592q0 -43 55 -110q73 59 73 113q0 28 -18 49t-51 21q-16 0 -34 -6q-23 -25 -25 -67z" />
    <glyph glyph-name="quotesingle" unicode="'" horiz-adv-x="217" 
d="M70 520l-35 174q-3 15 -3 28q0 37 22.5 57t54.5 20q31 0 53 -20t22 -56q0 -14 -3 -29l-35 -174h-76z" />
    <glyph glyph-name="parenleft" unicode="(" horiz-adv-x="345" 
d="M50 329q0 223 76 344t222 121v-69q-80 -9 -118.5 -101.5t-38.5 -294.5q0 -201 38.5 -293.5t118.5 -102.5v-69q-146 0 -222 121t-76 344z" />
    <glyph glyph-name="parenright" unicode=")" horiz-adv-x="345" 
d="M294 329q0 -223 -76 -344t-221 -121v69q80 10 118 102t38 294q0 204 -38 295.5t-118 100.5v69q146 0 221.5 -121t75.5 -344z" />
    <glyph glyph-name="asterisk" unicode="*" horiz-adv-x="416" 
d="M114 712q39 -48 78 -79q-12 65 -30 108q0 27 14.5 42t34.5 15t34.5 -15t14.5 -42q-21 -50 -30 -108q41 33 79 79q17 10 33 10q20 0 33.5 -13.5t13.5 -32.5q0 -30 -31 -48q-59 -10 -108 -28q55 -20 108 -29q31 -18 31 -47q0 -19 -13.5 -33t-33.5 -14q-17 0 -34 10
q-36 45 -78 79q10 -59 30 -107q0 -27 -14.5 -42.5t-34.5 -15.5t-34.5 15t-14.5 43q20 50 29 107q-45 -37 -78 -79q-17 -10 -33 -10q-20 0 -33.5 14t-13.5 33q0 29 31 47q61 10 108 29q-56 21 -108 28q-31 18 -31 47q0 19 13.5 33t33.5 14q17 0 34 -10z" />
    <glyph glyph-name="plus" unicode="+" horiz-adv-x="415" 
d="M25 282v110h124v137h117v-137h123v-110h-123v-135h-117v135h-124z" />
    <glyph glyph-name="comma" unicode="," horiz-adv-x="272" 
d="M41 88q0 40 26.5 67t68.5 27t68.5 -29.5t26.5 -79.5q0 -58 -37 -119.5t-94 -91.5l-42 37q47 40 62 100q-34 2 -56.5 26.5t-22.5 62.5z" />
    <glyph glyph-name="hyphen" unicode="-" horiz-adv-x="303" 
d="M27 266v112h249v-112h-249z" />
    <glyph glyph-name="period" unicode="." horiz-adv-x="272" 
d="M40 87q0 40 28 68.5t68 28.5q39 0 67 -28.5t28 -68.5t-28 -68t-67 -28q-40 0 -68 28t-28 68z" />
    <glyph glyph-name="slash" unicode="/" horiz-adv-x="371" 
d="M-15 -35l295 777h114l-295 -777h-114z" />
    <glyph glyph-name="zero" unicode="0" horiz-adv-x="589" 
d="M29 356q0 165 75 260t198 95q117 0 188.5 -103t71.5 -265q0 -165 -75 -259t-198 -94q-117 0 -188.5 102t-71.5 264zM270 623q-13 0 -22 -4q-55 -62 -55 -238q0 -158 33.5 -235.5t93.5 -77.5q16 0 30 7q48 67 48 227q0 157 -34.5 239t-93.5 82z" />
    <glyph glyph-name="one" unicode="1" horiz-adv-x="454" 
d="M261 705h65v-621q51 -19 91 -24v-60h-336v60q38 4 90 24v450q0 27 -32 27h-106v65z" />
    <glyph glyph-name="two" unicode="2" horiz-adv-x="536" 
d="M505 521q0 -23 -4.5 -45t-16.5 -44.5t-23 -41t-34 -43l-38 -40.5t-46.5 -43.5l-49.5 -42.5l-56.5 -47l-57.5 -48h242l21 84h71v-210h-489v84q322 269 322 433q0 96 -108 96q-28 0 -54 -6l-27 -112h-115v151q106 64 224 64q116 0 177.5 -52.5t61.5 -136.5z" />
    <glyph glyph-name="three" unicode="3" horiz-adv-x="535" 
d="M58 495v150q101 65 209 65q106 0 162 -45t56 -116q0 -103 -125 -161q75 -20 113 -64t38 -105q0 -95 -69.5 -162t-197.5 -67q-127 0 -212 69l32 120q56 -47 107.5 -71t115.5 -29q65 39 65 128q0 54 -39.5 85t-118.5 31v68q68 11 106.5 46t38.5 90q0 88 -97 88
q-23 0 -48 -5l-27 -115h-109z" />
    <glyph glyph-name="four" unicode="4" horiz-adv-x="620" 
d="M341 89v79h-325v82l335 452h140v-435h122l-7 -99h-115v-79q36 -16 91 -23v-66h-333v66q57 7 92 23zM137 267h204v286z" />
    <glyph glyph-name="five" unicode="5" horiz-adv-x="534" 
d="M469 568h-280l-16 -106q172 -16 242.5 -77.5t70.5 -158.5q0 -103 -67 -168.5t-178 -65.5q-125 0 -211 68l32 119q108 -89 222 -100q64 37 64 114q0 42 -21.5 69.5t-84 47.5t-171.5 26l50 365h281l12 42h55v-175z" />
    <glyph glyph-name="six" unicode="6" horiz-adv-x="536" 
d="M518 254q0 -121 -63.5 -192t-180.5 -72q-115 0 -180 82t-65 220q0 109 41.5 202.5t124 152.5t190.5 59q33 0 69 -6v-64q-127 -1 -187 -54.5t-74 -173.5q60 48 132 48q92 0 142.5 -57t50.5 -145zM270 363q-49 0 -82 -31v-38q0 -113 23.5 -167t74.5 -54q14 0 27 3
q48 48 48 153q0 134 -91 134z" />
    <glyph glyph-name="seven" unicode="7" horiz-adv-x="498" 
d="M28 486v214h459v-65l-260 -635h-179l320 568h-260l-18 -82h-62z" />
    <glyph glyph-name="eight" unicode="8" horiz-adv-x="534" 
d="M271 710q99 0 156.5 -45t57.5 -119q0 -87 -109 -147q67 -39 105 -86t38 -115q0 -89 -68.5 -149.5t-182.5 -60.5q-122 0 -187 54t-65 135q0 110 132 174q-102 72 -102 168q0 84 62 137.5t163 53.5zM378 159q0 14 -4.5 27t-15.5 25.5t-20 21.5t-29 22t-31 19l-36.5 20
t-35.5 20q-47 -47 -47 -110q0 -57 32.5 -94.5t91.5 -37.5q23 0 50 6q45 32 45 81zM181 560q0 -20 9.5 -37.5t31 -33.5t39 -26.5t51.5 -28.5q40 45 40 97q0 44 -26 71.5t-70 27.5q-16 0 -38 -5q-37 -25 -37 -65z" />
    <glyph glyph-name="nine" unicode="9" horiz-adv-x="536" 
d="M84 1v64q134 0 193.5 61t70.5 199q-56 -48 -132 -48q-87 0 -139.5 59t-52.5 151q0 98 65 160.5t175 62.5q119 0 182.5 -84t63.5 -223q0 -59 -11.5 -115t-38 -110t-66 -94t-100 -64.5t-135.5 -24.5q-35 0 -75 6zM267 363q44 0 84 38v20q0 106 -24 156t-74 50q-17 0 -32 -4
q-40 -42 -40 -123q0 -137 86 -137z" />
    <glyph glyph-name="colon" unicode=":" horiz-adv-x="272" 
d="M40 411q0 40 28 68.5t68 28.5q39 0 67 -28.5t28 -68.5t-28 -68t-67 -28q-40 0 -68 28t-28 68zM40 87q0 40 28 68.5t68 28.5q39 0 67 -28.5t28 -68.5t-28 -68t-67 -28q-40 0 -68 28t-28 68z" />
    <glyph glyph-name="semicolon" unicode=";" horiz-adv-x="272" 
d="M41 88q0 40 27 67t68 27q42 0 68.5 -29.5t26.5 -79.5q0 -58 -37 -119.5t-94 -91.5l-42 37q49 41 62 101q-34 1 -56.5 25.5t-22.5 62.5zM40 411q0 40 28 68.5t68 28.5q39 0 67 -28.5t28 -68.5t-28 -68t-67 -28q-40 0 -68 28t-28 68z" />
    <glyph glyph-name="less" unicode="&#x3c;" horiz-adv-x="415" 
d="M38 375l329 221v-114l-219 -147l219 -146v-114l-329 221v79z" />
    <glyph glyph-name="equal" unicode="=" horiz-adv-x="415" 
d="M47 207v92h320v-92h-320zM47 375v93h320v-93h-320z" />
    <glyph glyph-name="greater" unicode="&#x3e;" horiz-adv-x="415" 
d="M48 596l329 -221v-79l-329 -221v114l219 146l-219 147v114z" />
    <glyph glyph-name="question" unicode="?" horiz-adv-x="432" 
d="M22 665l-1 75q65 9 130 9q130 0 197 -52.5t67 -134.5q0 -133 -184 -220l-19 -90h-97l-17 123q142 67 142 153q0 121 -218 137zM76 75q0 35 25 60.5t62 25.5q35 0 60 -25.5t25 -60.5q0 -36 -25 -61t-60 -25q-37 0 -62 25t-25 61z" />
    <glyph glyph-name="at" unicode="@" horiz-adv-x="844" 
d="M624 522l-41 -285q-3 -21 -3 -36q0 -37 23 -37q45 0 83.5 67.5t38.5 178.5q0 250 -241 250q-157 0 -260.5 -114t-103.5 -276q0 -155 73.5 -232t238.5 -77q193 0 325 106l28 -32q-148 -158 -360 -158q-111 0 -204 60t-143.5 155t-50.5 201q0 116 50.5 214t151.5 159.5
t234 61.5q81 0 149.5 -31t112.5 -80t68 -108.5t24 -118.5q0 -117 -78 -207t-184 -90q-93 0 -93 111q-69 -113 -156 -113q-48 0 -79.5 36.5t-31.5 96.5q0 48 24 99.5t68.5 96.5t117 73.5t159.5 28.5h60zM369 204q54 0 110 115l18 112q-35 8 -81 8q-47 -35 -70 -82.5
t-23 -89.5q0 -31 12.5 -47t33.5 -16z" />
    <glyph glyph-name="A" unicode="A" horiz-adv-x="824" 
d="M90 93l227 647h192l225 -647q36 -18 84 -25v-68h-353v68q49 7 83 25l-42 130h-251l-43 -130q35 -18 82 -25v-68h-288v68q48 7 84 25zM382 609l-96 -291h189z" />
    <glyph glyph-name="B" unicode="B" horiz-adv-x="666" 
d="M105 93v548q-35 18 -83 25v74h306q136 0 206.5 -49.5t70.5 -129.5q0 -107 -108 -163q65 -19 105 -66.5t40 -109.5q0 -108 -86.5 -165t-216.5 -57h-317v68q49 7 83 25zM353 337h-74v-243h54q60 0 100 18q31 45 31 102q0 59 -29 91t-82 32zM321 642h-42v-228l114 11
q50 42 50 116q0 49 -32 75t-90 26z" />
    <glyph glyph-name="C" unicode="C" horiz-adv-x="638" 
d="M566 200l56 -38q-37 -75 -108 -123.5t-159 -48.5q-149 0 -239 100.5t-90 262.5q0 170 96 283.5t251 113.5q106 0 215 -42v-204h-108l-31 122q-54 22 -111 22q-30 0 -51 -5q-74 -82 -74 -248q0 -146 53 -218.5t140 -72.5q94 0 160 96z" />
    <glyph glyph-name="D" unicode="D" horiz-adv-x="757" 
d="M22 0v68q49 7 83 25v548q-35 18 -83 25v74h351q156 0 256.5 -99.5t100.5 -255.5q0 -189 -104 -287t-274 -98h-330zM347 642h-68v-547h66q78 0 128 30q62 97 62 234q0 283 -188 283z" />
    <glyph glyph-name="E" unicode="E" horiz-adv-x="648" 
d="M105 93v548q-35 18 -83 25v74h581l6 -237h-109l-45 139h-176v-208h192v-105h-192v-234h181l59 137h107l-13 -232h-591v68q49 7 83 25z" />
    <glyph glyph-name="F" unicode="F" horiz-adv-x="623" 
d="M105 92v549q-35 18 -83 25v74h581l6 -237h-109l-45 139h-176v-229h194v-104h-194v-217q35 -18 82 -25v-67h-339v67q49 7 83 25z" />
    <glyph glyph-name="G" unicode="G" horiz-adv-x="726" 
d="M388 290v69h327v-65l-65 -21v-273h-103l-42 71q-72 -83 -187 -83q-125 0 -209 105t-84 268q0 165 103.5 277t283.5 112q106 0 220 -44v-202h-103l-34 108q-80 37 -154 37q-22 0 -50 -5q-80 -84 -80 -244q0 -141 46.5 -218t124.5 -77q52 0 103 35v133z" />
    <glyph glyph-name="H" unicode="H" horiz-adv-x="792" 
d="M513 93v238h-234v-238q36 -19 77 -25v-68h-334v68q49 7 83 25v548q-34 18 -83 25v74h335v-74q-42 -6 -78 -25v-208h234v208q-38 19 -78 25v74h334v-74q-48 -7 -83 -25v-548q36 -18 83 -25v-68h-335v68q43 6 79 25z" />
    <glyph glyph-name="I" unicode="I" horiz-adv-x="397" 
d="M285 642v-554q34 -18 83 -25v-63h-340v63q48 7 83 24v555q-33 18 -83 25v73h340v-73q-49 -7 -83 -25z" />
    <glyph glyph-name="J" unicode="J" horiz-adv-x="393" 
d="M288 641v-550q0 -114 -81.5 -192.5t-219.5 -91.5l-18 75q77 25 111 74.5t34 134.5v550q-34 18 -83 25v74h340v-74q-51 -8 -83 -25z" />
    <glyph glyph-name="K" unicode="K" horiz-adv-x="800" 
d="M499 89l-159 247l-60 -59v-184q33 -18 81 -25v-68h-339v68q50 7 84 25v548q-34 18 -83 25v74h339v-73q-49 -7 -82 -25v-254l250 253q-29 19 -70 25v74h288v-72q-60 -9 -95 -27l-192 -187l229 -354q45 -24 103 -32v-68h-361v68q39 6 67 21z" />
    <glyph glyph-name="L" unicode="L" horiz-adv-x="609" 
d="M22 0v68q52 8 83 25v548q-34 18 -83 25v74h334v-74q-48 -7 -82 -25v-551h177l55 142h93l-19 -232h-558z" />
    <glyph glyph-name="M" unicode="M" horiz-adv-x="1010" 
d="M447 -1l-222 511v-417q34 -18 82 -25v-68h-286v68q50 7 84 25v551q-43 16 -89 22v74h283l215 -511l210 511h269v-74q-44 -6 -88 -20v-553q34 -18 82 -25v-68h-326v68q38 6 78 24v418l-218 -511h-74z" />
    <glyph glyph-name="N" unicode="N" horiz-adv-x="793" 
d="M591 -1l-366 454v-360q34 -18 82 -25v-68h-286v68q50 7 84 25v509q-46 58 -97 64v74h199l361 -454v355q-35 18 -83 25v74h286v-74q-49 -7 -83 -25v-642h-97z" />
    <glyph glyph-name="O" unicode="O" horiz-adv-x="747" 
d="M27 372q0 166 93.5 272t261.5 106q153 0 246 -110.5t93 -273.5q0 -167 -96.5 -271.5t-258.5 -104.5q-155 0 -247 109.5t-92 272.5zM210 414q0 -169 55 -250t141 -81q34 0 67 11q65 78 65 228q0 159 -51.5 241.5t-145.5 82.5q-35 0 -80 -20q-51 -78 -51 -212z" />
    <glyph glyph-name="P" unicode="P" horiz-adv-x="654" 
d="M105 93v548q-35 18 -82 25v74h299q153 0 230 -57t77 -167q0 -93 -68 -164.5t-190 -71.5q-46 0 -92 10v-197q34 -18 83 -25v-68h-340v68q49 7 83 25zM315 645h-36v-271q22 -7 50 -7q52 0 97 25q30 51 30 119q0 70 -32.5 102t-108.5 32z" />
    <glyph glyph-name="Q" unicode="Q" horiz-adv-x="747" 
d="M27 372q0 166 93.5 272t261.5 106q153 0 246 -110.5t93 -273.5q0 -147 -77 -247.5t-210 -122.5q35 -31 103.5 -48.5t144.5 -17.5q66 0 117 13l16 -30q-71 -97 -200 -97q-86 0 -163 46.5t-113 128.5q-143 10 -227.5 117.5t-84.5 263.5zM210 414q0 -169 55 -250t141 -81
q34 0 67 11q65 78 65 228q0 159 -51.5 241.5t-145.5 82.5q-35 0 -80 -20q-51 -78 -51 -212z" />
    <glyph glyph-name="R" unicode="R" horiz-adv-x="729" 
d="M484 0l-142 302h-63v-209q34 -18 83 -25v-68h-340v68q49 7 83 25v548q-35 18 -83 25v74h315q150 0 222 -54t72 -151q0 -123 -122 -189l121 -246q45 -24 104 -32v-68h-250zM334 641h-55v-259l117 10q58 42 58 129q0 56 -31.5 88t-88.5 32z" />
    <glyph glyph-name="S" unicode="S" horiz-adv-x="575" 
d="M37 57l-1 173h110l22 -104q68 -43 149 -43q16 0 24 1q46 36 46 89q0 35 -19.5 60t-50.5 40.5t-69 29.5t-76 30.5t-69 38.5t-50.5 60.5t-19.5 89.5q0 92 77.5 159.5t204.5 67.5q99 0 201 -51v-195h-109l-35 124q-56 24 -108 24q-13 0 -20 -1q-49 -34 -49 -87
q0 -30 19.5 -52.5t50.5 -37.5t68 -29t74.5 -32t68.5 -41t50.5 -62t19.5 -89q0 -100 -80.5 -165t-203.5 -65q-56 0 -118.5 17.5t-106.5 49.5z" />
    <glyph glyph-name="T" unicode="T" horiz-adv-x="674" 
d="M248 93v547h-96l-35 -138h-102v238h645v-238h-103l-31 138h-104v-547q34 -18 83 -25v-68h-340v68q49 7 83 25z" />
    <glyph glyph-name="U" unicode="U" horiz-adv-x="786" 
d="M688 641v-371q0 -135 -82.5 -208t-218.5 -73q-134 0 -211.5 80t-77.5 201v371q-37 19 -83 26v73h339v-73q-45 -7 -82 -26v-371q0 -171 151 -171q55 0 102 31q38 52 38 140v371q-37 19 -83 26v73h291v-73q-47 -7 -83 -26z" />
    <glyph glyph-name="V" unicode="V" horiz-adv-x="795" 
d="M713 641l-236 -641h-160l-235 641q-37 19 -83 26v73h358v-73q-47 -7 -84 -26l156 -456l159 456q-39 19 -83 26v73h291v-73q-48 -7 -83 -26z" />
    <glyph glyph-name="W" unicode="W" horiz-adv-x="1145" 
d="M303 0l-212 641q-36 19 -85 26v73h342v-73q-43 -6 -82 -26l139 -448l118 340l-35 108q-37 19 -83 26v73h339v-73q-44 -7 -83 -26l133 -439l137 439q-38 20 -81 26v73h289v-73q-48 -7 -86 -26l-213 -641h-143l-118 361l-133 -361h-143z" />
    <glyph glyph-name="X" unicode="X" horiz-adv-x="781" 
d="M307 643l107 -172l114 172q-35 18 -72 24v73h300v-73q-62 -9 -94 -26l-181 -247l200 -300q34 -17 89 -25v-69h-367v69q44 6 78 24l-117 188l-130 -188q34 -18 77 -24v-69h-300v69q56 8 88 25l193 268l-185 279q-36 18 -89 26v73h367v-73q-45 -7 -78 -24z" />
    <glyph glyph-name="Y" unicode="Y" horiz-adv-x="726" 
d="M276 93v192l-194 356q-37 19 -83 26v73h358v-73q-47 -7 -84 -26l122 -241l123 241q-37 19 -83 26v73h292v-73q-46 -7 -83 -26l-195 -354v-194q34 -18 83 -25v-68h-340v68q48 7 84 25z" />
    <glyph glyph-name="Z" unicode="Z" horiz-adv-x="626" 
d="M156 502h-112l1 238h560v-65l-368 -584h207l47 141h108l-4 -232h-578v59l372 583h-196z" />
    <glyph glyph-name="bracketleft" unicode="[" horiz-adv-x="345" 
d="M80 -148v937h253v-87h-109v-764h109v-86h-253z" />
    <glyph glyph-name="backslash" unicode="\" horiz-adv-x="371" 
d="M94 742l300 -805h-126l-300 805h126z" />
    <glyph glyph-name="bracketright" unicode="]" horiz-adv-x="345" 
d="M265 789v-937h-253v86h108v764h-108v87h253z" />
    <glyph glyph-name="asciicircum" unicode="^" horiz-adv-x="519" 
d="M21 486l187 284h103l187 -284h-120l-119 192l-118 -192h-120z" />
    <glyph glyph-name="underscore" unicode="_" horiz-adv-x="303" 
d="M0 -164v89h303v-89h-303z" />
    <glyph glyph-name="grave" unicode="`" horiz-adv-x="268" 
d="M236 618l-33 -46q-162 70 -205 100q-7 15 -7 34q0 34 20.5 59t59.5 25q7 0 11 -1q75 -101 154 -171z" />
    <glyph glyph-name="a" unicode="a" horiz-adv-x="528" 
d="M430 -8q-84 0 -116 65q-35 -35 -67.5 -51t-80.5 -16q-66 0 -105 39t-39 98q0 23 4.5 42t21.5 41.5t46 39.5t82 31.5t126 21.5v19q0 72 -18 99t-61 27q-16 0 -24 -1l-28 -96h-110v145q99 36 190 36q106 0 156 -56.5t50 -155.5v-197q0 -47 42 -47q12 0 20 4l7 -61
q-32 -27 -96 -27zM233 88q41 0 69 35v101q-62 -7 -129 -27q-6 -18 -6 -36q0 -73 66 -73z" />
    <glyph glyph-name="b" unicode="b" horiz-adv-x="590" 
d="M228 557v-89q68 64 143 64q89 0 142.5 -72.5t53.5 -184.5q0 -129 -67 -207t-174 -78q-78 0 -140 53l-43 -43h-71v557q0 82 -4 101l-86 13v79l242 15q4 -110 4 -208zM295 420q-31 0 -67 -17v-238q0 -43 23.5 -67.5t64.5 -24.5q11 0 33 4q63 51 63 178q0 165 -117 165z" />
    <glyph glyph-name="c" unicode="c" horiz-adv-x="485" 
d="M23 251q0 123 71 202t191 79q81 0 166 -38v-163h-100l-20 82q-43 23 -94 23q-11 0 -17 -1q-36 -56 -36 -146q0 -101 36 -147.5t92 -46.5q65 0 114 61l48 -46q-29 -53 -83.5 -87t-122.5 -34q-114 0 -179.5 72t-65.5 190z" />
    <glyph glyph-name="d" unicode="d" horiz-adv-x="595" 
d="M518 557v-376q0 -62 4 -94l74 -8v-67l-215 -20q-4 25 -10 76q-66 -78 -152 -78q-89 0 -142.5 73t-53.5 188q0 126 63.5 203.5t167.5 77.5q59 0 108 -26v51q0 82 -4 101l-85 13v79l241 15q4 -110 4 -208zM362 122v221q0 42 -29.5 68t-73.5 26q-8 0 -24 -2
q-57 -48 -57 -171q0 -170 113 -170q33 0 71 28z" />
    <glyph glyph-name="e" unicode="e" horiz-adv-x="514" 
d="M442 156l48 -46q-29 -53 -85 -87t-130 -34q-120 0 -186 75.5t-66 195.5q0 109 70.5 190t186.5 81q91 0 148 -65.5t58 -167.5q-16 -30 -40 -52h-261q10 -78 48.5 -114.5t83.5 -36.5q71 0 125 61zM230 448q-42 -46 -47 -129q169 2 169 7q0 58 -27.5 90.5t-76.5 32.5
q-12 0 -18 -1z" />
    <glyph glyph-name="f" unicode="f" horiz-adv-x="388" 
d="M10 429v87h94v35q0 101 65 168t171 67q71 0 133 -32l8 -144h-107l-27 85q-31 12 -64 12q-22 -38 -23 -156v-35h137v-87h-137v-347q32 -16 76 -23v-59h-309v59q47 7 77 23v347h-94z" />
    <glyph glyph-name="g" unicode="g" horiz-adv-x="545" 
d="M244 185q-38 0 -73 11q-10 -16 -10 -29q0 -26 29 -28l170 -8q173 -8 173 -138q0 -79 -76.5 -134.5t-204.5 -55.5q-104 0 -159.5 38t-55.5 90q0 56 43 89q-50 26 -50 88t89 113q-73 50 -73 140q0 80 61.5 125t163.5 45q61 0 110 -27q51 95 122 95q22 0 40 -6l-8 -119
q-12 4 -36 4q-36 0 -72 -11q42 -45 42 -112q0 -79 -61.5 -124.5t-163.5 -45.5zM348 -5l-202 10q-12 -17 -12 -36q0 -31 32.5 -52.5t101.5 -21.5q72 0 130 18q11 24 11 39q0 19 -12.5 30t-48.5 13zM280 270q5 0 17 2q27 29 27 74q0 100 -88 100q-5 0 -17 -2q-28 -28 -28 -75
q0 -99 89 -99z" />
    <glyph glyph-name="h" unicode="h" horiz-adv-x="634" 
d="M91 82v475q0 73 -4 101l-86 13v79l241 15q5 -138 5 -208v-98q71 73 154 73q72 0 115 -52t43 -135v-263q30 -16 76 -23v-59h-289v61q35 6 57 21v243q0 91 -75 91q-38 0 -81 -24v-310q20 -14 55 -21v-61h-288v59q46 7 77 23z" />
    <glyph glyph-name="i" unicode="i" horiz-adv-x="352" 
d="M114 82v239q0 74 -4 102l-86 12v79l241 15q4 -110 4 -208v-239q32 -16 77 -23v-59h-309v59q46 7 77 23zM270 707q0 -38 -25.5 -64.5t-62.5 -26.5t-63.5 26.5t-26.5 64.5q0 37 26 63.5t64 26.5q37 0 62.5 -26t25.5 -64z" />
    <glyph glyph-name="j" unicode="j" horiz-adv-x="326" 
d="M264 321v-301q0 -83 -67.5 -146.5t-192.5 -69.5l-9 74q60 14 87 47.5t27 94.5v301q0 74 -4 102l-86 12v79l241 15q4 -110 4 -208zM265 707q0 -38 -25.5 -64.5t-62.5 -26.5t-63.5 26.5t-26.5 64.5q0 37 26.5 63.5t63.5 26.5t62.5 -26t25.5 -64z" />
    <glyph glyph-name="k" unicode="k" horiz-adv-x="619" 
d="M91 82v475q0 73 -4 101l-86 13v79l241 15q5 -138 5 -208v-267l145 150q-26 18 -61 22v60h247v-58q-45 -5 -77 -24l-108 -108l154 -250q31 -16 77 -23v-59h-208l-131 224l-38 -38v-104q20 -14 55 -21v-61h-288v59q46 7 77 23z" />
    <glyph glyph-name="l" unicode="l" horiz-adv-x="347" 
d="M104 82v475q0 73 -4 101l-86 13v79l241 15q5 -138 5 -208v-475q31 -16 76 -23v-59h-309v59q47 7 77 23z" />
    <glyph glyph-name="m" unicode="m" horiz-adv-x="941" 
d="M106 82v239q0 81 -3 102l-86 12v79l232 15q3 -32 5 -79q38 41 74 61.5t83 20.5q97 0 134 -89q41 44 79 66.5t88 22.5q71 0 112.5 -51.5t41.5 -137.5v-261q30 -16 75 -23v-59h-288v61q36 7 57 21v244q0 51 -18 70.5t-52 19.5q-36 0 -80 -25q4 -20 4 -48v-261
q22 -15 56 -21v-61h-268v61q36 7 56 21v244q0 51 -18 70.5t-51 19.5q-34 0 -77 -23v-311q22 -15 56 -21v-61h-288v59q46 7 76 23z" />
    <glyph glyph-name="n" unicode="n" horiz-adv-x="651" 
d="M106 82v239q0 81 -3 102l-86 12v79l232 15q3 -34 5 -80q40 42 76.5 62.5t86.5 20.5q72 0 115 -52t43 -135v-263q31 -16 76 -23v-59h-289v61q35 6 57 21v243q0 91 -75 91q-38 0 -82 -24v-310q22 -15 56 -21v-61h-288v59q46 7 76 23z" />
    <glyph glyph-name="o" unicode="o" horiz-adv-x="558" 
d="M23 266q0 124 72.5 195t190.5 71q115 0 182 -77t67 -199q0 -124 -72.5 -195t-189.5 -71q-115 0 -182.5 77t-67.5 199zM255 442q-18 0 -33 -6q-39 -43 -39 -138q0 -109 31 -169.5t89 -60.5q18 0 33 6q38 41 38 137q0 109 -31 170t-88 61z" />
    <glyph glyph-name="p" unicode="p" horiz-adv-x="606" 
d="M89 -106v427q0 74 -4 102l-86 12v79l232 15q3 -30 5 -69q73 72 152 72q89 0 142 -72.5t53 -184.5q0 -129 -67 -207t-174 -78q-55 0 -98 23v-119q32 -16 77 -23v-59h-309v59q46 7 77 23zM244 155q0 -40 23.5 -61.5t62.5 -21.5q16 0 33 3q65 50 65 180q0 164 -116 164
q-32 0 -68 -17v-247z" />
    <glyph glyph-name="q" unicode="q" horiz-adv-x="564" 
d="M362 -106v163q-64 -67 -143 -67q-89 0 -142.5 73t-53.5 188q0 126 63.5 203.5t167.5 77.5q84 0 150 -54l45 43h69v-627q30 -16 76 -23v-59h-308v59q46 7 76 23zM291 94q35 0 71 28v220q0 42 -29 68t-73 26q-12 0 -26 -3q-56 -49 -56 -169q0 -170 113 -170z" />
    <glyph glyph-name="r" unicode="r" horiz-adv-x="527" 
d="M106 82v239q0 81 -3 102l-86 12v79l236 15q6 -63 7 -128q68 130 163 130q41 0 72 -18v-186h-105l-23 72q-36 0 -59 -23t-46 -74v-220q32 -16 77 -23v-59h-309v59q46 7 76 23z" />
    <glyph glyph-name="s" unicode="s" horiz-adv-x="470" 
d="M442 162q0 -80 -61 -126t-160 -46q-44 0 -92.5 12.5t-82.5 35.5l-9 125h98l26 -75q51 -23 116 -23q26 24 26 60q0 28 -28 46t-67.5 30t-79.5 27t-67.5 49t-27.5 85q0 69 60 119.5t161 50.5q79 0 161 -37v-132h-98l-28 72q-37 14 -72 14q-13 0 -20 -1q-24 -20 -24 -48
q0 -27 27.5 -45.5t67.5 -31t79.5 -28.5t67 -49.5t27.5 -83.5z" />
    <glyph glyph-name="t" unicode="t" horiz-adv-x="361" 
d="M332 423h-97v-284q0 -61 51 -61q19 0 39 11l16 -64q-50 -36 -115 -36q-71 0 -109 41t-38 113v280h-70v93h70v117l156 36v-153h97v-93z" />
    <glyph glyph-name="u" unicode="u" horiz-adv-x="654" 
d="M249 321v-122q0 -53 20.5 -73t55.5 -20q41 0 81 26v189q0 74 -4 102l-86 12v79l241 15q5 -92 5 -208v-140q0 -70 3 -94l75 -8v-67l-215 -22q-3 16 -10 80q-72 -80 -162 -80q-74 0 -117 52t-43 134v145q0 81 -3 102l-86 12v79l241 15q4 -110 4 -208z" />
    <glyph glyph-name="v" unicode="v" horiz-adv-x="601" 
d="M296 522v-72q-34 -4 -60 -22l95 -293l96 293q-26 18 -60 22v72h248v-72q-43 -5 -77 -22l-162 -429h-152l-161 429q-34 17 -76 22v72h309z" />
    <glyph glyph-name="w" unicode="w" horiz-adv-x="876" 
d="M290 522v-72q-37 -4 -67 -22l95 -302l85 257l-14 44q-31 18 -68 23v72h275v-75q-37 -6 -60 -21l85 -291l87 290q-23 16 -61 22v75h238v-73q-48 -8 -76 -23l-145 -427h-137l-82 253l-86 -253h-143l-153 429q-36 17 -76 22v72h303z" />
    <glyph glyph-name="x" unicode="x" horiz-adv-x="607" 
d="M317 522v-72q-24 -3 -49 -21l65 -98l74 98q-24 19 -47 21v72h222v-72q-41 -5 -72 -23l-125 -156l138 -189q30 -16 76 -23v-59h-304v61q36 7 56 21l-75 108l-86 -108q22 -15 56 -21v-61h-237v59q46 7 76 23l139 169l-131 176q-29 19 -67 23v72h291z" />
    <glyph glyph-name="y" unicode="y" horiz-adv-x="601" 
d="M538 426l-185 -459q-32 -79 -70.5 -121t-98.5 -42q-48 0 -88 31v89q60 0 137 7q16 27 30 58l-200 437q-30 16 -76 23v73h309v-72q-37 -6 -60 -22l100 -245l91 245q-23 16 -60 22v72h248v-73q-46 -7 -77 -23z" />
    <glyph glyph-name="z" unicode="z" horiz-adv-x="500" 
d="M135 347h-98v175h434v-81l-266 -364h146l32 100h94l-5 -177h-449v75l267 358h-134z" />
    <glyph glyph-name="braceleft" unicode="{" horiz-adv-x="345" 
d="M348 -82v-69q-261 0 -261 183q0 40 14.5 100t14.5 88t-17 48l-61 16v74l61 17q17 20 17 48t-15 88t-15 100q0 183 262 183v-69q-123 -9 -123 -117q0 -32 10 -90t10 -83q0 -36 -22.5 -67t-62.5 -47q40 -17 62.5 -47.5t22.5 -66.5q0 -25 -10 -82.5t-10 -90.5
q0 -107 123 -116z" />
    <glyph glyph-name="bar" unicode="|" horiz-adv-x="345" 
d="M113 -129v918h120v-918h-120z" />
    <glyph glyph-name="braceright" unicode="}" horiz-adv-x="345" 
d="M-3 -151v69q122 9 122 116q0 33 -9.5 90.5t-9.5 82.5q0 36 22 66.5t62 47.5q-40 16 -62 46.5t-22 67.5q0 25 10 83t10 90q0 108 -123 117v69q261 0 261 -183q0 -40 -14.5 -100t-14.5 -88q0 -29 17 -48l61 -17v-74l-61 -16q-17 -19 -17 -48q0 -28 14.5 -88t14.5 -100
q0 -183 -261 -183z" />
    <glyph glyph-name="asciitilde" unicode="~" horiz-adv-x="519" 
d="M101 235h-84q2 107 41 162t98 55q34 0 68 -17t56 -38t46 -38t42 -17q46 0 51 102h83q-1 -107 -40.5 -161.5t-100.5 -54.5q-33 0 -65.5 17t-53 37.5t-44 37.5t-41.5 17q-51 0 -56 -102z" />
    <glyph glyph-name="uni00A0" unicode="&#xa0;" horiz-adv-x="186" 
 />
    <glyph glyph-name="exclamdown" unicode="&#xa1;" horiz-adv-x="264" 
d="M169 270l55 -364q0 -45 -23 -74t-70 -29q-45 0 -68 29t-23 74l56 364h73zM219 447q0 -36 -25.5 -61.5t-61.5 -25.5q-35 0 -60 25.5t-25 61.5q0 35 25 60t60 25q36 0 61.5 -25t25.5 -60z" />
    <glyph glyph-name="cent" unicode="&#xa2;" horiz-adv-x="485" 
d="M23 251q0 106 54.5 181t148.5 94l17 107h102l-6 -105q53 -8 112 -34v-163h-109q-5 32 -21 87q-39 18 -84 18q-11 0 -17 -1q-36 -56 -36 -146q0 -101 36 -147.5t92 -46.5q65 0 114 61l48 -46q-23 -43 -64 -74t-92 -42l-19 -108h-102l7 110q-86 19 -133.5 87t-47.5 168z
" />
    <glyph glyph-name="sterling" unicode="&#xa3;" horiz-adv-x="575" 
d="M10 0v59q41 3 77 18q21 81 21 170v51h-73v84h73v12q0 140 69 227.5t194 87.5q80 0 145 -35l8 -188h-108l-28 127q-35 13 -68 16q-51 -69 -53 -235v-12h148v-84h-148v-49q0 -89 -51 -162h201l54 140h89l-18 -227h-532z" />
    <glyph glyph-name="currency" unicode="&#xa4;" horiz-adv-x="570" 
d="M97 355q0 55 29 103l-70 71l63 61l69 -69q47 31 104 31q56 0 103 -30l69 70l62 -62l-68 -70q30 -49 30 -105q0 -55 -30 -102l70 -70l-63 -63l-71 71q-47 -28 -102 -28q-56 0 -101 28l-71 -72l-63 62l70 71q-30 47 -30 103zM195 355q0 -40 28.5 -68.5t68.5 -28.5
q41 0 69.5 28.5t28.5 68.5q0 42 -28.5 71t-69.5 29q-42 0 -69.5 -28.5t-27.5 -71.5z" />
    <glyph glyph-name="yen" unicode="&#xa5;" horiz-adv-x="634" 
d="M126 336h93l-144 267q-31 20 -69 26v71h295v-71q-38 -6 -67 -26l105 -225l114 225q-33 21 -63 26v71h239v-71q-29 -4 -65 -26l-150 -267h90v-63h-113v-35h113v-63h-113v-82q35 -18 82 -25v-68h-313v68q48 7 82 25v82h-116v63h116v35h-116v63z" />
    <glyph glyph-name="brokenbar" unicode="&#xa6;" horiz-adv-x="345" 
d="M113 426v363h120v-363h-120zM113 -32v363h120v-363h-120z" />
    <glyph glyph-name="section" unicode="&#xa7;" horiz-adv-x="537" 
d="M65 -109v129h101l20 -77q52 -34 109 -34q14 0 22 1q29 23 29 54q0 40 -34 69t-82 48.5t-96 42t-82 63t-34 96.5q0 77 91 132q-50 48 -50 118q0 78 67 134.5t171 56.5q96 0 172 -43v-146h-101l-29 76q-46 22 -98 22q-37 -22 -37 -63q0 -33 23 -58.5t57 -40.5t74 -34.5
t74 -38.5t57 -53.5t23 -78.5q0 -83 -84 -141q49 -47 49 -114q0 -81 -67.5 -131.5t-155.5 -50.5q-116 0 -189 62zM387 209q0 34 -24 60.5t-54 40l-78.5 34.5t-75.5 37q-14 -23 -14 -49q0 -32 24 -57.5t53.5 -39l78.5 -34.5t76 -36q14 20 14 44z" />
    <glyph glyph-name="dieresis" unicode="&#xa8;" horiz-adv-x="268" 
d="M113 693q0 -34 -23 -57.5t-56 -23.5t-56.5 23.5t-23.5 57.5q0 33 23.5 56.5t56.5 23.5t56 -23.5t23 -56.5zM314 693q0 -34 -23 -57.5t-55 -23.5q-34 0 -57 23.5t-23 57.5q0 33 23 56.5t57 23.5q32 0 55 -23.5t23 -56.5z" />
    <glyph glyph-name="copyright" unicode="&#xa9;" horiz-adv-x="798" 
d="M19 368q0 157 111.5 268.5t268.5 111.5t268 -111.5t111 -268.5t-111 -268t-268 -111t-268.5 111t-111.5 268zM87 368q0 -132 91.5 -225.5t221.5 -93.5t221 93.5t91 225.5q0 133 -91 226.5t-221 93.5t-221.5 -93.5t-91.5 -226.5zM541 277l42 -27q-23 -49 -72 -82t-110 -33
q-99 0 -158 62t-59 160q0 107 63 177.5t166 70.5q81 0 150 -39v-124h-80l-19 69q-39 16 -78 16q-9 0 -27 -2q-34 -55 -34 -139q0 -168 117 -168q58 0 99 59z" />
    <glyph glyph-name="ordfeminine" unicode="&#xaa;" horiz-adv-x="364" 
d="M287 447q-57 0 -78 43q-42 -44 -96 -44q-44 0 -69.5 25t-25.5 64q0 20 5.5 34.5t22.5 32.5t56 30.5t98 18.5v8q0 47 -11.5 63t-47.5 17l-19 -59h-77v94q67 24 126 24q71 0 105 -37.5t34 -102.5v-124q0 -28 27 -28q5 0 11 2l5 -43q-22 -18 -66 -18zM160 514q24 0 40 20v62
q-32 -5 -77 -17q-3 -11 -3 -20q0 -45 40 -45z" />
    <glyph glyph-name="guillemotleft" unicode="&#xab;" horiz-adv-x="515" 
d="M226 535l60 -46l-123 -167l123 -167l-60 -46q-67 73 -124.5 123.5t-82.5 57.5v64q24 6 81.5 56.5t125.5 124.5zM437 535l60 -46l-123 -167l123 -167l-60 -46q-67 73 -124.5 123.5t-82.5 57.5v64q24 6 81.5 56.5t125.5 124.5z" />
    <glyph glyph-name="logicalnot" unicode="&#xac;" horiz-adv-x="415" 
d="M25 282v110h342v-245h-117v135h-225z" />
    <glyph glyph-name="uni00AD" unicode="&#xad;" horiz-adv-x="303" 
d="M27 266v112h249v-112h-249z" />
    <glyph glyph-name="registered" unicode="&#xae;" horiz-adv-x="372" 
d="M13 626q0 72 51 122.5t122 50.5q72 0 123 -50.5t51 -122.5q0 -70 -51.5 -120t-122.5 -50t-122 50t-51 120zM50 626q0 -57 40 -96.5t96 -39.5q57 0 97 39.5t40 96.5q0 58 -40 98.5t-97 40.5q-58 0 -97 -40t-39 -99zM214 544l-26 72h-15v-46q14 -6 19 -7v-19h-86v19
q11 2 18 7v123q-10 5 -18 5v22h79q40 0 56.5 -11.5t16.5 -35.5q0 -26 -27 -43l25 -59q13 -6 24 -8v-19h-66zM173 640l22 2q11 8 11 25q0 26 -21 26h-12v-53z" />
    <glyph glyph-name="macron" unicode="&#xaf;" horiz-adv-x="268" 
d="M-21 648v92h309v-92h-309z" />
    <glyph glyph-name="degree" unicode="&#xb0;" horiz-adv-x="311" 
d="M15 661q0 58 40.5 98t97.5 40q58 0 99 -40t41 -98t-41 -98t-99 -40q-57 0 -97.5 40t-40.5 98zM87 660q0 -29 19.5 -49.5t47.5 -20.5t48 20.5t20 49.5t-20 49.5t-48 20.5t-47.5 -20.5t-19.5 -49.5z" />
    <glyph glyph-name="plusminus" unicode="&#xb1;" horiz-adv-x="415" 
d="M25 309v111h124v137h117v-137h123v-111h-123v-134h-117v134h-124zM25 24v110h364v-110h-364z" />
    <glyph glyph-name="twosuperior" unicode="&#xb2;" 
d="M42 744v88q59 32 128 32q73 0 104 -30t31 -73q0 -23 -8.5 -43t-30 -39.5t-37 -31t-52 -35l-52.5 -34.5h130l14 52h46v-123h-282v56q93 69 132 111t39 82q0 46 -50 46q-14 0 -27 -3l-14 -55h-71z" />
    <glyph glyph-name="threesuperior" unicode="&#xb3;" 
d="M48 743v88q64 33 124 33q63 0 94 -25.5t31 -63.5q0 -53 -66 -78q78 -18 78 -84q0 -44 -36.5 -78t-115.5 -34q-70 0 -122 34l19 78q66 -47 124 -55q31 16 31 53q0 50 -81 50v43q73 13 73 63q0 17 -12.5 27.5t-34.5 10.5q-6 0 -20 -2l-16 -60h-70z" />
    <glyph glyph-name="acute" unicode="&#xb4;" horiz-adv-x="268" 
d="M43 574l-36 46q32 23 83.5 76t79.5 90h44q20 -8 33 -28t13 -42q0 -32 -27 -56q-21 -19 -79 -44.5t-111 -41.5z" />
    <glyph glyph-name="mu" unicode="&#xb5;" horiz-adv-x="644" 
d="M556 321v-198q0 -47 41 -47q13 0 20 4l7 -61q-34 -27 -95 -27q-92 0 -120 73q-53 -65 -117 -65q-62 0 -90 52q4 -126 35 -226l-87 -13q-68 55 -68 155q0 19 3 93.5t3 130.5v129q0 83 -4 102l-85 12v79l241 15q4 -110 4 -208v-122q0 -53 20 -73t56 -20q38 0 80 28v187
q0 83 -4 102l-85 12v79l241 15q4 -110 4 -208z" />
    <glyph glyph-name="paragraph" unicode="&#xb6;" horiz-adv-x="607" 
d="M389 0v670h-102v-670h-118v410q-68 4 -115 53t-47 117q0 70 50.5 120t120.5 50h419v-80h-90v-670h-118z" />
    <glyph glyph-name="periodcentered" unicode="&#xb7;" horiz-adv-x="272" 
d="M39 317q0 40 28 68.5t68 28.5q39 0 67 -28.5t28 -68.5t-28 -68t-67 -28q-40 0 -68 28t-28 68z" />
    <glyph glyph-name="cedilla" unicode="&#xb8;" horiz-adv-x="339" 
d="M91 34l58 -2l-14 -62q68 -3 93 -21.5t25 -47.5q0 -42 -41.5 -68t-123.5 -26q-26 0 -57 3l11 44h11q100 0 100 26q0 6 -9.5 11t-31 9t-51.5 4z" />
    <glyph glyph-name="onesuperior" unicode="&#xb9;" 
d="M189 860h46v-298q27 -9 71 -13v-42h-251v42q48 5 74 13v198q0 15 -18 15h-76v43z" />
    <glyph glyph-name="ordmasculine" unicode="&#xba;" horiz-adv-x="371" 
d="M16 627q0 81 48 126.5t125 45.5q76 0 120.5 -50.5t44.5 -130.5q-1 -81 -48.5 -126t-124.5 -45q-76 0 -120.5 50t-44.5 130zM175 731q-7 0 -17 -2q-30 -26 -30 -92q0 -132 67 -132q5 0 17 2q30 26 30 92t-18 99t-49 33z" />
    <glyph glyph-name="guillemotright" unicode="&#xbb;" horiz-adv-x="515" 
d="M19 489l60 46q67 -73 125 -124t82 -57v-64q-24 -7 -82 -57.5t-125 -123.5l-60 46l122 167zM230 489l60 46q67 -73 125 -124t82 -57v-64q-24 -7 -82 -57.5t-125 -123.5l-60 46l122 167z" />
    <glyph glyph-name="onequarter" unicode="&#xbc;" horiz-adv-x="726" 
d="M185 739h46v-298q27 -9 71 -13v-42h-251v42q48 5 74 13v198q0 15 -18 15h-76v43zM540 51v32h-163v53l153 216h103v-209h64l-3 -60h-61v-32q23 -10 49 -13v-38h-190v38q26 3 48 13zM451 143h89v128zM91 0l479 741h103l-479 -741h-103z" />
    <glyph glyph-name="onehalf" unicode="&#xbd;" horiz-adv-x="726" 
d="M438 237v88q59 32 128 32q73 0 104 -30t31 -73q0 -23 -8.5 -43t-30 -39.5t-37 -31t-52 -35l-52.5 -34.5h130l14 52h46v-123h-282v56q93 69 132 111t39 82q0 46 -50 46q-14 0 -27 -3l-14 -55h-71zM91 0l479 741h103l-479 -741h-103zM185 739h46v-298q27 -9 71 -13v-42
h-251v42q48 5 74 13v198q0 15 -18 15h-76v43z" />
    <glyph glyph-name="threequarters" unicode="&#xbe;" horiz-adv-x="726" 
d="M525 51v32h-163v53l153 216h103v-209h64l-3 -60h-61v-32q23 -10 49 -13v-38h-190v38q26 3 48 13zM436 143h89v128zM91 0l479 741h103l-479 -741h-103zM84 622v88q64 33 124 33q63 0 94 -25.5t31 -63.5q0 -53 -66 -78q78 -18 78 -84q0 -44 -36.5 -78t-115.5 -34
q-70 0 -122 34l19 78q66 -47 124 -55q31 16 31 53q0 50 -81 50v43q73 13 73 63q0 17 -12.5 27.5t-34.5 10.5q-6 0 -20 -2l-16 -60h-70z" />
    <glyph glyph-name="questiondown" unicode="&#xbf;" horiz-adv-x="432" 
d="M416 -114v-76q-72 -8 -130 -8q-130 0 -197 49.5t-67 125.5q0 125 183 207l20 86h97l17 -117q-142 -63 -142 -142q0 -111 219 -125zM361 447q0 -36 -25.5 -61.5t-61.5 -25.5q-35 0 -60 25.5t-25 61.5q0 35 25 60t60 25q36 0 61.5 -25t25.5 -60z" />
    <glyph glyph-name="Agrave" unicode="&#xc0;" horiz-adv-x="824" 
d="M90 93l227 647h192l225 -647q36 -18 84 -25v-68h-353v68q49 7 83 25l-42 130h-251l-43 -130q35 -18 82 -25v-68h-288v68q48 7 84 25zM382 609l-96 -291h189zM501 835l-20 -56q-164 26 -230 52q-22 25 -22 55q0 54 54 72h33q111 -83 185 -123z" />
    <glyph glyph-name="Aacute" unicode="&#xc1;" horiz-adv-x="824" 
d="M90 93l227 647h192l225 -647q36 -18 84 -25v-68h-353v68q49 7 83 25l-42 130h-251l-43 -130q35 -18 82 -25v-68h-288v68q48 7 84 25zM382 609l-96 -291h189zM339 779l-22 51q43 19 103 58t92 69h42q35 -20 35 -65q0 -42 -37 -63q-24 -14 -89.5 -28.5t-123.5 -21.5z" />
    <glyph glyph-name="Acircumflex" unicode="&#xc2;" horiz-adv-x="824" 
d="M90 93l227 647h192l225 -647q36 -18 84 -25v-68h-353v68q49 7 83 25l-42 130h-251l-43 -130q35 -18 82 -25v-68h-288v68q48 7 84 25zM382 609l-96 -291h189zM264 780l-28 42q106 77 140 134h55q34 -57 140 -134l-28 -42l-140 61z" />
    <glyph glyph-name="Atilde" unicode="&#xc3;" horiz-adv-x="824" 
d="M90 93l227 647h192l225 -647q36 -18 84 -25v-68h-353v68q49 7 83 25l-42 130h-251l-43 -130q35 -18 82 -25v-68h-288v68q48 7 84 25zM382 609l-96 -291h189zM476 780q-40 0 -89 37.5t-60 41.5q-27 -27 -27 -72h-65q0 75 34 114.5t85 39.5q31 0 57.5 -15.5t51 -36
t42.5 -27.5q26 26 26 72h65q-1 -75 -35 -114.5t-85 -39.5z" />
    <glyph glyph-name="Adieresis" unicode="&#xc4;" horiz-adv-x="824" 
d="M90 93l227 647h192l225 -647q36 -18 84 -25v-68h-353v68q49 7 83 25l-42 130h-251l-43 -130q35 -18 82 -25v-68h-288v68q48 7 84 25zM382 609l-96 -291h189zM382 864q0 -31 -21.5 -53t-52.5 -22q-32 0 -54 22t-22 53t22 52.5t54 21.5q31 0 52.5 -21.5t21.5 -52.5z
M592 864q0 -31 -22 -53t-53 -22t-52.5 22t-21.5 53t21.5 52.5t52.5 21.5t53 -21.5t22 -52.5z" />
    <glyph glyph-name="Aring" unicode="&#xc5;" horiz-adv-x="824" 
d="M90 93l227 647h192l225 -647q36 -18 84 -25v-68h-353v68q49 7 83 25l-42 130h-251l-43 -130q35 -18 82 -25v-68h-288v68q48 7 84 25zM382 609l-96 -291h189zM290 875q0 50 35.5 85.5t85.5 35.5t85.5 -35.5t35.5 -85.5t-35.5 -85t-85.5 -35t-85.5 35t-35.5 85zM355 875
q0 -24 16.5 -41.5t40.5 -17.5t40.5 17.5t16.5 41.5t-16.5 41t-40.5 17t-40.5 -17t-16.5 -41z" />
    <glyph glyph-name="AE" unicode="&#xc6;" horiz-adv-x="974" 
d="M493 89l-29 224h-182l-89 -220q35 -18 82 -25v-68h-294v68q48 7 84 25l242 554q-35 14 -70 19v74h692l6 -237h-108l-46 139h-187l30 -226h176v-103h-163l28 -218h121l59 137h108l-14 -232h-530v64q48 7 84 25zM421 653l-101 -246h132z" />
    <glyph glyph-name="Ccedilla" unicode="&#xc7;" horiz-adv-x="638" 
d="M566 200l56 -38q-36 -72 -103 -120t-151 -52l-5 -19q118 -7 118 -70q0 -42 -42 -68t-123 -26q-27 0 -57 3l11 44h11q100 0 100 26q0 6 -9.5 11t-31 9t-51.5 4l20 89q-130 16 -206.5 114t-76.5 246q0 170 96 283.5t251 113.5q106 0 215 -42v-204h-108l-31 122
q-54 22 -111 22q-30 0 -51 -5q-74 -82 -74 -248q0 -146 53 -218.5t140 -72.5q94 0 160 96z" />
    <glyph glyph-name="Egrave" unicode="&#xc8;" horiz-adv-x="648" 
d="M105 93v548q-35 18 -83 25v74h581l6 -237h-109l-45 139h-176v-208h192v-105h-192v-234h181l59 137h107l-13 -232h-591v68q49 7 83 25zM461 835l-20 -56q-164 26 -230 52q-22 25 -22 55q0 54 54 72h33q111 -83 185 -123z" />
    <glyph glyph-name="Eacute" unicode="&#xc9;" horiz-adv-x="648" 
d="M105 93v548q-35 18 -83 25v74h581l6 -237h-109l-45 139h-176v-208h192v-105h-192v-234h181l59 137h107l-13 -232h-591v68q49 7 83 25zM241 779l-22 51q43 19 103 58t92 69h42q35 -20 35 -65q0 -42 -37 -63q-24 -14 -89.5 -28.5t-123.5 -21.5z" />
    <glyph glyph-name="Ecircumflex" unicode="&#xca;" horiz-adv-x="648" 
d="M105 93v548q-35 18 -83 25v74h581l6 -237h-109l-45 139h-176v-208h192v-105h-192v-234h181l59 137h107l-13 -232h-591v68q49 7 83 25zM197 780l-28 42q106 77 140 134h55q34 -57 140 -134l-28 -42l-140 61z" />
    <glyph glyph-name="Edieresis" unicode="&#xcb;" horiz-adv-x="648" 
d="M105 93v548q-35 18 -83 25v74h581l6 -237h-109l-45 139h-176v-208h192v-105h-192v-234h181l59 137h107l-13 -232h-591v68q49 7 83 25zM300 864q0 -31 -21.5 -53t-52.5 -22q-32 0 -54 22t-22 53t22 52.5t54 21.5q31 0 52.5 -21.5t21.5 -52.5zM510 864q0 -31 -22 -53
t-53 -22t-52.5 22t-21.5 53t21.5 52.5t52.5 21.5t53 -21.5t22 -52.5z" />
    <glyph glyph-name="Igrave" unicode="&#xcc;" horiz-adv-x="397" 
d="M285 642v-554q34 -18 83 -25v-63h-340v63q48 7 83 24v555q-33 18 -83 25v73h340v-73q-49 -7 -83 -25zM323 835l-20 -56q-164 26 -230 52q-22 25 -22 55q0 54 54 72h33q111 -83 185 -123z" />
    <glyph glyph-name="Iacute" unicode="&#xcd;" horiz-adv-x="397" 
d="M285 642v-554q34 -18 83 -25v-63h-340v63q48 7 83 24v555q-33 18 -83 25v73h340v-73q-49 -7 -83 -25zM118 779l-22 51q43 19 103 58t92 69h42q35 -20 35 -65q0 -42 -37 -63q-24 -14 -89.5 -28.5t-123.5 -21.5z" />
    <glyph glyph-name="Icircumflex" unicode="&#xce;" horiz-adv-x="397" 
d="M285 642v-554q34 -18 83 -25v-63h-340v63q48 7 83 24v555q-33 18 -83 25v73h340v-73q-49 -7 -83 -25zM61 780l-28 42q106 77 140 134h55q34 -57 140 -134l-28 -42l-140 61z" />
    <glyph glyph-name="Idieresis" unicode="&#xcf;" horiz-adv-x="397" 
d="M285 642v-554q34 -18 83 -25v-63h-340v63q48 7 83 24v555q-33 18 -83 25v73h340v-73q-49 -7 -83 -25zM168 864q0 -31 -21.5 -53t-52.5 -22q-32 0 -54 22t-22 53t22 52.5t54 21.5q31 0 52.5 -21.5t21.5 -52.5zM378 864q0 -31 -22 -53t-53 -22t-52.5 22t-21.5 53t21.5 52.5
t52.5 21.5t53 -21.5t22 -52.5z" />
    <glyph glyph-name="Eth" unicode="&#xd0;" horiz-adv-x="762" 
d="M25 332v93h85v216q-35 18 -83 25v74h351q156 0 256.5 -99.5t100.5 -255.5q0 -189 -104 -287t-274 -98h-330v68q49 7 83 25v239h-85zM352 642h-68v-217h112v-93h-112v-237h66q78 0 128 30q62 97 62 234q0 283 -188 283z" />
    <glyph glyph-name="Ntilde" unicode="&#xd1;" horiz-adv-x="793" 
d="M591 -1l-366 454v-360q34 -18 82 -25v-68h-286v68q50 7 84 25v509q-46 58 -97 64v74h199l361 -454v355q-35 18 -83 25v74h286v-74q-49 -7 -83 -25v-642h-97zM444 780q-40 0 -89 37.5t-60 41.5q-27 -27 -27 -72h-65q0 75 34 114.5t85 39.5q31 0 57.5 -15.5t51 -36
t42.5 -27.5q26 26 26 72h65q-1 -75 -35 -114.5t-85 -39.5z" />
    <glyph glyph-name="Ograve" unicode="&#xd2;" horiz-adv-x="747" 
d="M27 372q0 166 93.5 272t261.5 106q153 0 246 -110.5t93 -273.5q0 -167 -96.5 -271.5t-258.5 -104.5q-155 0 -247 109.5t-92 272.5zM210 414q0 -169 55 -250t141 -81q34 0 67 11q65 78 65 228q0 159 -51.5 241.5t-145.5 82.5q-35 0 -80 -20q-51 -78 -51 -212zM479 835
l-20 -56q-164 26 -230 52q-22 25 -22 55q0 54 54 72h33q111 -83 185 -123z" />
    <glyph glyph-name="Oacute" unicode="&#xd3;" horiz-adv-x="747" 
d="M27 372q0 166 93.5 272t261.5 106q153 0 246 -110.5t93 -273.5q0 -167 -96.5 -271.5t-258.5 -104.5q-155 0 -247 109.5t-92 272.5zM210 414q0 -169 55 -250t141 -81q34 0 67 11q65 78 65 228q0 159 -51.5 241.5t-145.5 82.5q-35 0 -80 -20q-51 -78 -51 -212zM294 779
l-22 51q43 19 103 58t92 69h42q35 -20 35 -65q0 -42 -37 -63q-24 -14 -89.5 -28.5t-123.5 -21.5z" />
    <glyph glyph-name="Ocircumflex" unicode="&#xd4;" horiz-adv-x="747" 
d="M27 372q0 166 93.5 272t261.5 106q153 0 246 -110.5t93 -273.5q0 -167 -96.5 -271.5t-258.5 -104.5q-155 0 -247 109.5t-92 272.5zM210 414q0 -169 55 -250t141 -81q34 0 67 11q65 78 65 228q0 159 -51.5 241.5t-145.5 82.5q-35 0 -80 -20q-51 -78 -51 -212zM240 780
l-28 42q106 77 140 134h55q34 -57 140 -134l-28 -42l-140 61z" />
    <glyph glyph-name="Otilde" unicode="&#xd5;" horiz-adv-x="747" 
d="M27 372q0 166 93.5 272t261.5 106q153 0 246 -110.5t93 -273.5q0 -167 -96.5 -271.5t-258.5 -104.5q-155 0 -247 109.5t-92 272.5zM210 414q0 -169 55 -250t141 -81q34 0 67 11q65 78 65 228q0 159 -51.5 241.5t-145.5 82.5q-35 0 -80 -20q-51 -78 -51 -212zM440 780
q-40 0 -89 37.5t-60 41.5q-27 -27 -27 -72h-65q0 75 34 114.5t85 39.5q31 0 57.5 -15.5t51 -36t42.5 -27.5q26 26 26 72h65q-1 -75 -35 -114.5t-85 -39.5z" />
    <glyph glyph-name="Odieresis" unicode="&#xd6;" horiz-adv-x="747" 
d="M27 372q0 166 93.5 272t261.5 106q153 0 246 -110.5t93 -273.5q0 -167 -96.5 -271.5t-258.5 -104.5q-155 0 -247 109.5t-92 272.5zM210 414q0 -169 55 -250t141 -81q34 0 67 11q65 78 65 228q0 159 -51.5 241.5t-145.5 82.5q-35 0 -80 -20q-51 -78 -51 -212zM350 864
q0 -31 -21.5 -53t-52.5 -22q-32 0 -54 22t-22 53t22 52.5t54 21.5q31 0 52.5 -21.5t21.5 -52.5zM560 864q0 -31 -22 -53t-53 -22t-52.5 22t-21.5 53t21.5 52.5t52.5 21.5t53 -21.5t22 -52.5z" />
    <glyph glyph-name="multiply" unicode="&#xd7;" horiz-adv-x="415" 
d="M316 524l78 -79l-106 -107l106 -106l-77 -78l-107 107l-107 -108l-78 78l107 108l-107 107l78 78l107 -107z" />
    <glyph glyph-name="Oslash" unicode="&#xd8;" horiz-adv-x="747" 
d="M27 372q0 166 93.5 272t261.5 106q118 0 203 -69l47 59h82l-84 -103q91 -108 91 -271q0 -167 -96.5 -271.5t-258.5 -104.5q-119 0 -204 68l-47 -58h-82l83 103q-89 106 -89 269zM538 322q0 100 -22 174l-258 -320q52 -93 148 -93q34 0 67 11q65 78 65 228zM210 414
q0 -101 20 -170l257 318q-49 84 -146 84q-35 0 -80 -20q-51 -78 -51 -212z" />
    <glyph glyph-name="Ugrave" unicode="&#xd9;" horiz-adv-x="786" 
d="M688 641v-371q0 -135 -82.5 -208t-218.5 -73q-134 0 -211.5 80t-77.5 201v371q-37 19 -83 26v73h339v-73q-45 -7 -82 -26v-371q0 -171 151 -171q55 0 102 31q38 52 38 140v371q-37 19 -83 26v73h291v-73q-47 -7 -83 -26zM502 835l-20 -56q-164 26 -230 52q-22 25 -22 55
q0 54 54 72h33q111 -83 185 -123z" />
    <glyph glyph-name="Uacute" unicode="&#xda;" horiz-adv-x="786" 
d="M688 641v-371q0 -135 -82.5 -208t-218.5 -73q-134 0 -211.5 80t-77.5 201v371q-37 19 -83 26v73h339v-73q-45 -7 -82 -26v-371q0 -171 151 -171q55 0 102 31q38 52 38 140v371q-37 19 -83 26v73h291v-73q-47 -7 -83 -26zM347 779l-22 51q43 19 103 58t92 69h42
q35 -20 35 -65q0 -42 -37 -63q-24 -14 -89.5 -28.5t-123.5 -21.5z" />
    <glyph glyph-name="Ucircumflex" unicode="&#xdb;" horiz-adv-x="786" 
d="M688 641v-371q0 -135 -82.5 -208t-218.5 -73q-134 0 -211.5 80t-77.5 201v371q-37 19 -83 26v73h339v-73q-45 -7 -82 -26v-371q0 -171 151 -171q55 0 102 31q38 52 38 140v371q-37 19 -83 26v73h291v-73q-47 -7 -83 -26zM277 780l-28 42q106 77 140 134h55
q34 -57 140 -134l-28 -42l-140 61z" />
    <glyph glyph-name="Udieresis" unicode="&#xdc;" horiz-adv-x="786" 
d="M688 641v-371q0 -135 -82.5 -208t-218.5 -73q-134 0 -211.5 80t-77.5 201v371q-37 19 -83 26v73h339v-73q-45 -7 -82 -26v-371q0 -171 151 -171q55 0 102 31q38 52 38 140v371q-37 19 -83 26v73h291v-73q-47 -7 -83 -26zM388 864q0 -31 -21.5 -53t-52.5 -22q-32 0 -54 22
t-22 53t22 52.5t54 21.5q31 0 52.5 -21.5t21.5 -52.5zM598 864q0 -31 -22 -53t-53 -22t-52.5 22t-21.5 53t21.5 52.5t52.5 21.5t53 -21.5t22 -52.5z" />
    <glyph glyph-name="Yacute" unicode="&#xdd;" horiz-adv-x="726" 
d="M276 93v192l-194 356q-37 19 -83 26v73h358v-73q-47 -7 -84 -26l122 -241l123 241q-37 19 -83 26v73h292v-73q-46 -7 -83 -26l-195 -354v-194q34 -18 83 -25v-68h-340v68q48 7 84 25zM323 779l-22 51q43 19 103 58t92 69h42q35 -20 35 -65q0 -42 -37 -63
q-24 -14 -89.5 -28.5t-123.5 -21.5z" />
    <glyph glyph-name="Thorn" unicode="&#xde;" horiz-adv-x="648" 
d="M279 641v-49h43q152 0 229 -55.5t77 -162.5q0 -98 -69.5 -162.5t-183.5 -64.5q-49 0 -96 9v-63q34 -18 83 -25v-68h-340v68q49 7 83 25v548q-35 18 -82 25v74h340v-74q-50 -7 -84 -25zM315 493h-36v-254q27 -5 48 -5q53 0 100 24q34 53 34 110q0 65 -35.5 95t-110.5 30z
" />
    <glyph glyph-name="germandbls" unicode="&#xdf;" horiz-adv-x="685" 
d="M103 82v346h-93v84q55 5 93 15q5 110 75.5 183.5t187.5 73.5q89 0 141 -48.5t52 -105.5q0 -30 -8.5 -55.5t-29 -49t-33 -35t-39.5 -34.5q9 -26 47 -56t77.5 -55t71.5 -70.5t32 -101.5q0 -85 -63.5 -134t-158.5 -49q-80 0 -143 47l-9 122l96 4l34 -93q27 -6 57 -6
q40 29 40 75q0 31 -21 57.5t-51 46l-60.5 39t-51.5 47t-21 59.5q0 36 24.5 73.5l49.5 77.5t25 82q0 37 -25.5 62t-75.5 25h-5q-59 -54 -59 -196v-512h-232v59q48 8 76 23z" />
    <glyph glyph-name="agrave" unicode="&#xe0;" horiz-adv-x="528" 
d="M430 -8q-84 0 -116 65q-35 -35 -67.5 -51t-80.5 -16q-66 0 -105 39t-39 98q0 23 4.5 42t21.5 41.5t46 39.5t82 31.5t126 21.5v19q0 72 -18 99t-61 27q-16 0 -24 -1l-28 -96h-110v145q99 36 190 36q106 0 156 -56.5t50 -155.5v-197q0 -47 42 -47q12 0 20 4l7 -61
q-32 -27 -96 -27zM233 88q41 0 69 35v101q-62 -7 -129 -27q-6 -18 -6 -36q0 -73 66 -73zM357 617l-33 -46q-162 70 -205 100q-7 15 -7 34q0 34 20.5 59t59.5 25q7 0 11 -1q75 -101 154 -171z" />
    <glyph glyph-name="aacute" unicode="&#xe1;" horiz-adv-x="528" 
d="M430 -8q-84 0 -116 65q-35 -35 -67.5 -51t-80.5 -16q-66 0 -105 39t-39 98q0 23 4.5 42t21.5 41.5t46 39.5t82 31.5t126 21.5v19q0 72 -18 99t-61 27q-16 0 -24 -1l-28 -96h-110v145q99 36 190 36q106 0 156 -56.5t50 -155.5v-197q0 -47 42 -47q12 0 20 4l7 -61
q-32 -27 -96 -27zM233 88q41 0 69 35v101q-62 -7 -129 -27q-6 -18 -6 -36q0 -73 66 -73zM173 573l-36 46q32 23 83.5 76t79.5 90h44q20 -8 33 -28t13 -42q0 -32 -27 -56q-21 -19 -79 -44.5t-111 -41.5z" />
    <glyph glyph-name="acircumflex" unicode="&#xe2;" horiz-adv-x="528" 
d="M430 -8q-84 0 -116 65q-35 -35 -67.5 -51t-80.5 -16q-66 0 -105 39t-39 98q0 23 4.5 42t21.5 41.5t46 39.5t82 31.5t126 21.5v19q0 72 -18 99t-61 27q-16 0 -24 -1l-28 -96h-110v145q99 36 190 36q106 0 156 -56.5t50 -155.5v-197q0 -47 42 -47q12 0 20 4l7 -61
q-32 -27 -96 -27zM233 88q41 0 69 35v101q-62 -7 -129 -27q-6 -18 -6 -36q0 -73 66 -73zM122 580l-37 45q107 97 140 160h56q32 -65 140 -160l-38 -45l-131 87z" />
    <glyph glyph-name="atilde" unicode="&#xe3;" horiz-adv-x="528" 
d="M430 -8q-84 0 -116 65q-35 -35 -67.5 -51t-80.5 -16q-66 0 -105 39t-39 98q0 23 4.5 42t21.5 41.5t46 39.5t82 31.5t126 21.5v19q0 72 -18 99t-61 27q-16 0 -24 -1l-28 -96h-110v145q99 36 190 36q106 0 156 -56.5t50 -155.5v-197q0 -47 42 -47q12 0 20 4l7 -61
q-32 -27 -96 -27zM233 88q41 0 69 35v101q-62 -7 -129 -27q-6 -18 -6 -36q0 -73 66 -73zM310 608q-26 0 -48.5 14t-44.5 35t-36 29q-25 -27 -25 -71h-58q1 76 28 116t71 40q26 0 48.5 -14t44.5 -35t37 -29q24 25 24 71h57q0 -76 -27 -116t-71 -40z" />
    <glyph glyph-name="adieresis" unicode="&#xe4;" horiz-adv-x="528" 
d="M430 -8q-84 0 -116 65q-35 -35 -67.5 -51t-80.5 -16q-66 0 -105 39t-39 98q0 23 4.5 42t21.5 41.5t46 39.5t82 31.5t126 21.5v19q0 72 -18 99t-61 27q-16 0 -24 -1l-28 -96h-110v145q99 36 190 36q106 0 156 -56.5t50 -155.5v-197q0 -47 42 -47q12 0 20 4l7 -61
q-32 -27 -96 -27zM233 88q41 0 69 35v101q-62 -7 -129 -27q-6 -18 -6 -36q0 -73 66 -73zM228 693q0 -34 -23 -57.5t-56 -23.5t-56.5 23.5t-23.5 57.5q0 33 23.5 56.5t56.5 23.5t56 -23.5t23 -56.5zM429 693q0 -34 -23 -57.5t-55 -23.5q-34 0 -57 23.5t-23 57.5q0 33 23 56.5
t57 23.5q32 0 55 -23.5t23 -56.5z" />
    <glyph glyph-name="aring" unicode="&#xe5;" horiz-adv-x="528" 
d="M430 -8q-84 0 -116 65q-35 -35 -67.5 -51t-80.5 -16q-66 0 -105 39t-39 98q0 23 4.5 42t21.5 41.5t46 39.5t82 31.5t126 21.5v19q0 72 -18 99t-61 27q-16 0 -24 -1l-28 -96h-110v145q99 36 190 36q106 0 156 -56.5t50 -155.5v-197q0 -47 42 -47q12 0 20 4l7 -61
q-32 -27 -96 -27zM233 88q41 0 69 35v101q-62 -7 -129 -27q-6 -18 -6 -36q0 -73 66 -73zM128 689q0 50 35.5 85.5t85.5 35.5t85.5 -35.5t35.5 -85.5t-35.5 -85t-85.5 -35t-85.5 35t-35.5 85zM193 689q0 -24 16.5 -41.5t40.5 -17.5t40.5 17.5t16.5 41.5t-16.5 41t-40.5 17
t-40.5 -17t-16.5 -41z" />
    <glyph glyph-name="ae" unicode="&#xe6;" horiz-adv-x="765" 
d="M22 127q0 23 4.5 41.5t21.5 40.5t46 38t82 30.5t126 21.5v23q0 75 -20 100.5t-81 25.5l-27 -91h-112v139q118 36 189 36q106 0 148 -70q59 69 150 69q85 0 134 -60.5t53 -149.5q-6 -28 -27 -62l-248 -25q12 -70 47 -104t76 -34q62 0 109 61l48 -47q-67 -121 -196 -121
q-117 0 -179 93q-72 -92 -189 -92q-72 0 -113.5 38.5t-41.5 98.5zM505 450q-46 -51 -48 -146q155 17 155 32q0 116 -86 116q-5 0 -21 -2zM233 88q39 0 69 33v105q-58 -6 -129 -28q-6 -18 -6 -37q0 -73 66 -73z" />
    <glyph glyph-name="ccedilla" unicode="&#xe7;" horiz-adv-x="485" 
d="M23 251q0 123 71 202t191 79q81 0 166 -38v-163h-100l-20 82q-43 23 -94 23q-11 0 -17 -1q-36 -56 -36 -146q0 -101 36 -147.5t92 -46.5q65 0 114 61l48 -46q-28 -51 -80 -84.5t-116 -36.5l-4 -18q118 -6 118 -70q0 -42 -42 -68t-123 -26q-27 0 -57 3l10 44h11
q101 0 101 26q0 6 -9.5 11t-31 9t-51.5 4l20 89q-93 14 -145 83.5t-52 174.5z" />
    <glyph glyph-name="egrave" unicode="&#xe8;" horiz-adv-x="514" 
d="M442 156l48 -46q-29 -53 -85 -87t-130 -34q-120 0 -186 75.5t-66 195.5q0 109 70.5 190t186.5 81q91 0 148 -65.5t58 -167.5q-16 -30 -40 -52h-261q10 -78 48.5 -114.5t83.5 -36.5q71 0 125 61zM230 448q-42 -46 -47 -129q169 2 169 7q0 58 -27.5 90.5t-76.5 32.5
q-12 0 -18 -1zM379 617l-33 -46q-162 70 -205 100q-7 15 -7 34q0 34 20.5 59t59.5 25q7 0 11 -1q75 -101 154 -171z" />
    <glyph glyph-name="eacute" unicode="&#xe9;" horiz-adv-x="514" 
d="M442 156l48 -46q-29 -53 -85 -87t-130 -34q-120 0 -186 75.5t-66 195.5q0 109 70.5 190t186.5 81q91 0 148 -65.5t58 -167.5q-16 -30 -40 -52h-261q10 -78 48.5 -114.5t83.5 -36.5q71 0 125 61zM230 448q-42 -46 -47 -129q169 2 169 7q0 58 -27.5 90.5t-76.5 32.5
q-12 0 -18 -1zM196 573l-36 46q32 23 83.5 76t79.5 90h44q20 -8 33 -28t13 -42q0 -32 -27 -56q-21 -19 -79 -44.5t-111 -41.5z" />
    <glyph glyph-name="ecircumflex" unicode="&#xea;" horiz-adv-x="514" 
d="M442 156l48 -46q-29 -53 -85 -87t-130 -34q-120 0 -186 75.5t-66 195.5q0 109 70.5 190t186.5 81q91 0 148 -65.5t58 -167.5q-16 -30 -40 -52h-261q10 -78 48.5 -114.5t83.5 -36.5q71 0 125 61zM230 448q-42 -46 -47 -129q169 2 169 7q0 58 -27.5 90.5t-76.5 32.5
q-12 0 -18 -1zM142 580l-37 45q107 97 140 160h56q32 -65 140 -160l-38 -45l-131 87z" />
    <glyph glyph-name="edieresis" unicode="&#xeb;" horiz-adv-x="514" 
d="M442 156l48 -46q-29 -53 -85 -87t-130 -34q-120 0 -186 75.5t-66 195.5q0 109 70.5 190t186.5 81q91 0 148 -65.5t58 -167.5q-16 -30 -40 -52h-261q10 -78 48.5 -114.5t83.5 -36.5q71 0 125 61zM230 448q-42 -46 -47 -129q169 2 169 7q0 58 -27.5 90.5t-76.5 32.5
q-12 0 -18 -1zM252 693q0 -34 -23 -57.5t-56 -23.5t-56.5 23.5t-23.5 57.5q0 33 23.5 56.5t56.5 23.5t56 -23.5t23 -56.5zM453 693q0 -34 -23 -57.5t-55 -23.5q-34 0 -57 23.5t-23 57.5q0 33 23 56.5t57 23.5q32 0 55 -23.5t23 -56.5z" />
    <glyph glyph-name="igrave" unicode="&#xec;" horiz-adv-x="352" 
d="M114 82v239q0 74 -4 102l-86 12v79l241 15q4 -110 4 -208v-239q32 -16 77 -23v-59h-309v59q46 7 77 23zM273 617l-33 -46q-162 70 -205 100q-7 15 -7 34q0 34 20.5 59t59.5 25q7 0 11 -1q75 -101 154 -171z" />
    <glyph glyph-name="iacute" unicode="&#xed;" horiz-adv-x="352" 
d="M114 82v239q0 74 -4 102l-86 12v79l241 15q4 -110 4 -208v-239q32 -16 77 -23v-59h-309v59q46 7 77 23zM87 573l-36 46q32 23 83.5 76t79.5 90h44q20 -8 33 -28t13 -42q0 -32 -27 -56q-21 -19 -79 -44.5t-111 -41.5z" />
    <glyph glyph-name="icircumflex" unicode="&#xee;" horiz-adv-x="352" 
d="M114 82v239q0 74 -4 102l-86 12v79l241 15q4 -110 4 -208v-239q32 -16 77 -23v-59h-309v59q46 7 77 23zM49 580l-37 45q107 97 140 160h56q32 -65 140 -160l-38 -45l-131 87z" />
    <glyph glyph-name="idieresis" unicode="&#xef;" horiz-adv-x="352" 
d="M150 693q0 -34 -23 -57.5t-56 -23.5t-56.5 23.5t-23.5 57.5q0 33 23.5 56.5t56.5 23.5t56 -23.5t23 -56.5zM351 693q0 -34 -23 -57.5t-55 -23.5q-34 0 -57 23.5t-23 57.5q0 33 23 56.5t57 23.5q32 0 55 -23.5t23 -56.5zM114 82v239q0 74 -4 102l-86 12v79l241 15
q4 -110 4 -208v-239q32 -16 77 -23v-59h-309v59q46 7 77 23z" />
    <glyph glyph-name="eth" unicode="&#xf0;" horiz-adv-x="556" 
d="M174 553l-38 61l84 53q-37 28 -77 47l42 67q67 -14 129 -55l98 62l38 -60l-76 -48q73 -69 116 -165t43 -198q0 -165 -71.5 -246t-195.5 -81q-111 0 -177 77t-66 199q0 112 63.5 189t160.5 77q59 0 99 -26q-25 63 -71 111zM263 439q-16 0 -28 -4q-53 -42 -53 -155
q0 -99 29 -152.5t82 -53.5q16 0 28 4q53 42 53 157q0 100 -29 152t-82 52z" />
    <glyph glyph-name="ntilde" unicode="&#xf1;" horiz-adv-x="651" 
d="M106 82v239q0 81 -3 102l-86 12v79l232 15q3 -34 5 -80q40 42 76.5 62.5t86.5 20.5q72 0 115 -52t43 -135v-263q31 -16 76 -23v-59h-289v61q35 6 57 21v243q0 91 -75 91q-38 0 -82 -24v-310q22 -15 56 -21v-61h-288v59q46 7 76 23zM392 609q-26 0 -48.5 14t-44.5 35
t-36 29q-25 -27 -25 -71h-58q1 76 28 116t71 40q26 0 48.5 -14t44.5 -35t37 -29q24 26 24 71h57q0 -76 -27 -116t-71 -40z" />
    <glyph glyph-name="ograve" unicode="&#xf2;" horiz-adv-x="558" 
d="M23 266q0 124 72.5 195t190.5 71q115 0 182 -77t67 -199q0 -124 -72.5 -195t-189.5 -71q-115 0 -182.5 77t-67.5 199zM255 442q-18 0 -33 -6q-39 -43 -39 -138q0 -109 31 -169.5t89 -60.5q18 0 33 6q38 41 38 137q0 109 -31 170t-88 61zM386 617l-33 -46
q-162 70 -205 100q-7 15 -7 34q0 34 20.5 59t59.5 25q7 0 11 -1q75 -101 154 -171z" />
    <glyph glyph-name="oacute" unicode="&#xf3;" horiz-adv-x="558" 
d="M23 266q0 124 72.5 195t190.5 71q115 0 182 -77t67 -199q0 -124 -72.5 -195t-189.5 -71q-115 0 -182.5 77t-67.5 199zM255 442q-18 0 -33 -6q-39 -43 -39 -138q0 -109 31 -169.5t89 -60.5q18 0 33 6q38 41 38 137q0 109 -31 170t-88 61zM202 573l-36 46q32 23 83.5 76
t79.5 90h44q20 -8 33 -28t13 -42q0 -32 -27 -56q-21 -19 -79 -44.5t-111 -41.5z" />
    <glyph glyph-name="ocircumflex" unicode="&#xf4;" horiz-adv-x="558" 
d="M23 266q0 124 72.5 195t190.5 71q115 0 182 -77t67 -199q0 -124 -72.5 -195t-189.5 -71q-115 0 -182.5 77t-67.5 199zM255 442q-18 0 -33 -6q-39 -43 -39 -138q0 -109 31 -169.5t89 -60.5q18 0 33 6q38 41 38 137q0 109 -31 170t-88 61zM148 580l-37 45q107 97 140 160
h56q32 -65 140 -160l-38 -45l-131 87z" />
    <glyph glyph-name="otilde" unicode="&#xf5;" horiz-adv-x="558" 
d="M23 266q0 124 72.5 195t190.5 71q115 0 182 -77t67 -199q0 -124 -72.5 -195t-189.5 -71q-115 0 -182.5 77t-67.5 199zM255 442q-18 0 -33 -6q-39 -43 -39 -138q0 -109 31 -169.5t89 -60.5q18 0 33 6q38 41 38 137q0 109 -31 170t-88 61zM336 608q-26 0 -48.5 14t-44.5 35
t-36 29q-25 -27 -25 -71h-58q1 76 28 116t71 40q26 0 48.5 -14t44.5 -35t37 -29q24 25 24 71h57q0 -76 -27 -116t-71 -40z" />
    <glyph glyph-name="odieresis" unicode="&#xf6;" horiz-adv-x="558" 
d="M23 266q0 124 72.5 195t190.5 71q115 0 182 -77t67 -199q0 -124 -72.5 -195t-189.5 -71q-115 0 -182.5 77t-67.5 199zM255 442q-18 0 -33 -6q-39 -43 -39 -138q0 -109 31 -169.5t89 -60.5q18 0 33 6q38 41 38 137q0 109 -31 170t-88 61zM258 693q0 -34 -23 -57.5
t-56 -23.5t-56.5 23.5t-23.5 57.5q0 33 23.5 56.5t56.5 23.5t56 -23.5t23 -56.5zM459 693q0 -34 -23 -57.5t-55 -23.5q-34 0 -57 23.5t-23 57.5q0 33 23 56.5t57 23.5q32 0 55 -23.5t23 -56.5z" />
    <glyph glyph-name="divide" unicode="&#xf7;" horiz-adv-x="415" 
d="M125 519q0 34 24.5 58.5t57.5 24.5q34 0 58 -24.5t24 -58.5t-24 -58t-58 -24q-33 0 -57.5 24t-24.5 58zM125 155q0 34 24.5 58.5t57.5 24.5q34 0 58 -24.5t24 -58.5t-24 -58t-58 -24q-33 0 -57.5 24t-24.5 58zM25 282v110h364v-110h-364z" />
    <glyph glyph-name="oslash" unicode="&#xf8;" horiz-adv-x="558" 
d="M23 266q0 124 72.5 195t190.5 71q85 0 148 -46l30 37h71l-62 -74q62 -76 62 -193q0 -124 -72.5 -195t-189.5 -71q-83 0 -145 43l-28 -33h-70l58 70q-65 76 -65 196zM374 211q0 63 -10 107l-153 -184q31 -66 92 -66q18 0 33 6q38 41 38 137zM255 442q-18 0 -33 -6
q-39 -43 -39 -138q0 -58 9 -103l152 183q-30 64 -89 64z" />
    <glyph glyph-name="ugrave" unicode="&#xf9;" horiz-adv-x="654" 
d="M249 321v-122q0 -53 20.5 -73t55.5 -20q41 0 81 26v189q0 74 -4 102l-86 12v79l241 15q5 -92 5 -208v-140q0 -70 3 -94l75 -8v-67l-215 -22q-3 16 -10 80q-72 -80 -162 -80q-74 0 -117 52t-43 134v145q0 81 -3 102l-86 12v79l241 15q4 -110 4 -208zM434 618l-33 -46
q-162 70 -205 100q-7 15 -7 34q0 34 20.5 59t59.5 25q7 0 11 -1q75 -101 154 -171z" />
    <glyph glyph-name="uacute" unicode="&#xfa;" horiz-adv-x="654" 
d="M249 321v-122q0 -53 20.5 -73t55.5 -20q41 0 81 26v189q0 74 -4 102l-86 12v79l241 15q5 -92 5 -208v-140q0 -70 3 -94l75 -8v-67l-215 -22q-3 16 -10 80q-72 -80 -162 -80q-74 0 -117 52t-43 134v145q0 81 -3 102l-86 12v79l241 15q4 -110 4 -208zM225 574l-36 46
q32 23 83.5 76t79.5 90h44q20 -8 33 -28t13 -42q0 -32 -27 -56q-21 -19 -79 -44.5t-111 -41.5z" />
    <glyph glyph-name="ucircumflex" unicode="&#xfb;" horiz-adv-x="654" 
d="M249 321v-122q0 -53 20.5 -73t55.5 -20q41 0 81 26v189q0 74 -4 102l-86 12v79l241 15q5 -92 5 -208v-140q0 -70 3 -94l75 -8v-67l-215 -22q-3 16 -10 80q-72 -80 -162 -80q-74 0 -117 52t-43 134v145q0 81 -3 102l-86 12v79l241 15q4 -110 4 -208zM197 581l-37 45
q107 97 140 160h56q32 -65 140 -160l-38 -45l-131 87z" />
    <glyph glyph-name="udieresis" unicode="&#xfc;" horiz-adv-x="654" 
d="M249 321v-122q0 -53 20.5 -73t55.5 -20q41 0 81 26v189q0 74 -4 102l-86 12v79l241 15q5 -92 5 -208v-140q0 -70 3 -94l75 -8v-67l-215 -22q-3 16 -10 80q-72 -80 -162 -80q-74 0 -117 52t-43 134v145q0 81 -3 102l-86 12v79l241 15q4 -110 4 -208zM306 693
q0 -34 -23 -57.5t-56 -23.5t-56.5 23.5t-23.5 57.5q0 33 23.5 56.5t56.5 23.5t56 -23.5t23 -56.5zM507 693q0 -34 -23 -57.5t-55 -23.5q-34 0 -57 23.5t-23 57.5q0 33 23 56.5t57 23.5q32 0 55 -23.5t23 -56.5z" />
    <glyph glyph-name="yacute" unicode="&#xfd;" horiz-adv-x="601" 
d="M538 426l-185 -459q-32 -79 -70.5 -121t-98.5 -42q-48 0 -88 31v89q60 0 137 7q16 27 30 58l-200 437q-30 16 -76 23v73h309v-72q-37 -6 -60 -22l100 -245l91 245q-23 16 -60 22v72h248v-73q-46 -7 -77 -23zM218 574l-36 46q32 23 83.5 76t79.5 90h44q20 -8 33 -28
t13 -42q0 -32 -27 -56q-21 -19 -79 -44.5t-111 -41.5z" />
    <glyph glyph-name="thorn" unicode="&#xfe;" horiz-adv-x="571" 
d="M53 -106v663q0 80 -3 101l-86 13v79l241 15q4 -110 4 -208v-89q68 64 143 64q89 0 142.5 -72.5t53.5 -184.5q0 -129 -67 -207t-174 -78q-55 0 -98 23v-119q30 -16 77 -23v-59h-309v59q46 7 76 23zM277 420q-32 0 -68 -17v-247q0 -40 23.5 -61.5t62.5 -21.5q19 0 35 4
q63 49 63 178q0 165 -116 165z" />
    <glyph glyph-name="ydieresis" unicode="&#xff;" horiz-adv-x="601" 
d="M538 426l-185 -459q-32 -79 -70.5 -121t-98.5 -42q-48 0 -88 31v89q60 0 137 7q16 27 30 58l-200 437q-30 16 -76 23v73h309v-72q-37 -6 -60 -22l100 -245l91 245q-23 16 -60 22v72h248v-73q-46 -7 -77 -23zM305 693q0 -34 -23 -57.5t-56 -23.5t-56.5 23.5t-23.5 57.5
q0 33 23.5 56.5t56.5 23.5t56 -23.5t23 -56.5zM506 693q0 -34 -23 -57.5t-55 -23.5q-34 0 -57 23.5t-23 57.5q0 33 23 56.5t57 23.5q32 0 55 -23.5t23 -56.5z" />
    <glyph glyph-name="Amacron" unicode="&#x100;" horiz-adv-x="824" 
d="M90 93l227 647h192l225 -647q36 -18 84 -25v-68h-353v68q49 7 83 25l-42 130h-251l-43 -130q35 -18 82 -25v-68h-288v68q48 7 84 25zM382 609l-96 -291h189zM234 807v81h356v-81h-356z" />
    <glyph glyph-name="amacron" unicode="&#x101;" horiz-adv-x="528" 
d="M430 -8q-84 0 -116 65q-35 -35 -67.5 -51t-80.5 -16q-66 0 -105 39t-39 98q0 23 4.5 42t21.5 41.5t46 39.5t82 31.5t126 21.5v19q0 72 -18 99t-61 27q-16 0 -24 -1l-28 -96h-110v145q99 36 190 36q106 0 156 -56.5t50 -155.5v-197q0 -47 42 -47q12 0 20 4l7 -61
q-32 -27 -96 -27zM233 88q41 0 69 35v101q-62 -7 -129 -27q-6 -18 -6 -36q0 -73 66 -73zM93 647v92h309v-92h-309z" />
    <glyph glyph-name="Abreve" unicode="&#x102;" horiz-adv-x="824" 
d="M90 93l227 647h192l225 -647q36 -18 84 -25v-68h-353v68q49 7 83 25l-42 130h-251l-43 -130q35 -18 82 -25v-68h-288v68q48 7 84 25zM382 609l-96 -291h189zM407 784q-86 0 -133 40t-47 116h65q3 -37 29 -52.5t86 -15.5t86 15.5t30 52.5h65q0 -76 -47.5 -116t-133.5 -40z
" />
    <glyph glyph-name="abreve" unicode="&#x103;" horiz-adv-x="528" 
d="M430 -8q-84 0 -116 65q-35 -35 -67.5 -51t-80.5 -16q-66 0 -105 39t-39 98q0 23 4.5 42t21.5 41.5t46 39.5t82 31.5t126 21.5v19q0 72 -18 99t-61 27q-16 0 -24 -1l-28 -96h-110v145q99 36 190 36q106 0 156 -56.5t50 -155.5v-197q0 -47 42 -47q12 0 20 4l7 -61
q-32 -27 -96 -27zM233 88q41 0 69 35v101q-62 -7 -129 -27q-6 -18 -6 -36q0 -73 66 -73zM250 602q-72 0 -113.5 46t-41.5 136h57q2 -50 25 -68.5t72 -18.5q50 0 73.5 18.5t26.5 68.5h56q0 -90 -41.5 -136t-113.5 -46z" />
    <glyph glyph-name="Aogonek" unicode="&#x104;" horiz-adv-x="824" 
d="M90 93l227 647h192l225 -647q36 -18 84 -25v-68h-77q-34 0 -57 -22t-23 -44q0 -44 51 -44q32 0 60 15l20 -51q-51 -47 -128 -47q-53 0 -84.5 25.5t-31.5 59.5t22 59t65 49h-170v68q49 7 83 25l-42 130h-251l-43 -130q35 -18 82 -25v-68h-288v68q48 7 84 25zM382 609
l-96 -291h189z" />
    <glyph glyph-name="aogonek" unicode="&#x105;" horiz-adv-x="528" 
d="M526 19q-29 -24 -88 -27q-36 -26 -36 -56q0 -46 49 -46q19 0 38 5.5t24 9.5l20 -51q-51 -47 -128 -47q-53 0 -84.5 25.5t-31.5 59.5q0 61 88 108q-44 17 -63 57q-35 -35 -67.5 -51t-80.5 -16q-66 0 -105 39t-39 98q0 23 4.5 42t21.5 41.5t46 39.5t82 31.5t126 21.5v19
q0 72 -18 99t-61 27q-16 0 -24 -1l-28 -96h-110v145q99 36 190 36q106 0 156 -56.5t50 -155.5v-197q0 -47 42 -47q12 0 20 4zM233 88q41 0 69 35v101q-62 -7 -129 -27q-6 -18 -6 -36q0 -73 66 -73z" />
    <glyph glyph-name="Cacute" unicode="&#x106;" horiz-adv-x="638" 
d="M566 200l56 -38q-37 -75 -108 -123.5t-159 -48.5q-149 0 -239 100.5t-90 262.5q0 170 96 283.5t251 113.5q106 0 215 -42v-204h-108l-31 122q-54 22 -111 22q-30 0 -51 -5q-74 -82 -74 -248q0 -146 53 -218.5t140 -72.5q94 0 160 96zM281 779l-22 51q43 19 103 58t92 69
h42q35 -20 35 -65q0 -42 -37 -63q-24 -14 -89.5 -28.5t-123.5 -21.5z" />
    <glyph glyph-name="cacute" unicode="&#x107;" horiz-adv-x="485" 
d="M23 251q0 123 71 202t191 79q81 0 166 -38v-163h-100l-20 82q-43 23 -94 23q-11 0 -17 -1q-36 -56 -36 -146q0 -101 36 -147.5t92 -46.5q65 0 114 61l48 -46q-29 -53 -83.5 -87t-122.5 -34q-114 0 -179.5 72t-65.5 190zM190 574l-36 46q32 23 83.5 76t79.5 90h44
q20 -8 33 -28t13 -42q0 -32 -27 -56q-21 -19 -79 -44.5t-111 -41.5z" />
    <glyph glyph-name="Ccircumflex" unicode="&#x108;" horiz-adv-x="638" 
d="M566 200l56 -38q-37 -75 -108 -123.5t-159 -48.5q-149 0 -239 100.5t-90 262.5q0 170 96 283.5t251 113.5q106 0 215 -42v-204h-108l-31 122q-54 22 -111 22q-30 0 -51 -5q-74 -82 -74 -248q0 -146 53 -218.5t140 -72.5q94 0 160 96zM233 780l-28 42q106 77 140 134h55
q34 -57 140 -134l-28 -42l-140 61z" />
    <glyph glyph-name="ccircumflex" unicode="&#x109;" horiz-adv-x="485" 
d="M23 251q0 123 71 202t191 79q81 0 166 -38v-163h-100l-20 82q-43 23 -94 23q-11 0 -17 -1q-36 -56 -36 -146q0 -101 36 -147.5t92 -46.5q65 0 114 61l48 -46q-29 -53 -83.5 -87t-122.5 -34q-114 0 -179.5 72t-65.5 190zM146 581l-37 45q107 97 140 160h56
q32 -65 140 -160l-38 -45l-131 87z" />
    <glyph glyph-name="Cdotaccent" unicode="&#x10a;" horiz-adv-x="638" 
d="M566 200l56 -38q-37 -75 -108 -123.5t-159 -48.5q-149 0 -239 100.5t-90 262.5q0 170 96 283.5t251 113.5q106 0 215 -42v-204h-108l-31 122q-54 22 -111 22q-30 0 -51 -5q-74 -82 -74 -248q0 -146 53 -218.5t140 -72.5q94 0 160 96zM457 870q0 -34 -24 -57.5t-59 -23.5
q-36 0 -60.5 23.5t-24.5 57.5t24.5 57.5t60.5 23.5q35 0 59 -23.5t24 -57.5z" />
    <glyph glyph-name="cdotaccent" unicode="&#x10b;" horiz-adv-x="485" 
d="M23 251q0 123 71 202t191 79q81 0 166 -38v-163h-100l-20 82q-43 23 -94 23q-11 0 -17 -1q-36 -56 -36 -146q0 -101 36 -147.5t92 -46.5q65 0 114 61l48 -46q-29 -53 -83.5 -87t-122.5 -34q-114 0 -179.5 72t-65.5 190zM377 707q0 -38 -25.5 -64.5t-62.5 -26.5
t-63.5 26.5t-26.5 64.5q0 37 26.5 63.5t63.5 26.5t62.5 -26t25.5 -64z" />
    <glyph glyph-name="Ccaron" unicode="&#x10c;" horiz-adv-x="638" 
d="M566 200l56 -38q-37 -75 -108 -123.5t-159 -48.5q-149 0 -239 100.5t-90 262.5q0 170 96 283.5t251 113.5q106 0 215 -42v-204h-108l-31 122q-54 22 -111 22q-30 0 -51 -5q-74 -82 -74 -248q0 -146 53 -218.5t140 -72.5q94 0 160 96zM210 920l28 41l139 -61l140 61
l28 -41q-108 -80 -140 -135h-55q-32 55 -140 135z" />
    <glyph glyph-name="ccaron" unicode="&#x10d;" horiz-adv-x="485" 
d="M23 251q0 123 71 202t191 79q81 0 166 -38v-163h-100l-20 82q-43 23 -94 23q-11 0 -17 -1q-36 -56 -36 -146q0 -101 36 -147.5t92 -46.5q65 0 114 61l48 -46q-29 -53 -83.5 -87t-122.5 -34q-114 0 -179.5 72t-65.5 190zM118 743l37 46l130 -87l131 87l38 -46
q-106 -91 -140 -159h-56q-35 66 -140 159z" />
    <glyph glyph-name="Dcaron" unicode="&#x10e;" horiz-adv-x="757" 
d="M22 0v68q49 7 83 25v548q-35 18 -83 25v74h351q156 0 256.5 -99.5t100.5 -255.5q0 -189 -104 -287t-274 -98h-330zM347 642h-68v-547h66q78 0 128 30q62 97 62 234q0 283 -188 283zM167 920l28 41l139 -61l140 61l28 -41q-108 -80 -140 -135h-55q-32 55 -140 135z" />
    <glyph glyph-name="dcaron" unicode="&#x10f;" horiz-adv-x="720" 
d="M518 557v-376q0 -62 4 -94l74 -8v-67l-215 -20q-4 25 -10 76q-66 -78 -152 -78q-89 0 -142.5 73t-53.5 188q0 126 63.5 203.5t167.5 77.5q59 0 108 -26v51q0 82 -4 101l-85 13v79l241 15q4 -110 4 -208zM362 122v221q0 42 -29.5 68t-73.5 26q-8 0 -24 -2
q-57 -48 -57 -171q0 -170 113 -170q33 0 71 28zM647 788q24 -38 24 -96q0 -82 -61 -147l-53 23q15 36 15 86q0 58 -26 97q37 37 101 37z" />
    <glyph glyph-name="Dcroat" unicode="&#x110;" horiz-adv-x="762" 
d="M25 332v93h85v216q-35 18 -83 25v74h351q156 0 256.5 -99.5t100.5 -255.5q0 -189 -104 -287t-274 -98h-330v68q49 7 83 25v239h-85zM352 642h-68v-217h112v-93h-112v-237h66q78 0 128 30q62 97 62 234q0 283 -188 283z" />
    <glyph glyph-name="dcroat" unicode="&#x111;" horiz-adv-x="599" 
d="M239 558v63h122q-2 29 -3 37l-85 13v79l241 15q3 -114 3 -144h67v-63h-66v-377q0 -62 4 -94l74 -8v-67l-215 -20q-4 25 -10 76q-66 -78 -152 -78q-89 0 -142.5 73t-53.5 188q0 126 63.5 203.5t167.5 77.5q59 0 108 -26v52h-123zM362 122v221q0 42 -29.5 68t-73.5 26
q-8 0 -24 -2q-57 -48 -57 -171q0 -170 113 -170q33 0 71 28z" />
    <glyph glyph-name="Emacron" unicode="&#x112;" horiz-adv-x="648" 
d="M105 93v548q-35 18 -83 25v74h581l6 -237h-109l-45 139h-176v-208h192v-105h-192v-234h181l59 137h107l-13 -232h-591v68q49 7 83 25zM155 807v81h356v-81h-356z" />
    <glyph glyph-name="emacron" unicode="&#x113;" horiz-adv-x="514" 
d="M442 156l48 -46q-29 -53 -85 -87t-130 -34q-120 0 -186 75.5t-66 195.5q0 109 70.5 190t186.5 81q91 0 148 -65.5t58 -167.5q-16 -30 -40 -52h-261q10 -78 48.5 -114.5t83.5 -36.5q71 0 125 61zM230 448q-42 -46 -47 -129q169 2 169 7q0 58 -27.5 90.5t-76.5 32.5
q-12 0 -18 -1zM116 647v92h309v-92h-309z" />
    <glyph glyph-name="Ebreve" unicode="&#x114;" horiz-adv-x="648" 
d="M105 93v548q-35 18 -83 25v74h581l6 -237h-109l-45 139h-176v-208h192v-105h-192v-234h181l59 137h107l-13 -232h-591v68q49 7 83 25zM329 784q-86 0 -133 40t-47 116h65q3 -37 29 -52.5t86 -15.5t86 15.5t30 52.5h65q0 -76 -47.5 -116t-133.5 -40z" />
    <glyph glyph-name="ebreve" unicode="&#x115;" horiz-adv-x="514" 
d="M442 156l48 -46q-29 -53 -85 -87t-130 -34q-120 0 -186 75.5t-66 195.5q0 109 70.5 190t186.5 81q91 0 148 -65.5t58 -167.5q-16 -30 -40 -52h-261q10 -78 48.5 -114.5t83.5 -36.5q71 0 125 61zM230 448q-42 -46 -47 -129q169 2 169 7q0 58 -27.5 90.5t-76.5 32.5
q-12 0 -18 -1zM273 602q-72 0 -113.5 46t-41.5 136h57q2 -50 25 -68.5t72 -18.5q50 0 73.5 18.5t26.5 68.5h56q0 -90 -41.5 -136t-113.5 -46z" />
    <glyph glyph-name="Edotaccent" unicode="&#x116;" horiz-adv-x="648" 
d="M105 93v548q-35 18 -83 25v74h581l6 -237h-109l-45 139h-176v-208h192v-105h-192v-234h181l59 137h107l-13 -232h-591v68q49 7 83 25zM433 870q0 -34 -24 -57.5t-59 -23.5q-36 0 -60.5 23.5t-24.5 57.5t24.5 57.5t60.5 23.5q35 0 59 -23.5t24 -57.5z" />
    <glyph glyph-name="edotaccent" unicode="&#x117;" horiz-adv-x="514" 
d="M442 156l48 -46q-29 -53 -85 -87t-130 -34q-120 0 -186 75.5t-66 195.5q0 109 70.5 190t186.5 81q91 0 148 -65.5t58 -167.5q-16 -30 -40 -52h-261q10 -78 48.5 -114.5t83.5 -36.5q71 0 125 61zM230 448q-42 -46 -47 -129q169 2 169 7q0 58 -27.5 90.5t-76.5 32.5
q-12 0 -18 -1zM361 707q0 -38 -25.5 -64.5t-62.5 -26.5t-63.5 26.5t-26.5 64.5q0 37 26.5 63.5t63.5 26.5t62.5 -26t25.5 -64z" />
    <glyph glyph-name="Eogonek" unicode="&#x118;" horiz-adv-x="648" 
d="M105 93v548q-35 18 -83 25v74h581l6 -237h-109l-45 139h-176v-208h192v-105h-192v-234h181l59 137h107l-13 -232h-53q-32 0 -54 -22t-22 -44q0 -44 51 -44q32 0 60 15l20 -51q-51 -47 -128 -47q-53 0 -84.5 25.5t-31.5 59.5t22 59t65 49h-436v68q49 7 83 25z" />
    <glyph glyph-name="eogonek" unicode="&#x119;" horiz-adv-x="514" 
d="M442 156l48 -46q-49 -87 -149 -113q-19 -10 -31.5 -28t-12.5 -33q0 -46 49 -46q18 0 37.5 5.5t24.5 9.5l19 -51q-51 -47 -128 -47q-53 0 -84 25.5t-31 59.5q0 55 69 98q-110 7 -170 81.5t-60 188.5q0 109 70.5 190t186.5 81q91 0 148 -65.5t58 -167.5q-16 -30 -40 -52
h-261q10 -78 48.5 -114.5t83.5 -36.5q71 0 125 61zM230 448q-42 -46 -47 -129q169 2 169 7q0 58 -27.5 90.5t-76.5 32.5q-12 0 -18 -1z" />
    <glyph glyph-name="Ecaron" unicode="&#x11a;" horiz-adv-x="648" 
d="M105 93v548q-35 18 -83 25v74h581l6 -237h-109l-45 139h-176v-208h192v-105h-192v-234h181l59 137h107l-13 -232h-591v68q49 7 83 25zM169 920l28 41l139 -61l140 61l28 -41q-108 -80 -140 -135h-55q-32 55 -140 135z" />
    <glyph glyph-name="ecaron" unicode="&#x11b;" horiz-adv-x="514" 
d="M442 156l48 -46q-29 -53 -85 -87t-130 -34q-120 0 -186 75.5t-66 195.5q0 109 70.5 190t186.5 81q91 0 148 -65.5t58 -167.5q-16 -30 -40 -52h-261q10 -78 48.5 -114.5t83.5 -36.5q71 0 125 61zM230 448q-42 -46 -47 -129q169 2 169 7q0 58 -27.5 90.5t-76.5 32.5
q-12 0 -18 -1zM105 742l37 46l130 -87l131 87l38 -46q-106 -91 -140 -159h-56q-35 66 -140 159z" />
    <glyph glyph-name="Gcircumflex" unicode="&#x11c;" horiz-adv-x="726" 
d="M388 290v69h327v-65l-65 -21v-273h-103l-42 71q-72 -83 -187 -83q-125 0 -209 105t-84 268q0 165 103.5 277t283.5 112q106 0 220 -44v-202h-103l-34 108q-80 37 -154 37q-22 0 -50 -5q-80 -84 -80 -244q0 -141 46.5 -218t124.5 -77q52 0 103 35v133zM257 780l-28 42
q106 77 140 134h55q34 -57 140 -134l-28 -42l-140 61z" />
    <glyph glyph-name="gcircumflex" unicode="&#x11d;" horiz-adv-x="545" 
d="M244 185q-38 0 -73 11q-10 -16 -10 -29q0 -26 29 -28l170 -8q173 -8 173 -138q0 -79 -76.5 -134.5t-204.5 -55.5q-104 0 -159.5 38t-55.5 90q0 56 43 89q-50 26 -50 88t89 113q-73 50 -73 140q0 80 61.5 125t163.5 45q61 0 110 -27q51 95 122 95q22 0 40 -6l-8 -119
q-12 4 -36 4q-36 0 -72 -11q42 -45 42 -112q0 -79 -61.5 -124.5t-163.5 -45.5zM348 -5l-202 10q-12 -17 -12 -36q0 -31 32.5 -52.5t101.5 -21.5q72 0 130 18q11 24 11 39q0 19 -12.5 30t-48.5 13zM280 270q5 0 17 2q27 29 27 74q0 100 -88 100q-5 0 -17 -2q-28 -28 -28 -75
q0 -99 89 -99zM132 581l-37 45q107 97 140 160h56q32 -65 140 -160l-38 -45l-131 87z" />
    <glyph glyph-name="Gbreve" unicode="&#x11e;" horiz-adv-x="726" 
d="M388 290v69h327v-65l-65 -21v-273h-103l-42 71q-72 -83 -187 -83q-125 0 -209 105t-84 268q0 165 103.5 277t283.5 112q106 0 220 -44v-202h-103l-34 108q-80 37 -154 37q-22 0 -50 -5q-80 -84 -80 -244q0 -141 46.5 -218t124.5 -77q52 0 103 35v133zM394 784
q-86 0 -133 40t-47 116h65q3 -37 29 -52.5t86 -15.5t86 15.5t30 52.5h65q0 -76 -47.5 -116t-133.5 -40z" />
    <glyph glyph-name="gbreve" unicode="&#x11f;" horiz-adv-x="545" 
d="M244 185q-38 0 -73 11q-10 -16 -10 -29q0 -26 29 -28l170 -8q173 -8 173 -138q0 -79 -76.5 -134.5t-204.5 -55.5q-104 0 -159.5 38t-55.5 90q0 56 43 89q-50 26 -50 88t89 113q-73 50 -73 140q0 80 61.5 125t163.5 45q61 0 110 -27q51 95 122 95q22 0 40 -6l-8 -119
q-12 4 -36 4q-36 0 -72 -11q42 -45 42 -112q0 -79 -61.5 -124.5t-163.5 -45.5zM348 -5l-202 10q-12 -17 -12 -36q0 -31 32.5 -52.5t101.5 -21.5q72 0 130 18q11 24 11 39q0 19 -12.5 30t-48.5 13zM280 270q5 0 17 2q27 29 27 74q0 100 -88 100q-5 0 -17 -2q-28 -28 -28 -75
q0 -99 89 -99zM279 603q-72 0 -113.5 46t-41.5 136h57q2 -50 25 -68.5t72 -18.5q50 0 73.5 18.5t26.5 68.5h56q0 -90 -41.5 -136t-113.5 -46z" />
    <glyph glyph-name="Gdotaccent" unicode="&#x120;" horiz-adv-x="726" 
d="M388 290v69h327v-65l-65 -21v-273h-103l-42 71q-72 -83 -187 -83q-125 0 -209 105t-84 268q0 165 103.5 277t283.5 112q106 0 220 -44v-202h-103l-34 108q-80 37 -154 37q-22 0 -50 -5q-80 -84 -80 -244q0 -141 46.5 -218t124.5 -77q52 0 103 35v133zM479 870
q0 -34 -24 -57.5t-59 -23.5q-36 0 -60.5 23.5t-24.5 57.5t24.5 57.5t60.5 23.5q35 0 59 -23.5t24 -57.5z" />
    <glyph glyph-name="gdotaccent" unicode="&#x121;" horiz-adv-x="545" 
d="M244 185q-38 0 -73 11q-10 -16 -10 -29q0 -26 29 -28l170 -8q173 -8 173 -138q0 -79 -76.5 -134.5t-204.5 -55.5q-104 0 -159.5 38t-55.5 90q0 56 43 89q-50 26 -50 88t89 113q-73 50 -73 140q0 80 61.5 125t163.5 45q61 0 110 -27q51 95 122 95q22 0 40 -6l-8 -119
q-12 4 -36 4q-36 0 -72 -11q42 -45 42 -112q0 -79 -61.5 -124.5t-163.5 -45.5zM348 -5l-202 10q-12 -17 -12 -36q0 -31 32.5 -52.5t101.5 -21.5q72 0 130 18q11 24 11 39q0 19 -12.5 30t-48.5 13zM280 270q5 0 17 2q27 29 27 74q0 100 -88 100q-5 0 -17 -2q-28 -28 -28 -75
q0 -99 89 -99zM368 707q0 -38 -25.5 -64.5t-62.5 -26.5t-63.5 26.5t-26.5 64.5q0 37 26 63.5t64 26.5q37 0 62.5 -26t25.5 -64z" />
    <glyph glyph-name="Gcommaaccent" unicode="&#x122;" horiz-adv-x="726" 
d="M388 290v69h327v-65l-65 -21v-273h-103l-42 71q-72 -83 -187 -83q-125 0 -209 105t-84 268q0 165 103.5 277t283.5 112q106 0 220 -44v-202h-103l-34 108q-80 37 -154 37q-22 0 -50 -5q-80 -84 -80 -244q0 -141 46.5 -218t124.5 -77q52 0 103 35v133zM425 -29
q26 -31 26 -74q0 -75 -82 -128l-51 28q25 33 25 73q0 38 -25 66q52 35 107 35z" />
    <glyph glyph-name="gcommaaccent" unicode="&#x123;" horiz-adv-x="545" 
d="M244 185q-38 0 -73 11q-10 -16 -10 -29q0 -26 29 -28l170 -8q173 -8 173 -138q0 -79 -76.5 -134.5t-204.5 -55.5q-104 0 -159.5 38t-55.5 90q0 56 43 89q-50 26 -50 88t89 113q-73 50 -73 140q0 80 61.5 125t163.5 45q61 0 110 -27q51 95 122 95q22 0 40 -6l-8 -119
q-12 4 -36 4q-36 0 -72 -11q42 -45 42 -112q0 -79 -61.5 -124.5t-163.5 -45.5zM348 -5l-202 10q-12 -17 -12 -36q0 -31 32.5 -52.5t101.5 -21.5q72 0 130 18q11 24 11 39q0 19 -12.5 30t-48.5 13zM280 270q5 0 17 2q27 29 27 74q0 100 -88 100q-5 0 -17 -2q-28 -28 -28 -75
q0 -99 89 -99zM240 580q-27 30 -27 73q0 75 83 129l50 -29q-25 -35 -25 -73q0 -37 25 -66q-50 -34 -106 -34z" />
    <glyph glyph-name="Hcircumflex" unicode="&#x124;" horiz-adv-x="792" 
d="M513 93v238h-234v-238q36 -19 77 -25v-68h-334v68q49 7 83 25v548q-34 18 -83 25v74h335v-74q-42 -6 -78 -25v-208h234v208q-38 19 -78 25v74h334v-74q-48 -7 -83 -25v-548q36 -18 83 -25v-68h-335v68q43 6 79 25zM255 780l-28 42q106 77 140 134h55q34 -57 140 -134
l-28 -42l-140 61z" />
    <glyph glyph-name="hcircumflex" unicode="&#x125;" horiz-adv-x="634" 
d="M91 82v475q0 73 -4 101l-86 13v79l241 15q5 -138 5 -208v-98q71 73 154 73q72 0 115 -52t43 -135v-263q30 -16 76 -23v-59h-289v61q35 6 57 21v243q0 91 -75 91q-38 0 -81 -24v-310q20 -14 55 -21v-61h-288v59q46 7 77 23zM9 780l-28 42q106 77 140 134h55
q34 -57 140 -134l-28 -42l-140 61z" />
    <glyph glyph-name="Hbar" unicode="&#x126;" horiz-adv-x="792" 
d="M23 509v72h82v60q-34 18 -83 25v74h335v-74q-42 -6 -78 -25v-60h234v60q-38 19 -78 25v74h334v-74q-48 -7 -83 -25v-60h83v-72h-83v-416q36 -18 83 -25v-68h-335v68q43 6 79 25v238h-234v-238q36 -19 77 -25v-68h-334v68q49 7 83 25v416h-82zM279 433h234v76h-234v-76z
" />
    <glyph glyph-name="hbar" unicode="&#x127;" horiz-adv-x="634" 
d="M9 558v63h80q0 25 -2 37l-86 13v79l241 15q4 -76 4 -144h109v-63h-108v-99q71 73 154 73q72 0 115 -52t43 -135v-263q30 -16 76 -23v-59h-289v61q35 6 57 21v243q0 91 -75 91q-38 0 -81 -24v-310q20 -14 55 -21v-61h-288v59q46 7 77 23v476h-82z" />
    <glyph glyph-name="Itilde" unicode="&#x128;" horiz-adv-x="397" 
d="M285 642v-554q34 -18 83 -25v-63h-340v63q48 7 83 24v555q-33 18 -83 25v73h340v-73q-49 -7 -83 -25zM260 780q-40 0 -89 37.5t-60 41.5q-27 -27 -27 -72h-65q0 75 34 114.5t85 39.5q31 0 57.5 -15.5t51 -36t42.5 -27.5q26 26 26 72h65q-1 -75 -35 -114.5t-85 -39.5z" />
    <glyph glyph-name="itilde" unicode="&#x129;" horiz-adv-x="352" 
d="M114 82v239q0 74 -4 102l-86 12v79l241 15q4 -110 4 -208v-239q32 -16 77 -23v-59h-309v59q46 7 77 23zM237 608q-26 0 -48.5 14t-44.5 35t-36 29q-25 -27 -25 -71h-58q1 76 28 116t71 40q26 0 48.5 -14t44.5 -35t37 -29q24 25 24 71h57q0 -76 -27 -116t-71 -40z" />
    <glyph glyph-name="Imacron" unicode="&#x12a;" horiz-adv-x="397" 
d="M285 642v-554q34 -18 83 -25v-63h-340v63q48 7 83 24v555q-33 18 -83 25v73h340v-73q-49 -7 -83 -25zM22 807v81h356v-81h-356z" />
    <glyph glyph-name="imacron" unicode="&#x12b;" horiz-adv-x="352" 
d="M114 82v239q0 74 -4 102l-86 12v79l241 15q4 -110 4 -208v-239q32 -16 77 -23v-59h-309v59q46 7 77 23zM18 648v92h309v-92h-309z" />
    <glyph glyph-name="Ibreve" unicode="&#x12c;" horiz-adv-x="397" 
d="M285 642v-554q34 -18 83 -25v-63h-340v63q48 7 83 24v555q-33 18 -83 25v73h340v-73q-49 -7 -83 -25zM199 784q-86 0 -133 40t-47 116h65q3 -37 29 -52.5t86 -15.5t86 15.5t30 52.5h65q0 -76 -47.5 -116t-133.5 -40z" />
    <glyph glyph-name="ibreve" unicode="&#x12d;" horiz-adv-x="352" 
d="M114 82v239q0 74 -4 102l-86 12v79l241 15q4 -110 4 -208v-239q32 -16 77 -23v-59h-309v59q46 7 77 23zM186 602q-72 0 -113.5 46t-41.5 136h57q2 -50 25 -68.5t72 -18.5q50 0 73.5 18.5t26.5 68.5h56q0 -90 -41.5 -136t-113.5 -46z" />
    <glyph glyph-name="Iogonek" unicode="&#x12e;" horiz-adv-x="397" 
d="M285 642v-554q34 -18 83 -25v-63h-84q-34 0 -57 -22t-23 -44q0 -44 51 -44q32 0 60 15l20 -51q-51 -47 -128 -47q-53 0 -84.5 25.5t-31.5 59.5t22 59t65 49h-150v63q48 7 83 24v555q-33 18 -83 25v73h340v-73q-49 -7 -83 -25z" />
    <glyph glyph-name="iogonek" unicode="&#x12f;" horiz-adv-x="352" 
d="M269 321v-239q32 -16 77 -23v-59h-80q-32 0 -54 -22t-22 -44q0 -44 51 -44q32 0 60 15l20 -51q-51 -47 -128 -47q-53 0 -84.5 25.5t-31.5 59.5t22 59t65 49h-127v59q46 7 77 23v239q0 74 -4 102l-86 12v79l241 15q4 -110 4 -208zM270 707q0 -38 -25.5 -64.5t-62.5 -26.5
t-63.5 26.5t-26.5 64.5q0 37 26 63.5t64 26.5q37 0 62.5 -26t25.5 -64z" />
    <glyph glyph-name="Idotaccent" unicode="&#x130;" horiz-adv-x="397" 
d="M285 642v-554q34 -18 83 -25v-63h-340v63q48 7 83 24v555q-33 18 -83 25v73h340v-73q-49 -7 -83 -25zM285 870q0 -34 -24 -57.5t-59 -23.5q-36 0 -60.5 23.5t-24.5 57.5t24.5 57.5t60.5 23.5q35 0 59 -23.5t24 -57.5z" />
    <glyph glyph-name="dotlessi" unicode="&#x131;" horiz-adv-x="352" 
d="M114 82v239q0 74 -4 102l-86 12v79l241 15q4 -110 4 -208v-239q32 -16 77 -23v-59h-309v59q46 7 77 23z" />
    <glyph glyph-name="IJ" unicode="&#x132;" horiz-adv-x="790" 
d="M285 642v-554q34 -18 83 -25v-63h-340v63q48 7 83 24v555q-33 18 -83 25v73h340v-73q-49 -7 -83 -25zM685 641v-550q0 -114 -81.5 -192.5t-219.5 -91.5l-18 75q77 25 111 74.5t34 134.5v550q-34 18 -83 25v74h340v-74q-51 -8 -83 -25z" />
    <glyph glyph-name="ij" unicode="&#x133;" horiz-adv-x="678" 
d="M114 82v239q0 74 -4 102l-86 12v79l241 15q4 -110 4 -208v-239q32 -16 77 -23v-59h-309v59q46 7 77 23zM270 707q0 -38 -25.5 -64.5t-62.5 -26.5t-63.5 26.5t-26.5 64.5q0 37 26 63.5t64 26.5q37 0 62.5 -26t25.5 -64zM616 321v-301q0 -83 -67.5 -146.5t-192.5 -69.5
l-9 74q60 14 87 47.5t27 94.5v301q0 74 -4 102l-86 12v79l241 15q4 -110 4 -208zM617 707q0 -38 -25.5 -64.5t-62.5 -26.5t-63.5 26.5t-26.5 64.5q0 37 26.5 63.5t63.5 26.5t62.5 -26t25.5 -64z" />
    <glyph glyph-name="Jcircumflex" unicode="&#x134;" horiz-adv-x="393" 
d="M288 641v-550q0 -114 -81.5 -192.5t-219.5 -91.5l-18 75q77 25 111 74.5t34 134.5v550q-34 18 -83 25v74h340v-74q-51 -8 -83 -25zM59 780l-28 42q106 77 140 134h55q34 -57 140 -134l-28 -42l-140 61z" />
    <glyph glyph-name="jcircumflex" unicode="&#x135;" horiz-adv-x="326" 
d="M264 321v-301q0 -83 -67.5 -146.5t-192.5 -69.5l-9 74q60 14 87 47.5t27 94.5v301q0 74 -4 102l-86 12v79l241 15q4 -110 4 -208zM25 581l-37 45q107 97 140 160h56q32 -65 140 -160l-38 -45l-131 87z" />
    <glyph glyph-name="Kcommaaccent" unicode="&#x136;" horiz-adv-x="800" 
d="M499 89l-159 247l-60 -59v-184q33 -18 81 -25v-68h-339v68q50 7 84 25v548q-34 18 -83 25v74h339v-73q-49 -7 -82 -25v-254l250 253q-29 19 -70 25v74h288v-72q-60 -9 -95 -27l-192 -187l229 -354q45 -24 103 -32v-68h-361v68q39 6 67 21zM440 -29q26 -31 26 -74
q0 -75 -82 -128l-51 28q25 33 25 73q0 38 -25 66q52 35 107 35z" />
    <glyph glyph-name="kcommaaccent" unicode="&#x137;" horiz-adv-x="619" 
d="M91 82v475q0 73 -4 101l-86 13v79l241 15q5 -138 5 -208v-267l145 150q-26 18 -61 22v60h247v-58q-45 -5 -77 -24l-108 -108l154 -250q31 -16 77 -23v-59h-208l-131 224l-38 -38v-104q20 -14 55 -21v-61h-288v59q46 7 77 23zM376 -29q26 -31 26 -74q0 -75 -82 -128
l-51 28q25 33 25 73q0 38 -25 66q52 35 107 35z" />
    <glyph glyph-name="kgreenlandic" unicode="&#x138;" horiz-adv-x="635" 
d="M106 82v239q0 81 -3 102l-86 12v79l241 15q4 -110 4 -208v-33l146 152q-26 18 -61 22v60h247v-58q-49 -8 -77 -24l-108 -108l155 -250q30 -16 76 -23v-59h-208l-131 224l-39 -39v-103q22 -15 56 -21v-61h-288v59q46 7 76 23z" />
    <glyph glyph-name="Lacute" unicode="&#x139;" horiz-adv-x="609" 
d="M22 0v68q52 8 83 25v548q-34 18 -83 25v74h334v-74q-48 -7 -82 -25v-551h177l55 142h93l-19 -232h-558zM172 779l-22 51q43 19 103 58t92 69h42q35 -20 35 -65q0 -42 -37 -63q-24 -14 -89.5 -28.5t-123.5 -21.5z" />
    <glyph glyph-name="lacute" unicode="&#x13a;" horiz-adv-x="347" 
d="M104 82v475q0 73 -4 101l-86 13v79l241 15q5 -138 5 -208v-475q31 -16 76 -23v-59h-309v59q47 7 77 23zM72 779l-22 51q43 19 103 58t92 69h42q35 -20 35 -65q0 -42 -37 -63q-24 -14 -89.5 -28.5t-123.5 -21.5z" />
    <glyph glyph-name="Lcommaaccent" unicode="&#x13b;" horiz-adv-x="609" 
d="M22 0v68q52 8 83 25v548q-34 18 -83 25v74h334v-74q-48 -7 -82 -25v-551h177l55 142h93l-19 -232h-558zM365 -29q26 -31 26 -74q0 -75 -82 -128l-51 28q25 33 25 73q0 38 -25 66q52 35 107 35z" />
    <glyph glyph-name="lcommaaccent" unicode="&#x13c;" horiz-adv-x="347" 
d="M104 82v475q0 73 -4 101l-86 13v79l241 15q5 -138 5 -208v-475q31 -16 76 -23v-59h-309v59q47 7 77 23zM229 -29q26 -31 26 -74q0 -75 -82 -128l-51 28q25 33 25 73q0 38 -25 66q52 35 107 35z" />
    <glyph glyph-name="Lcaron" unicode="&#x13d;" horiz-adv-x="609" 
d="M22 0v68q52 8 83 25v548q-34 18 -83 25v74h334v-74q-48 -7 -82 -25v-551h177l55 142h93l-19 -232h-558zM532 756q26 -29 26 -73q0 -40 -24 -74t-58 -55l-51 28q26 34 26 73t-26 66q49 35 107 35z" />
    <glyph glyph-name="lcaron" unicode="&#x13e;" horiz-adv-x="469" 
d="M104 82v475q0 73 -4 101l-86 13v79l241 15q5 -138 5 -208v-475q31 -16 76 -23v-59h-309v59q47 7 77 23zM398 788q24 -38 24 -96q0 -82 -61 -147l-53 23q15 36 15 86q0 58 -26 97q37 37 101 37z" />
    <glyph glyph-name="Ldot" unicode="&#x13f;" horiz-adv-x="609" 
d="M22 0v68q52 8 83 25v548q-34 18 -83 25v74h334v-74q-48 -7 -82 -25v-551h177l55 142h93l-19 -232h-558zM400 394q0 40 28 68.5t68 28.5q39 0 67 -28.5t28 -68.5t-28 -68t-67 -28q-40 0 -68 28t-28 68z" />
    <glyph glyph-name="ldot" unicode="&#x140;" horiz-adv-x="423" 
d="M103 82v475q0 73 -4 101l-86 13v79l241 15q5 -138 5 -208v-475q31 -16 76 -23v-59h-309v59q47 7 77 23zM297 374q0 40 28 68.5t68 28.5q39 0 67 -28.5t28 -68.5t-28 -68t-67 -28q-40 0 -68 28t-28 68z" />
    <glyph glyph-name="Lslash" unicode="&#x141;" horiz-adv-x="616" 
d="M13 232v97l99 45v267q-34 18 -83 25v74h334v-74q-48 -7 -82 -25v-203l168 74v-100l-168 -71v-251h177l55 142h93l-19 -232h-558v68q52 8 83 25v185z" />
    <glyph glyph-name="lslash" unicode="&#x142;" horiz-adv-x="358" 
d="M26 242v101l79 46v170q0 80 -3 101l-86 13v79l241 15q4 -110 4 -208v-90l78 47v-102l-78 -44v-288q30 -16 77 -23v-59h-310v59q47 7 77 23v208z" />
    <glyph glyph-name="Nacute" unicode="&#x143;" horiz-adv-x="793" 
d="M591 -1l-366 454v-360q34 -18 82 -25v-68h-286v68q50 7 84 25v509q-46 58 -97 64v74h199l361 -454v355q-35 18 -83 25v74h286v-74q-49 -7 -83 -25v-642h-97zM295 779l-22 51q43 19 103 58t92 69h42q35 -20 35 -65q0 -42 -37 -63q-24 -14 -89.5 -28.5t-123.5 -21.5z" />
    <glyph glyph-name="nacute" unicode="&#x144;" horiz-adv-x="651" 
d="M106 82v239q0 81 -3 102l-86 12v79l232 15q3 -34 5 -80q40 42 76.5 62.5t86.5 20.5q72 0 115 -52t43 -135v-263q31 -16 76 -23v-59h-289v61q35 6 57 21v243q0 91 -75 91q-38 0 -82 -24v-310q22 -15 56 -21v-61h-288v59q46 7 76 23zM252 574l-36 46q32 23 83.5 76t79.5 90
h44q20 -8 33 -28t13 -42q0 -32 -27 -56q-21 -19 -79 -44.5t-111 -41.5z" />
    <glyph glyph-name="Ncommaaccent" unicode="&#x145;" horiz-adv-x="793" 
d="M591 -1l-366 454v-360q34 -18 82 -25v-68h-286v68q50 7 84 25v509q-46 58 -97 64v74h199l361 -454v355q-35 18 -83 25v74h286v-74q-49 -7 -83 -25v-642h-97zM464 -29q26 -31 26 -74q0 -75 -82 -128l-51 28q25 33 25 73q0 38 -25 66q52 35 107 35z" />
    <glyph glyph-name="ncommaaccent" unicode="&#x146;" horiz-adv-x="651" 
d="M106 82v239q0 81 -3 102l-86 12v79l232 15q3 -34 5 -80q40 42 76.5 62.5t86.5 20.5q72 0 115 -52t43 -135v-263q31 -16 76 -23v-59h-289v61q35 6 57 21v243q0 91 -75 91q-38 0 -82 -24v-310q22 -15 56 -21v-61h-288v59q46 7 76 23zM387 -29q26 -31 26 -74q0 -75 -82 -128
l-51 28q25 33 25 73q0 38 -25 66q52 35 107 35z" />
    <glyph glyph-name="Ncaron" unicode="&#x147;" horiz-adv-x="793" 
d="M591 -1l-366 454v-360q34 -18 82 -25v-68h-286v68q50 7 84 25v509q-46 58 -97 64v74h199l361 -454v355q-35 18 -83 25v74h286v-74q-49 -7 -83 -25v-642h-97zM226 920l28 41l139 -61l140 61l28 -41q-108 -80 -140 -135h-55q-32 55 -140 135z" />
    <glyph glyph-name="ncaron" unicode="&#x148;" horiz-adv-x="651" 
d="M106 82v239q0 81 -3 102l-86 12v79l232 15q3 -34 5 -80q40 42 76.5 62.5t86.5 20.5q72 0 115 -52t43 -135v-263q31 -16 76 -23v-59h-289v61q35 6 57 21v243q0 91 -75 91q-38 0 -82 -24v-310q22 -15 56 -21v-61h-288v59q46 7 76 23zM165 743l37 46l130 -87l131 87l38 -46
q-106 -91 -140 -159h-56q-35 66 -140 159z" />
    <glyph glyph-name="napostrophe" unicode="&#x149;" horiz-adv-x="651" 
d="M106 82v239q0 81 -3 102l-86 12v79l232 15q3 -34 5 -80q40 42 76.5 62.5t86.5 20.5q72 0 115 -52t43 -135v-263q31 -16 76 -23v-59h-289v61q35 6 57 21v243q0 91 -75 91q-38 0 -82 -24v-310q22 -15 56 -21v-61h-288v59q46 7 76 23zM101 756q26 -29 26 -73q0 -40 -24 -74
t-58 -55l-51 28q26 34 26 73t-26 66q49 35 107 35z" />
    <glyph glyph-name="Eng" unicode="&#x14a;" horiz-adv-x="793" 
d="M688 641v-587q0 -64 -17 -112t-45.5 -75.5t-62 -41t-69.5 -13.5q-51 0 -91 30v88q74 0 146 11q17 27 22 83l-346 429v-360q34 -18 82 -25v-68h-286v68q50 7 84 25v509q-46 58 -97 64v74h199l361 -454v355q-35 18 -83 25v74h286v-74q-49 -7 -83 -25z" />
    <glyph glyph-name="eng" unicode="&#x14b;" horiz-adv-x="612" 
d="M106 82v239q0 81 -3 102l-86 12v79l232 15q3 -34 5 -80q40 42 76.5 62.5t86.5 20.5q72 0 115 -52t43 -135v-187q0 -143 -72 -246t-156 -103q-40 0 -74 21v82q84 4 139 15q7 45 7 104v294q0 91 -75 91q-38 0 -82 -24v-310q22 -15 56 -21v-61h-288v59q46 7 76 23z" />
    <glyph glyph-name="Omacron" unicode="&#x14c;" horiz-adv-x="747" 
d="M27 372q0 166 93.5 272t261.5 106q153 0 246 -110.5t93 -273.5q0 -167 -96.5 -271.5t-258.5 -104.5q-155 0 -247 109.5t-92 272.5zM210 414q0 -169 55 -250t141 -81q34 0 67 11q65 78 65 228q0 159 -51.5 241.5t-145.5 82.5q-35 0 -80 -20q-51 -78 -51 -212zM202 807v81
h356v-81h-356z" />
    <glyph glyph-name="omacron" unicode="&#x14d;" horiz-adv-x="558" 
d="M23 266q0 124 72.5 195t190.5 71q115 0 182 -77t67 -199q0 -124 -72.5 -195t-189.5 -71q-115 0 -182.5 77t-67.5 199zM255 442q-18 0 -33 -6q-39 -43 -39 -138q0 -109 31 -169.5t89 -60.5q18 0 33 6q38 41 38 137q0 109 -31 170t-88 61zM123 647v92h309v-92h-309z" />
    <glyph glyph-name="Obreve" unicode="&#x14e;" horiz-adv-x="747" 
d="M27 372q0 166 93.5 272t261.5 106q153 0 246 -110.5t93 -273.5q0 -167 -96.5 -271.5t-258.5 -104.5q-155 0 -247 109.5t-92 272.5zM210 414q0 -169 55 -250t141 -81q34 0 67 11q65 78 65 228q0 159 -51.5 241.5t-145.5 82.5q-35 0 -80 -20q-51 -78 -51 -212zM377 784
q-86 0 -133 40t-47 116h65q3 -37 29 -52.5t86 -15.5t86 15.5t30 52.5h65q0 -76 -47.5 -116t-133.5 -40z" />
    <glyph glyph-name="obreve" unicode="&#x14f;" horiz-adv-x="558" 
d="M23 266q0 124 72.5 195t190.5 71q115 0 182 -77t67 -199q0 -124 -72.5 -195t-189.5 -71q-115 0 -182.5 77t-67.5 199zM255 442q-18 0 -33 -6q-39 -43 -39 -138q0 -109 31 -169.5t89 -60.5q18 0 33 6q38 41 38 137q0 109 -31 170t-88 61zM280 602q-72 0 -113.5 46
t-41.5 136h57q2 -50 25 -68.5t72 -18.5q50 0 73.5 18.5t26.5 68.5h56q0 -90 -41.5 -136t-113.5 -46z" />
    <glyph glyph-name="Ohungarumlaut" unicode="&#x150;" horiz-adv-x="747" 
d="M27 372q0 166 93.5 272t261.5 106q153 0 246 -110.5t93 -273.5q0 -167 -96.5 -271.5t-258.5 -104.5q-155 0 -247 109.5t-92 272.5zM210 414q0 -169 55 -250t141 -81q34 0 67 11q65 78 65 228q0 159 -51.5 241.5t-145.5 82.5q-35 0 -80 -20q-51 -78 -51 -212zM221 781
l-24 44q34 20 85 61t76 70h43q20 -7 33 -23.5t13 -35.5q0 -28 -27 -48q-36 -28 -199 -68zM435 781l-24 44q34 20 85 61t76 70h44q20 -7 32.5 -23.5t12.5 -35.5q0 -28 -27 -48q-40 -32 -199 -68z" />
    <glyph glyph-name="ohungarumlaut" unicode="&#x151;" horiz-adv-x="558" 
d="M23 266q0 124 72.5 195t190.5 71q115 0 182 -77t67 -199q0 -124 -72.5 -195t-189.5 -71q-115 0 -182.5 77t-67.5 199zM255 442q-18 0 -33 -6q-39 -43 -39 -138q0 -109 31 -169.5t89 -60.5q18 0 33 6q38 41 38 137q0 109 -31 170t-88 61zM138 573l-36 46q98 66 144 166h46
q19 -8 30.5 -26.5t11.5 -40.5q0 -33 -26 -58q-20 -20 -69 -45t-101 -42zM343 573l-35 46q100 68 145 166h47q18 -8 29 -26t11 -39q0 -34 -27 -60q-20 -20 -69 -45t-101 -42z" />
    <glyph glyph-name="OE" unicode="&#x152;" horiz-adv-x="1044" 
d="M626 740h372l6 -237h-107l-46 139h-176v-208h192v-106h-192v-233h181l59 137h107l-13 -232h-419q-35 0 -106 -3t-117 -3q-157 0 -249 106.5t-92 268.5q0 168 102.5 273t285.5 105q32 0 99 -3.5t113 -3.5zM413 82q44 0 88 20v483q-2 32 -27.5 51t-71.5 19q-56 0 -104 -22
q-85 -87 -85 -231q0 -157 52.5 -238.5t147.5 -81.5z" />
    <glyph glyph-name="oe" unicode="&#x153;" horiz-adv-x="849" 
d="M777 156l47 -46q-29 -53 -84.5 -87t-129.5 -34q-115 0 -172 75q-60 -74 -174 -74q-106 0 -173.5 78t-67.5 198q0 123 70.5 194.5t181.5 71.5q108 0 168 -85q64 84 173 84q91 0 148 -65.5t58 -167.5q-16 -30 -40 -52h-261q10 -78 48 -114.5t83 -36.5q71 0 125 61zM253 442
q-17 0 -32 -6q-39 -43 -39 -138q0 -109 31 -169.5t89 -60.5q18 0 33 6q38 41 38 137q0 109 -31.5 170t-88.5 61zM566 448q-42 -46 -47 -129q169 2 169 7q0 58 -27.5 91t-75.5 33q-7 0 -19 -2z" />
    <glyph glyph-name="Racute" unicode="&#x154;" horiz-adv-x="729" 
d="M484 0l-142 302h-63v-209q34 -18 83 -25v-68h-340v68q49 7 83 25v548q-35 18 -83 25v74h315q150 0 222 -54t72 -151q0 -123 -122 -189l121 -246q45 -24 104 -32v-68h-250zM334 641h-55v-259l117 10q58 42 58 129q0 56 -31.5 88t-88.5 32zM238 779l-22 51q43 19 103 58
t92 69h42q35 -20 35 -65q0 -42 -37 -63q-24 -14 -89.5 -28.5t-123.5 -21.5z" />
    <glyph glyph-name="racute" unicode="&#x155;" horiz-adv-x="527" 
d="M106 82v239q0 81 -3 102l-86 12v79l236 15q6 -63 7 -128q68 130 163 130q41 0 72 -18v-186h-105l-23 72q-36 0 -59 -23t-46 -74v-220q32 -16 77 -23v-59h-309v59q46 7 76 23zM186 574l-36 46q32 23 83.5 76t79.5 90h44q20 -8 33 -28t13 -42q0 -32 -27 -56
q-21 -19 -79 -44.5t-111 -41.5z" />
    <glyph glyph-name="Rcommaaccent" unicode="&#x156;" horiz-adv-x="729" 
d="M484 0l-142 302h-63v-209q34 -18 83 -25v-68h-340v68q49 7 83 25v548q-35 18 -83 25v74h315q150 0 222 -54t72 -151q0 -123 -122 -189l121 -246q45 -24 104 -32v-68h-250zM334 641h-55v-259l117 10q58 42 58 129q0 56 -31.5 88t-88.5 32zM447 -29q26 -31 26 -74
q0 -75 -82 -128l-51 28q25 33 25 73q0 38 -25 66q52 35 107 35z" />
    <glyph glyph-name="rcommaaccent" unicode="&#x157;" horiz-adv-x="527" 
d="M106 82v239q0 81 -3 102l-86 12v79l236 15q6 -63 7 -128q68 130 163 130q41 0 72 -18v-186h-105l-23 72q-36 0 -59 -23t-46 -74v-220q32 -16 77 -23v-59h-309v59q46 7 76 23zM228 -29q26 -31 26 -74q0 -75 -82 -128l-51 28q25 33 25 73q0 38 -25 66q52 35 107 35z" />
    <glyph glyph-name="Rcaron" unicode="&#x158;" horiz-adv-x="729" 
d="M484 0l-142 302h-63v-209q34 -18 83 -25v-68h-340v68q49 7 83 25v548q-35 18 -83 25v74h315q150 0 222 -54t72 -151q0 -123 -122 -189l121 -246q45 -24 104 -32v-68h-250zM334 641h-55v-259l117 10q58 42 58 129q0 56 -31.5 88t-88.5 32zM147 920l28 41l139 -61l140 61
l28 -41q-108 -80 -140 -135h-55q-32 55 -140 135z" />
    <glyph glyph-name="rcaron" unicode="&#x159;" horiz-adv-x="527" 
d="M106 82v239q0 81 -3 102l-86 12v79l236 15q6 -63 7 -128q68 130 163 130q41 0 72 -18v-186h-105l-23 72q-36 0 -59 -23t-46 -74v-220q32 -16 77 -23v-59h-309v59q46 7 76 23zM108 743l37 46l130 -87l131 87l38 -46q-106 -91 -140 -159h-56q-35 66 -140 159z" />
    <glyph glyph-name="Sacute" unicode="&#x15a;" horiz-adv-x="575" 
d="M37 57l-1 173h110l22 -104q68 -43 149 -43q16 0 24 1q46 36 46 89q0 35 -19.5 60t-50.5 40.5t-69 29.5t-76 30.5t-69 38.5t-50.5 60.5t-19.5 89.5q0 92 77.5 159.5t204.5 67.5q99 0 201 -51v-195h-109l-35 124q-56 24 -108 24q-13 0 -20 -1q-49 -34 -49 -87
q0 -30 19.5 -52.5t50.5 -37.5t68 -29t74.5 -32t68.5 -41t50.5 -62t19.5 -89q0 -100 -80.5 -165t-203.5 -65q-56 0 -118.5 17.5t-106.5 49.5zM211 779l-22 51q43 19 103 58t92 69h42q35 -20 35 -65q0 -42 -37 -63q-24 -14 -89.5 -28.5t-123.5 -21.5z" />
    <glyph glyph-name="sacute" unicode="&#x15b;" horiz-adv-x="470" 
d="M442 162q0 -80 -61 -126t-160 -46q-44 0 -92.5 12.5t-82.5 35.5l-9 125h98l26 -75q51 -23 116 -23q26 24 26 60q0 28 -28 46t-67.5 30t-79.5 27t-67.5 49t-27.5 85q0 69 60 119.5t161 50.5q79 0 161 -37v-132h-98l-28 72q-37 14 -72 14q-13 0 -20 -1q-24 -20 -24 -48
q0 -27 27.5 -45.5t67.5 -31t79.5 -28.5t67 -49.5t27.5 -83.5zM159 574l-36 46q32 23 83.5 76t79.5 90h44q20 -8 33 -28t13 -42q0 -32 -27 -56q-21 -19 -79 -44.5t-111 -41.5z" />
    <glyph glyph-name="Scircumflex" unicode="&#x15c;" horiz-adv-x="575" 
d="M37 57l-1 173h110l22 -104q68 -43 149 -43q16 0 24 1q46 36 46 89q0 35 -19.5 60t-50.5 40.5t-69 29.5t-76 30.5t-69 38.5t-50.5 60.5t-19.5 89.5q0 92 77.5 159.5t204.5 67.5q99 0 201 -51v-195h-109l-35 124q-56 24 -108 24q-13 0 -20 -1q-49 -34 -49 -87
q0 -30 19.5 -52.5t50.5 -37.5t68 -29t74.5 -32t68.5 -41t50.5 -62t19.5 -89q0 -100 -80.5 -165t-203.5 -65q-56 0 -118.5 17.5t-106.5 49.5zM165 780l-28 42q106 77 140 134h55q34 -57 140 -134l-28 -42l-140 61z" />
    <glyph glyph-name="scircumflex" unicode="&#x15d;" horiz-adv-x="470" 
d="M442 162q0 -80 -61 -126t-160 -46q-44 0 -92.5 12.5t-82.5 35.5l-9 125h98l26 -75q51 -23 116 -23q26 24 26 60q0 28 -28 46t-67.5 30t-79.5 27t-67.5 49t-27.5 85q0 69 60 119.5t161 50.5q79 0 161 -37v-132h-98l-28 72q-37 14 -72 14q-13 0 -20 -1q-24 -20 -24 -48
q0 -27 27.5 -45.5t67.5 -31t79.5 -28.5t67 -49.5t27.5 -83.5zM110 581l-37 45q107 97 140 160h56q32 -65 140 -160l-38 -45l-131 87z" />
    <glyph glyph-name="Scedilla" unicode="&#x15e;" horiz-adv-x="575" 
d="M37 57l-1 173h110l22 -104q68 -43 149 -43q16 0 24 1q46 36 46 89q0 35 -19.5 60t-50.5 40.5t-69 29.5t-76 30.5t-69 38.5t-50.5 60.5t-19.5 89.5q0 92 77.5 159.5t204.5 67.5q99 0 201 -51v-195h-109l-35 124q-56 24 -108 24q-13 0 -20 -1q-49 -34 -49 -87
q0 -30 19.5 -52.5t50.5 -37.5t68 -29t74.5 -32t68.5 -41t50.5 -62t19.5 -89q0 -93 -71 -157t-182 -72l-4 -20q118 -6 118 -70q0 -42 -42 -68t-123 -26q-27 0 -57 3l11 44h11q100 0 100 26q0 6 -9.5 11t-31 9t-51.5 4l19 87q-120 9 -197 66z" />
    <glyph glyph-name="scedilla" unicode="&#x15f;" horiz-adv-x="470" 
d="M442 162q0 -73 -51.5 -118t-137.5 -52l-4 -21q118 -6 118 -70q0 -42 -42 -68t-123 -26q-27 0 -57 3l10 44h11q101 0 101 26q0 6 -9.5 11t-31 9t-51.5 4l19 87q-89 7 -148 47l-9 125h98l26 -75q51 -23 116 -23q26 24 26 60q0 28 -28 46t-67.5 30t-79.5 27t-67.5 49
t-27.5 85q0 69 60 119.5t161 50.5q79 0 161 -37v-132h-98l-28 72q-37 14 -72 14q-13 0 -20 -1q-24 -20 -24 -48q0 -27 27.5 -45.5t67.5 -31t79.5 -28.5t67 -49.5t27.5 -83.5z" />
    <glyph glyph-name="Scaron" unicode="&#x160;" horiz-adv-x="575" 
d="M37 57l-1 173h110l22 -104q68 -43 149 -43q16 0 24 1q46 36 46 89q0 35 -19.5 60t-50.5 40.5t-69 29.5t-76 30.5t-69 38.5t-50.5 60.5t-19.5 89.5q0 92 77.5 159.5t204.5 67.5q99 0 201 -51v-195h-109l-35 124q-56 24 -108 24q-13 0 -20 -1q-49 -34 -49 -87
q0 -30 19.5 -52.5t50.5 -37.5t68 -29t74.5 -32t68.5 -41t50.5 -62t19.5 -89q0 -100 -80.5 -165t-203.5 -65q-56 0 -118.5 17.5t-106.5 49.5zM136 920l28 41l139 -61l140 61l28 -41q-108 -80 -140 -135h-55q-32 55 -140 135z" />
    <glyph glyph-name="scaron" unicode="&#x161;" horiz-adv-x="470" 
d="M442 162q0 -80 -61 -126t-160 -46q-44 0 -92.5 12.5t-82.5 35.5l-9 125h98l26 -75q51 -23 116 -23q26 24 26 60q0 28 -28 46t-67.5 30t-79.5 27t-67.5 49t-27.5 85q0 69 60 119.5t161 50.5q79 0 161 -37v-132h-98l-28 72q-37 14 -72 14q-13 0 -20 -1q-24 -20 -24 -48
q0 -27 27.5 -45.5t67.5 -31t79.5 -28.5t67 -49.5t27.5 -83.5zM69 743l37 46l130 -87l131 87l38 -46q-106 -91 -140 -159h-56q-35 66 -140 159z" />
    <glyph glyph-name="Tcommaaccent" unicode="&#x162;" horiz-adv-x="674" 
d="M248 93v547h-96l-35 -138h-102v238h645v-238h-103l-31 138h-104v-547q34 -18 83 -25v-68h-168l-7 -30q68 -3 93 -21.5t25 -47.5q0 -42 -41.5 -68t-123.5 -26q-25 0 -57 3l11 44h11q100 0 100 26q0 6 -9.5 11t-31 9t-51.5 4l22 96h-113v68q49 7 83 25z" />
    <glyph glyph-name="tcommaaccent" unicode="&#x163;" horiz-adv-x="361" 
d="M332 423h-97v-284q0 -61 51 -61q19 0 39 11l16 -64q-49 -36 -119 -36l-5 -19q68 -3 93 -21.5t25 -47.5q0 -42 -41.5 -68t-123.5 -26q-26 0 -57 3l11 44h11q100 0 100 26q0 6 -9.5 11t-31 9t-51.5 4l22 95q-86 30 -86 144v280h-70v93h70v117l156 36v-153h97v-93z" />
    <glyph glyph-name="Tcaron" unicode="&#x164;" horiz-adv-x="674" 
d="M248 93v547h-96l-35 -138h-102v238h645v-238h-103l-31 138h-104v-547q34 -18 83 -25v-68h-340v68q49 7 83 25zM168 920l28 41l139 -61l140 61l28 -41q-108 -80 -140 -135h-55q-32 55 -140 135z" />
    <glyph glyph-name="tcaron" unicode="&#x165;" horiz-adv-x="460" 
d="M332 423h-97v-284q0 -61 51 -61q19 0 39 11l16 -64q-50 -36 -115 -36q-71 0 -109 41t-38 113v280h-70v93h70v117l156 36v-153h97v-93zM386 788q24 -38 24 -96q0 -82 -61 -147l-53 23q15 36 15 86q0 58 -26 97q37 37 101 37z" />
    <glyph glyph-name="Tbar" unicode="&#x166;" horiz-adv-x="674" 
d="M80 361v71h168v208h-96l-35 -138h-102v238h645v-238h-103l-31 138h-104v-208h172v-71h-172v-268q34 -18 83 -25v-68h-340v68q49 7 83 25v268h-168z" />
    <glyph glyph-name="tbar" unicode="&#x167;" horiz-adv-x="361" 
d="M332 423h-97v-42h96v-90h-96v-152q0 -61 51 -61q19 0 39 11l16 -64q-50 -36 -115 -36q-71 0 -109 41t-38 113v148h-70v90h70v42h-70v93h70v117l156 36v-153h97v-93z" />
    <glyph glyph-name="Utilde" unicode="&#x168;" horiz-adv-x="786" 
d="M688 641v-371q0 -135 -82.5 -208t-218.5 -73q-134 0 -211.5 80t-77.5 201v371q-37 19 -83 26v73h339v-73q-45 -7 -82 -26v-371q0 -171 151 -171q55 0 102 31q38 52 38 140v371q-37 19 -83 26v73h291v-73q-47 -7 -83 -26zM479 780q-40 0 -89 37.5t-60 41.5
q-27 -27 -27 -72h-65q0 75 34 114.5t85 39.5q31 0 57.5 -15.5t51 -36t42.5 -27.5q26 26 26 72h65q-1 -75 -35 -114.5t-85 -39.5z" />
    <glyph glyph-name="utilde" unicode="&#x169;" horiz-adv-x="654" 
d="M249 321v-122q0 -53 20.5 -73t55.5 -20q41 0 81 26v189q0 74 -4 102l-86 12v79l241 15q5 -92 5 -208v-140q0 -70 3 -94l75 -8v-67l-215 -22q-3 16 -10 80q-72 -80 -162 -80q-74 0 -117 52t-43 134v145q0 81 -3 102l-86 12v79l241 15q4 -110 4 -208zM384 609
q-26 0 -48.5 14t-44.5 35t-36 29q-25 -27 -25 -71h-58q1 76 28 116t71 40q26 0 48.5 -14t44.5 -35t37 -29q24 26 24 71h57q0 -76 -27 -116t-71 -40z" />
    <glyph glyph-name="Umacron" unicode="&#x16a;" horiz-adv-x="786" 
d="M688 641v-371q0 -135 -82.5 -208t-218.5 -73q-134 0 -211.5 80t-77.5 201v371q-37 19 -83 26v73h339v-73q-45 -7 -82 -26v-371q0 -171 151 -171q55 0 102 31q38 52 38 140v371q-37 19 -83 26v73h291v-73q-47 -7 -83 -26zM233 807v81h356v-81h-356z" />
    <glyph glyph-name="umacron" unicode="&#x16b;" horiz-adv-x="654" 
d="M249 321v-122q0 -53 20.5 -73t55.5 -20q41 0 81 26v189q0 74 -4 102l-86 12v79l241 15q5 -92 5 -208v-140q0 -70 3 -94l75 -8v-67l-215 -22q-3 16 -10 80q-72 -80 -162 -80q-74 0 -117 52t-43 134v145q0 81 -3 102l-86 12v79l241 15q4 -110 4 -208zM173 648v92h309v-92
h-309z" />
    <glyph glyph-name="Ubreve" unicode="&#x16c;" horiz-adv-x="786" 
d="M688 641v-371q0 -135 -82.5 -208t-218.5 -73q-134 0 -211.5 80t-77.5 201v371q-37 19 -83 26v73h339v-73q-45 -7 -82 -26v-371q0 -171 151 -171q55 0 102 31q38 52 38 140v371q-37 19 -83 26v73h291v-73q-47 -7 -83 -26zM418 784q-86 0 -133 40t-47 116h65
q3 -37 29 -52.5t86 -15.5t86 15.5t30 52.5h65q0 -76 -47.5 -116t-133.5 -40z" />
    <glyph glyph-name="ubreve" unicode="&#x16d;" horiz-adv-x="654" 
d="M249 321v-122q0 -53 20.5 -73t55.5 -20q41 0 81 26v189q0 74 -4 102l-86 12v79l241 15q5 -92 5 -208v-140q0 -70 3 -94l75 -8v-67l-215 -22q-3 16 -10 80q-72 -80 -162 -80q-74 0 -117 52t-43 134v145q0 81 -3 102l-86 12v79l241 15q4 -110 4 -208zM327 603
q-72 0 -113.5 46t-41.5 136h57q2 -50 25 -68.5t72 -18.5q50 0 73.5 18.5t26.5 68.5h56q0 -90 -41.5 -136t-113.5 -46z" />
    <glyph glyph-name="Uring" unicode="&#x16e;" horiz-adv-x="786" 
d="M688 641v-371q0 -135 -82.5 -208t-218.5 -73q-134 0 -211.5 80t-77.5 201v371q-37 19 -83 26v73h339v-73q-45 -7 -82 -26v-371q0 -171 151 -171q55 0 102 31q38 52 38 140v371q-37 19 -83 26v73h291v-73q-47 -7 -83 -26zM296 875q0 50 35.5 85.5t85.5 35.5t85.5 -35.5
t35.5 -85.5t-35.5 -85t-85.5 -35t-85.5 35t-35.5 85zM361 875q0 -24 16.5 -41.5t40.5 -17.5t40.5 17.5t16.5 41.5t-16.5 41t-40.5 17t-40.5 -17t-16.5 -41z" />
    <glyph glyph-name="uring" unicode="&#x16f;" horiz-adv-x="654" 
d="M249 321v-122q0 -53 20.5 -73t55.5 -20q41 0 81 26v189q0 74 -4 102l-86 12v79l241 15q5 -92 5 -208v-140q0 -70 3 -94l75 -8v-67l-215 -22q-3 16 -10 80q-72 -80 -162 -80q-74 0 -117 52t-43 134v145q0 81 -3 102l-86 12v79l241 15q4 -110 4 -208zM206 689
q0 50 35.5 85.5t85.5 35.5t85.5 -35.5t35.5 -85.5t-35.5 -85t-85.5 -35t-85.5 35t-35.5 85zM271 689q0 -24 16.5 -41.5t40.5 -17.5t40.5 17.5t16.5 41.5t-16.5 41t-40.5 17t-40.5 -17t-16.5 -41z" />
    <glyph glyph-name="Uhungarumlaut" unicode="&#x170;" horiz-adv-x="786" 
d="M688 641v-371q0 -135 -82.5 -208t-218.5 -73q-134 0 -211.5 80t-77.5 201v371q-37 19 -83 26v73h339v-73q-45 -7 -82 -26v-371q0 -171 151 -171q55 0 102 31q38 52 38 140v371q-37 19 -83 26v73h291v-73q-47 -7 -83 -26zM281 781l-24 44q34 20 85 61t76 70h43
q20 -7 33 -23.5t13 -35.5q0 -28 -27 -48q-36 -28 -199 -68zM495 781l-24 44q34 20 85 61t76 70h44q20 -7 32.5 -23.5t12.5 -35.5q0 -28 -27 -48q-40 -32 -199 -68z" />
    <glyph glyph-name="uhungarumlaut" unicode="&#x171;" horiz-adv-x="654" 
d="M249 321v-122q0 -53 20.5 -73t55.5 -20q41 0 81 26v189q0 74 -4 102l-86 12v79l241 15q5 -92 5 -208v-140q0 -70 3 -94l75 -8v-67l-215 -22q-3 16 -10 80q-72 -80 -162 -80q-74 0 -117 52t-43 134v145q0 81 -3 102l-86 12v79l241 15q4 -110 4 -208zM172 574l-36 46
q98 66 144 166h46q19 -8 30.5 -26.5t11.5 -40.5q0 -33 -26 -58q-20 -20 -69 -45t-101 -42zM377 574l-35 46q100 68 145 166h47q18 -8 29 -26t11 -39q0 -34 -27 -60q-20 -20 -69 -45t-101 -42z" />
    <glyph glyph-name="Uogonek" unicode="&#x172;" horiz-adv-x="786" 
d="M688 641v-371q0 -116 -62 -186.5t-168 -88.5q-17 -11 -28.5 -28t-11.5 -31q0 -46 49 -46q19 0 38 5.5t24 9.5l20 -51q-51 -47 -128 -47q-53 0 -84.5 25.5t-31.5 59.5q0 54 69 97q-128 4 -202 83.5t-74 197.5v371q-37 19 -83 26v73h339v-73q-45 -7 -82 -26v-371
q0 -171 151 -171q55 0 102 31q38 52 38 140v371q-37 19 -83 26v73h291v-73q-47 -7 -83 -26z" />
    <glyph glyph-name="uogonek" unicode="&#x173;" horiz-adv-x="654" 
d="M249 321v-122q0 -53 20.5 -73t55.5 -20q41 0 81 26v189q0 74 -4 102l-86 12v79l241 15q5 -92 5 -208v-140q0 -70 3 -94l75 -8v-67l-64 -7q-22 -7 -39 -28t-17 -38q0 -46 49 -46q19 0 38 5.5t24 9.5l20 -51q-51 -47 -128 -47q-53 0 -84.5 25.5t-31.5 59.5q0 56 75 101
l-57 -6q-3 16 -10 80q-72 -80 -162 -80q-74 0 -117 52t-43 134v145q0 81 -3 102l-86 12v79l241 15q4 -110 4 -208z" />
    <glyph glyph-name="Wcircumflex" unicode="&#x174;" horiz-adv-x="1145" 
d="M303 0l-212 641q-36 19 -85 26v73h342v-73q-43 -6 -82 -26l139 -448l118 340l-35 108q-37 19 -83 26v73h339v-73q-44 -7 -83 -26l133 -439l137 439q-38 20 -81 26v73h289v-73q-48 -7 -86 -26l-213 -641h-143l-118 361l-133 -361h-143zM446 780l-28 42q106 77 140 134h55
q34 -57 140 -134l-28 -42l-140 61z" />
    <glyph glyph-name="wcircumflex" unicode="&#x175;" horiz-adv-x="876" 
d="M290 522v-72q-37 -4 -67 -22l95 -302l85 257l-14 44q-31 18 -68 23v72h275v-75q-37 -6 -60 -21l85 -291l87 290q-23 16 -61 22v75h238v-73q-48 -8 -76 -23l-145 -427h-137l-82 253l-86 -253h-143l-153 429q-36 17 -76 22v72h303zM333 581l-37 45q107 97 140 160h56
q32 -65 140 -160l-38 -45l-131 87z" />
    <glyph glyph-name="Ycircumflex" unicode="&#x176;" horiz-adv-x="726" 
d="M276 93v192l-194 356q-37 19 -83 26v73h358v-73q-47 -7 -84 -26l122 -241l123 241q-37 19 -83 26v73h292v-73q-46 -7 -83 -26l-195 -354v-194q34 -18 83 -25v-68h-340v68q48 7 84 25zM252 780l-28 42q106 77 140 134h55q34 -57 140 -134l-28 -42l-140 61z" />
    <glyph glyph-name="ycircumflex" unicode="&#x177;" horiz-adv-x="601" 
d="M538 426l-185 -459q-32 -79 -70.5 -121t-98.5 -42q-48 0 -88 31v89q60 0 137 7q16 27 30 58l-200 437q-30 16 -76 23v73h309v-72q-37 -6 -60 -22l100 -245l91 245q-23 16 -60 22v72h248v-73q-46 -7 -77 -23zM200 581l-37 45q107 97 140 160h56q32 -65 140 -160l-38 -45
l-131 87z" />
    <glyph glyph-name="Ydieresis" unicode="&#x178;" horiz-adv-x="726" 
d="M276 93v192l-194 356q-37 19 -83 26v73h358v-73q-47 -7 -84 -26l122 -241l123 241q-37 19 -83 26v73h292v-73q-46 -7 -83 -26l-195 -354v-194q34 -18 83 -25v-68h-340v68q48 7 84 25zM365 864q0 -31 -21.5 -53t-52.5 -22q-32 0 -54 22t-22 53t22 52.5t54 21.5
q31 0 52.5 -21.5t21.5 -52.5zM575 864q0 -31 -22 -53t-53 -22t-52.5 22t-21.5 53t21.5 52.5t52.5 21.5t53 -21.5t22 -52.5z" />
    <glyph glyph-name="Zacute" unicode="&#x179;" horiz-adv-x="626" 
d="M156 502h-112l1 238h560v-65l-368 -584h207l47 141h108l-4 -232h-578v59l372 583h-196zM249 779l-22 51q43 19 103 58t92 69h42q35 -20 35 -65q0 -42 -37 -63q-24 -14 -89.5 -28.5t-123.5 -21.5z" />
    <glyph glyph-name="zacute" unicode="&#x17a;" horiz-adv-x="500" 
d="M135 347h-98v175h434v-81l-266 -364h146l32 100h94l-5 -177h-449v75l267 358h-134zM181 574l-36 46q32 23 83.5 76t79.5 90h44q20 -8 33 -28t13 -42q0 -32 -27 -56q-21 -19 -79 -44.5t-111 -41.5z" />
    <glyph glyph-name="Zdotaccent" unicode="&#x17b;" horiz-adv-x="626" 
d="M156 502h-112l1 238h560v-65l-368 -584h207l47 141h108l-4 -232h-578v59l372 583h-196zM415 870q0 -34 -24 -57.5t-59 -23.5q-36 0 -60.5 23.5t-24.5 57.5t24.5 57.5t60.5 23.5q35 0 59 -23.5t24 -57.5z" />
    <glyph glyph-name="zdotaccent" unicode="&#x17c;" horiz-adv-x="500" 
d="M135 347h-98v175h434v-81l-266 -364h146l32 100h94l-5 -177h-449v75l267 358h-134zM348 707q0 -38 -25.5 -64.5t-62.5 -26.5t-63.5 26.5t-26.5 64.5q0 37 26 63.5t64 26.5q37 0 62.5 -26t25.5 -64z" />
    <glyph glyph-name="Zcaron" unicode="&#x17d;" horiz-adv-x="626" 
d="M156 502h-112l1 238h560v-65l-368 -584h207l47 141h108l-4 -232h-578v59l372 583h-196zM160 920l28 41l139 -61l140 61l28 -41q-108 -80 -140 -135h-55q-32 55 -140 135z" />
    <glyph glyph-name="zcaron" unicode="&#x17e;" horiz-adv-x="500" 
d="M135 347h-98v175h434v-81l-266 -364h146l32 100h94l-5 -177h-449v75l267 358h-134zM88 743l37 46l130 -87l131 87l38 -46q-106 -91 -140 -159h-56q-35 66 -140 159z" />
    <glyph glyph-name="longs" unicode="&#x17f;" horiz-adv-x="355" 
d="M104 82v346h-94v84q57 5 94 15v24q0 101 65 168t171 67q71 0 133 -32l8 -144h-107l-23 74q-32 14 -72 14q-19 -43 -19 -147v-469q32 -16 76 -23v-59h-309v59q47 7 77 23z" />
    <glyph glyph-name="uni018F" unicode="&#x18f;" horiz-adv-x="697" 
d="M321 750q94 0 162.5 -29.5t108.5 -83t59 -121t19 -151.5q0 -168 -90.5 -271.5t-241.5 -103.5q-134 0 -212 85.5t-89 234.5q19 42 54 73h403q-5 143 -51 209.5t-141 66.5q-49 0 -87 -11l-34 -141h-98v200q107 43 238 43zM422 89q68 76 72 227q-159 -2 -287 -13
q14 -224 153 -224q31 0 62 10z" />
    <glyph glyph-name="florin" unicode="&#x192;" horiz-adv-x="463" 
d="M44 318v84h64q12 110 78 188.5t180 78.5q41 0 100 -19v-165h-95l-18 97q-25 6 -46 9q-37 -66 -52 -189h131v-84h-140l-24 -229q-13 -123 -79 -197.5t-169 -74.5q-49 0 -101 20v139h94l15 -71q31 -11 54 -13q24 51 39 197l24 229h-55z" />
    <glyph glyph-name="Ohorn" unicode="&#x1a0;" horiz-adv-x="747" 
d="M27 372q0 166 93.5 272t261.5 106q161 0 255 -122q28 2 45 24.5t17 57.5q0 20 -6 43h122q6 -16 6 -41q0 -56 -38.5 -95t-103.5 -39h-9q51 -93 51 -212q0 -167 -96.5 -271.5t-258.5 -104.5q-155 0 -247 109.5t-92 272.5zM210 414q0 -169 55 -250t141 -81q34 0 67 11
q65 78 65 228q0 159 -51.5 241.5t-145.5 82.5q-35 0 -80 -20q-51 -78 -51 -212z" />
    <glyph glyph-name="ohorn" unicode="&#x1a1;" horiz-adv-x="678" 
d="M23 266q0 124 72.5 195t190.5 71q135 0 202 -104q54 14 54 86q0 25 -5 46h106q6 -18 6 -46q0 -65 -36.5 -102.5t-96.5 -39.5q19 -55 19 -116q0 -124 -72.5 -195t-189.5 -71q-115 0 -182.5 77t-67.5 199zM255 442q-18 0 -33 -6q-39 -43 -39 -138q0 -109 31 -169.5
t89 -60.5q18 0 33 6q38 41 38 137q0 109 -31 170t-88 61z" />
    <glyph glyph-name="Uhorn" unicode="&#x1af;" horiz-adv-x="786" 
d="M767 668q-48 -11 -79 -27v-371q0 -135 -82.5 -208t-218.5 -73q-134 0 -211.5 80t-77.5 201v371q-37 19 -83 26v73h339v-73q-45 -7 -82 -26v-371q0 -171 151 -171q55 0 102 31q38 52 38 140v371q-37 19 -83 26v73h265q28 28 28 69q0 19 -6 46h106q6 -18 6 -45
q0 -121 -112 -142z" />
    <glyph glyph-name="uhorn" unicode="&#x1b0;" horiz-adv-x="751" 
d="M231 321v-122q0 -53 20 -73t56 -20q41 0 81 26v189q0 74 -4 102l-86 12v79l241 15q0 -1 2 -40.5t2 -62.5q32 1 52 23t20 65q0 25 -5 46h106q6 -18 6 -46q0 -66 -38 -104t-99 -38q-16 0 -41 5v-196q0 -70 3 -94l75 -8v-67l-215 -22q-3 16 -10 80q-72 -80 -163 -80
q-74 0 -116.5 51.5t-42.5 134.5v145q0 81 -3 102l-86 12v79l241 15q4 -110 4 -208z" />
    <glyph glyph-name="uni01B5" unicode="&#x1b5;" horiz-adv-x="626" 
d="M156 502h-112l1 238h560v-65l-164 -260h129v-71h-174l-159 -253h207l47 141h108l-4 -232h-578v59l182 285h-107v71h152l145 227h-196z" />
    <glyph glyph-name="uni01B6" unicode="&#x1b6;" horiz-adv-x="500" 
d="M135 347h-98v175h434v-81l-105 -143h88v-67h-137l-112 -154h146l32 100h94l-5 -177h-449v75l116 156h-79v67h129l101 135h-134z" />
    <glyph glyph-name="Aringacute" unicode="&#x1fa;" horiz-adv-x="824" 
d="M548 93l-51 130h-233l-52 -130q35 -18 82 -25v-68h-288v68q48 7 84 25l216 511q-14 26 -14 57q0 50 35.5 85.5t85.5 35.5t85.5 -35.5t35.5 -85.5q0 -31 -14 -56l214 -512q36 -18 84 -25v-68h-353v68q49 7 83 25zM381 515l-79 -197h157zM356 661q0 -24 16.5 -41.5
t40.5 -17.5t40.5 17.5t16.5 41.5t-16.5 41t-40.5 17t-40.5 -17t-16.5 -41zM314 781l-22 51q43 19 103 58t92 69h42q35 -20 35 -65q0 -42 -37 -63q-24 -14 -89.5 -28.5t-123.5 -21.5z" />
    <glyph glyph-name="aringacute" unicode="&#x1fb;" horiz-adv-x="528" 
d="M430 -8q-84 0 -116 65q-35 -35 -67.5 -51t-80.5 -16q-66 0 -105 39t-39 98q0 23 4.5 42t21.5 41.5t46 39.5t82 31.5t126 21.5v19q0 72 -18 99t-61 27q-16 0 -24 -1l-28 -96h-110v145q99 36 190 36q106 0 156 -56.5t50 -155.5v-197q0 -47 42 -47q12 0 20 4l7 -61
q-32 -27 -96 -27zM233 88q41 0 69 35v101q-62 -7 -129 -27q-6 -18 -6 -36q0 -73 66 -73zM127 670q0 50 35.5 85.5t85.5 35.5t85.5 -35.5t35.5 -85.5t-35.5 -85t-85.5 -35t-85.5 35t-35.5 85zM192 670q0 -24 16.5 -41.5t40.5 -17.5t40.5 17.5t16.5 41.5t-16.5 41t-40.5 17
t-40.5 -17t-16.5 -41zM168 785l-36 46q32 23 83.5 76t79.5 90h44q20 -8 33 -28t13 -42q0 -32 -27 -56q-21 -19 -79 -44.5t-111 -41.5z" />
    <glyph glyph-name="AEacute" unicode="&#x1fc;" horiz-adv-x="974" 
d="M493 89l-29 224h-182l-89 -220q35 -18 82 -25v-68h-294v68q48 7 84 25l242 554q-35 14 -70 19v74h692l6 -237h-108l-46 139h-187l30 -226h176v-103h-163l28 -218h121l59 137h108l-14 -232h-530v64q48 7 84 25zM421 653l-101 -246h132zM432 779l-22 51q43 19 103 58t92 69
h42q35 -20 35 -65q0 -42 -37 -63q-24 -14 -89.5 -28.5t-123.5 -21.5z" />
    <glyph glyph-name="aeacute" unicode="&#x1fd;" horiz-adv-x="765" 
d="M22 127q0 23 4.5 41.5t21.5 40.5t46 38t82 30.5t126 21.5v23q0 75 -20 100.5t-81 25.5l-27 -91h-112v139q118 36 189 36q106 0 148 -70q59 69 150 69q85 0 134 -60.5t53 -149.5q-6 -28 -27 -62l-248 -25q12 -70 47 -104t76 -34q62 0 109 61l48 -47q-67 -121 -196 -121
q-117 0 -179 93q-72 -92 -189 -92q-72 0 -113.5 38.5t-41.5 98.5zM505 450q-46 -51 -48 -146q155 17 155 32q0 116 -86 116q-5 0 -21 -2zM233 88q39 0 69 33v105q-58 -6 -129 -28q-6 -18 -6 -37q0 -73 66 -73zM374 573l-36 46q32 23 83.5 76t79.5 90h44q20 -8 33 -28t13 -42
q0 -32 -27 -56q-21 -19 -79 -44.5t-111 -41.5z" />
    <glyph glyph-name="Oslashacute" unicode="&#x1fe;" horiz-adv-x="747" 
d="M27 372q0 166 93.5 272t261.5 106q118 0 203 -69l47 59h82l-84 -103q91 -108 91 -271q0 -167 -96.5 -271.5t-258.5 -104.5q-119 0 -204 68l-47 -58h-82l83 103q-89 106 -89 269zM538 322q0 100 -22 174l-258 -320q52 -93 148 -93q34 0 67 11q65 78 65 228zM210 414
q0 -101 20 -170l257 318q-49 84 -146 84q-35 0 -80 -20q-51 -78 -51 -212zM299 779l-22 51q43 19 103 58t92 69h42q35 -20 35 -65q0 -42 -37 -63q-24 -14 -89.5 -28.5t-123.5 -21.5z" />
    <glyph glyph-name="oslashacute" unicode="&#x1ff;" horiz-adv-x="558" 
d="M23 266q0 124 72.5 195t190.5 71q85 0 148 -46l30 37h71l-62 -74q62 -76 62 -193q0 -124 -72.5 -195t-189.5 -71q-83 0 -145 43l-28 -33h-70l58 70q-65 76 -65 196zM374 211q0 63 -10 107l-153 -184q31 -66 92 -66q18 0 33 6q38 41 38 137zM255 442q-18 0 -33 -6
q-39 -43 -39 -138q0 -58 9 -103l152 183q-30 64 -89 64zM202 573l-36 46q32 23 83.5 76t79.5 90h44q20 -8 33 -28t13 -42q0 -32 -27 -56q-21 -19 -79 -44.5t-111 -41.5z" />
    <glyph glyph-name="Scommaaccent" unicode="&#x218;" horiz-adv-x="575" 
d="M37 57l-1 173h110l22 -104q68 -43 149 -43q16 0 24 1q46 36 46 89q0 35 -19.5 60t-50.5 40.5t-69 29.5t-76 30.5t-69 38.5t-50.5 60.5t-19.5 89.5q0 92 77.5 159.5t204.5 67.5q99 0 201 -51v-195h-109l-35 124q-56 24 -108 24q-13 0 -20 -1q-49 -34 -49 -87
q0 -30 19.5 -52.5t50.5 -37.5t68 -29t74.5 -32t68.5 -41t50.5 -62t19.5 -89q0 -100 -80.5 -165t-203.5 -65q-56 0 -118.5 17.5t-106.5 49.5zM322 -29q26 -31 26 -74q0 -75 -82 -128l-51 28q25 33 25 73q0 38 -25 66q52 35 107 35z" />
    <glyph glyph-name="scommaaccent" unicode="&#x219;" horiz-adv-x="470" 
d="M442 162q0 -80 -61 -126t-160 -46q-44 0 -92.5 12.5t-82.5 35.5l-9 125h98l26 -75q51 -23 116 -23q26 24 26 60q0 28 -28 46t-67.5 30t-79.5 27t-67.5 49t-27.5 85q0 69 60 119.5t161 50.5q79 0 161 -37v-132h-98l-28 72q-37 14 -72 14q-13 0 -20 -1q-24 -20 -24 -48
q0 -27 27.5 -45.5t67.5 -31t79.5 -28.5t67 -49.5t27.5 -83.5zM280 -29q26 -31 26 -74q0 -75 -82 -128l-51 28q25 33 25 73q0 38 -25 66q52 35 107 35z" />
    <glyph glyph-name="uni021A" unicode="&#x21a;" horiz-adv-x="674" 
d="M248 93v547h-96l-35 -138h-102v238h645v-238h-103l-31 138h-104v-547q34 -18 83 -25v-68h-340v68q49 7 83 25zM379 -29q26 -31 26 -74q0 -75 -82 -128l-51 28q25 33 25 73q0 38 -25 66q52 35 107 35z" />
    <glyph glyph-name="uni021B" unicode="&#x21b;" horiz-adv-x="361" 
d="M332 423h-97v-284q0 -61 51 -61q19 0 39 11l16 -64q-50 -36 -115 -36q-71 0 -109 41t-38 113v280h-70v93h70v117l156 36v-153h97v-93zM253 -29q26 -31 26 -74q0 -75 -82 -128l-51 28q25 33 25 73q0 38 -25 66q52 35 107 35z" />
    <glyph glyph-name="uni0237" unicode="&#x237;" horiz-adv-x="326" 
d="M264 321v-301q0 -83 -67.5 -146.5t-192.5 -69.5l-9 74q60 14 87 47.5t27 94.5v301q0 74 -4 102l-86 12v79l241 15q4 -110 4 -208z" />
    <glyph glyph-name="uni0259" unicode="&#x259;" horiz-adv-x="514" 
d="M73 365l-48 45q29 53 85 87t130 34q120 0 185.5 -75t65.5 -195q0 -109 -66.5 -190.5t-175.5 -81.5q-98 0 -158.5 66t-61.5 169q15 28 39 51h261q-10 78 -48.5 114.5t-82.5 36.5q-69 0 -125 -61zM284 73q42 46 47 129q-168 -2 -168 -7q0 -53 27.5 -88t77.5 -35q11 0 16 1z
" />
    <glyph glyph-name="uni02B9" unicode="&#x2b9;" horiz-adv-x="173" 
d="M49 547h-54l61 249q28 11 57 11q57 0 57 -42q0 -74 -121 -218z" />
    <glyph glyph-name="uni02BA" unicode="&#x2ba;" horiz-adv-x="344" 
d="M49 547h-54l61 249q28 11 57 11q57 0 57 -42q0 -74 -121 -218zM220 547h-54l61 249q27 11 57 11q57 0 57 -42q0 -74 -121 -218z" />
    <glyph glyph-name="uni02BB" unicode="&#x2bb;" horiz-adv-x="241" 
d="M211 581q0 -30 -23.5 -55t-62.5 -25q-45 0 -70 29t-25 77q0 59 35.5 119.5t88.5 94.5l42 -37q-38 -38 -57 -98q6 -6 22.5 -19.5t25 -22t16.5 -25.5t8 -38z" />
    <glyph glyph-name="afii57929" unicode="&#x2bc;" horiz-adv-x="241" 
d="M30 720q0 30 23.5 54.5t63.5 24.5q45 0 69.5 -28.5t24.5 -76.5q0 -60 -35 -120.5t-88 -94.5l-43 37q40 40 57 99q-5 5 -22.5 18.5t-25.5 22t-16 26t-8 38.5z" />
    <glyph glyph-name="circumflex" unicode="&#x2c6;" horiz-adv-x="268" 
d="M3 581l-37 45q107 97 140 160h56q32 -65 140 -160l-38 -45l-131 87z" />
    <glyph glyph-name="caron" unicode="&#x2c7;" horiz-adv-x="268" 
d="M-34 743l37 46l130 -87l131 87l38 -46q-106 -91 -140 -159h-56q-35 66 -140 159z" />
    <glyph glyph-name="uni02C9" unicode="&#x2c9;" horiz-adv-x="268" 
d="M-21 648v92h309v-92h-309z" />
    <glyph glyph-name="breve" unicode="&#x2d8;" horiz-adv-x="268" 
d="M134 603q-72 0 -113.5 46t-41.5 136h57q2 -50 25 -68.5t72 -18.5q50 0 73.5 18.5t26.5 68.5h56q0 -90 -41.5 -136t-113.5 -46z" />
    <glyph glyph-name="dotaccent" unicode="&#x2d9;" horiz-adv-x="268" 
d="M223 707q0 -38 -25.5 -64.5t-62.5 -26.5t-63.5 26.5t-26.5 64.5q0 37 26.5 63.5t63.5 26.5t62.5 -26t25.5 -64z" />
    <glyph glyph-name="ring" unicode="&#x2da;" horiz-adv-x="268" 
d="M13 689q0 50 35.5 85.5t85.5 35.5t85.5 -35.5t35.5 -85.5t-35.5 -85t-85.5 -35t-85.5 35t-35.5 85zM78 689q0 -24 16.5 -41.5t40.5 -17.5t40.5 17.5t16.5 41.5t-16.5 41t-40.5 17t-40.5 -17t-16.5 -41z" />
    <glyph glyph-name="ogonek" unicode="&#x2db;" horiz-adv-x="296" 
d="M184 33l18 -30q-23 -7 -40.5 -28.5t-17.5 -38.5q0 -46 49 -46q19 0 38 5.5t24 9.5l20 -51q-51 -47 -128 -47q-53 0 -84.5 25.5t-31.5 59.5q0 24 10.5 43.5t36 37.5t45.5 29t61 31z" />
    <glyph glyph-name="tilde" unicode="&#x2dc;" horiz-adv-x="268" 
d="M191 609q-26 0 -48.5 14t-44.5 35t-36 29q-25 -27 -25 -71h-58q1 76 28 116t71 40q26 0 48.5 -14t44.5 -35t37 -29q24 26 24 71h57q0 -76 -27 -116t-71 -40z" />
    <glyph glyph-name="hungarumlaut" unicode="&#x2dd;" horiz-adv-x="268" 
d="M-36 574l-36 46q98 66 144 166h46q19 -8 30.5 -26.5t11.5 -40.5q0 -33 -26 -58q-20 -20 -69 -45t-101 -42zM169 574l-35 46q100 68 145 166h47q18 -8 29 -26t11 -39q0 -34 -27 -60q-20 -20 -69 -45t-101 -42z" />
    <glyph glyph-name="gravecomb" unicode="&#x300;" horiz-adv-x="0" 
d="M-32 618l-33 -46q-162 70 -205 100q-7 15 -7 34q0 34 20.5 59t59.5 25q7 0 11 -1q75 -101 154 -171z" />
    <glyph glyph-name="acutecomb" unicode="&#x301;" horiz-adv-x="0" 
d="M-225 574l-36 46q32 23 83.5 76t79.5 90h44q20 -8 33 -28t13 -42q0 -32 -27 -56q-21 -19 -79 -44.5t-111 -41.5z" />
    <glyph glyph-name="uni0302" unicode="&#x302;" horiz-adv-x="0" 
d="M-266 581l-37 45q107 97 140 160h56q32 -65 140 -160l-38 -45l-131 87z" />
    <glyph glyph-name="tildecomb" unicode="&#x303;" horiz-adv-x="0" 
d="M-77 609q-26 0 -48.5 14t-44.5 35t-36 29q-25 -27 -25 -71h-58q1 76 28 116t71 40q26 0 48.5 -14t44.5 -35t37 -29q24 26 24 71h57q0 -76 -27 -116t-71 -40z" />
    <glyph glyph-name="uni0304" unicode="&#x304;" horiz-adv-x="0" 
d="M-289 648v92h309v-92h-309z" />
    <glyph glyph-name="uni0305" unicode="&#x305;" horiz-adv-x="0" 
d="M0 770v76h540v-76h-540z" />
    <glyph glyph-name="uni0306" unicode="&#x306;" horiz-adv-x="0" 
d="M-134 603q-72 0 -113.5 46t-41.5 136h57q2 -50 25 -68.5t72 -18.5q50 0 73.5 18.5t26.5 68.5h56q0 -90 -41.5 -136t-113.5 -46z" />
    <glyph glyph-name="uni0307" unicode="&#x307;" horiz-adv-x="0" 
d="M-45 707q0 -38 -25.5 -64.5t-62.5 -26.5t-63.5 26.5t-26.5 64.5q0 37 26.5 63.5t63.5 26.5t62.5 -26t25.5 -64z" />
    <glyph glyph-name="uni0308" unicode="&#x308;" horiz-adv-x="0" 
d="M-155 693q0 -34 -23 -57.5t-56 -23.5t-56.5 23.5t-23.5 57.5q0 33 23.5 56.5t56.5 23.5t56 -23.5t23 -56.5zM46 693q0 -34 -23 -57.5t-55 -23.5q-34 0 -57 23.5t-23 57.5q0 33 23 56.5t57 23.5q32 0 55 -23.5t23 -56.5z" />
    <glyph glyph-name="uni030A" unicode="&#x30a;" horiz-adv-x="0" 
d="M-255 689q0 50 35.5 85.5t85.5 35.5t85.5 -35.5t35.5 -85.5t-35.5 -85t-85.5 -35t-85.5 35t-35.5 85zM-190 689q0 -24 16.5 -41.5t40.5 -17.5t40.5 17.5t16.5 41.5t-16.5 41t-40.5 17t-40.5 -17t-16.5 -41z" />
    <glyph glyph-name="uni030B" unicode="&#x30b;" horiz-adv-x="0" 
d="M-304 574l-36 46q98 66 144 166h46q19 -8 30.5 -26.5t11.5 -40.5q0 -33 -26 -58q-20 -20 -69 -45t-101 -42zM-99 574l-35 46q100 68 145 166h47q18 -8 29 -26t11 -39q0 -34 -27 -60q-20 -20 -69 -45t-101 -42z" />
    <glyph glyph-name="uni030C" unicode="&#x30c;" horiz-adv-x="0" 
d="M-302 743l37 46l130 -87l131 87l38 -46q-106 -91 -140 -159h-56q-35 66 -140 159z" />
    <glyph glyph-name="uni0312" unicode="&#x312;" horiz-adv-x="0" 
d="M-168 580q-27 30 -27 73q0 75 83 129l50 -29q-25 -35 -25 -73q0 -37 25 -66q-50 -34 -106 -34z" />
    <glyph glyph-name="uni031B" unicode="&#x31b;" horiz-adv-x="1" 
d="M-106 379l-28 53q18 -6 35 -6q33 0 54 22.5t21 66.5q0 17 -5 45h105q7 -21 7 -46q0 -66 -38 -104t-100 -38q-19 0 -51 7z" />
    <glyph glyph-name="uni0326" unicode="&#x326;" horiz-adv-x="0" 
d="M-86 -29q26 -31 26 -74q0 -75 -82 -128l-51 28q25 33 25 73q0 38 -25 66q52 35 107 35z" />
    <glyph glyph-name="uni0327" unicode="&#x327;" horiz-adv-x="0" 
d="M-223 34l58 -2l-14 -62q68 -3 93 -21.5t25 -47.5q0 -42 -41.5 -68t-123.5 -26q-26 0 -57 3l11 44h11q100 0 100 26q0 6 -9.5 11t-31 9t-51.5 4z" />
    <glyph glyph-name="uni0328" unicode="&#x328;" horiz-adv-x="0" 
d="M-112 33l18 -30q-23 -7 -40.5 -28.5t-17.5 -38.5q0 -46 49 -46q19 0 38 5.5t24 9.5l20 -51q-51 -47 -128 -47q-53 0 -84.5 25.5t-31.5 59.5q0 24 10.5 43.5t36 37.5t45.5 29t61 31z" />
    <glyph glyph-name="uni0394" unicode="&#x394;" horiz-adv-x="697" 
d="M682 34v-34h-666v34l252 701l162 13zM309 592l-175 -506h351z" />
    <glyph glyph-name="uni03A9" unicode="&#x3a9;" horiz-adv-x="725" 
d="M339 245v-245h-297l-14 212h95l43 -90h101v68q-112 58 -170 126t-58 169q0 107 88.5 186t235.5 79q146 0 234.5 -79t88.5 -186q0 -101 -58 -169t-169 -126v-68h100l43 90h94l-13 -212h-297v245q60 42 92 96.5t32 135.5q0 71 -38.5 124t-109.5 60q-71 -7 -109 -60
t-38 -124q0 -81 32 -135.5t92 -96.5z" />
    <glyph glyph-name="uni03BC" unicode="&#x3bc;" horiz-adv-x="644" 
d="M556 321v-198q0 -47 41 -47q13 0 20 4l7 -61q-34 -27 -95 -27q-92 0 -120 73q-53 -65 -117 -65q-62 0 -90 52q4 -126 35 -226l-87 -13q-68 55 -68 155q0 19 3 93.5t3 130.5v129q0 83 -4 102l-85 12v79l241 15q4 -110 4 -208v-122q0 -53 20 -73t56 -20q38 0 80 28v187
q0 83 -4 102l-85 12v79l241 15q4 -110 4 -208z" />
    <glyph glyph-name="pi" unicode="&#x3c0;" horiz-adv-x="648" 
d="M225 532q33 0 123 -9.5t135 -9.5q76 0 117 22l27 -19l-11 -36q-16 -43 -40 -68t-63 -29v-260q0 -46 31 -46q27 0 49 27l34 -41q-32 -38 -64 -54.5t-79 -16.5q-58 0 -92 39t-34 94v266q-6 0 -46 4t-60 5q-3 -203 -41.5 -306.5t-121.5 -103.5q-35 0 -70 24v101q53 0 111 10
q40 121 44 276q-75 -5 -111 -32l-35 28q22 59 71 97t126 38z" />
    <glyph glyph-name="uni0400" unicode="&#x400;" horiz-adv-x="648" 
d="M105 93v548q-35 18 -83 25v74h581l6 -237h-109l-45 139h-176v-208h192v-105h-192v-234h181l59 137h107l-13 -232h-591v68q49 7 83 25zM461 835l-20 -56q-164 26 -230 52q-22 25 -22 55q0 54 54 72h33q111 -83 185 -123z" />
    <glyph glyph-name="afii10023" unicode="&#x401;" horiz-adv-x="648" 
d="M105 93v548q-35 18 -83 25v74h581l6 -237h-109l-45 139h-176v-208h192v-105h-192v-234h181l59 137h107l-13 -232h-591v68q49 7 83 25zM300 864q0 -31 -21.5 -53t-52.5 -22q-32 0 -54 22t-22 53t22 52.5t54 21.5q31 0 52.5 -21.5t21.5 -52.5zM510 864q0 -31 -22 -53
t-53 -22t-52.5 22t-21.5 53t21.5 52.5t52.5 21.5t53 -21.5t22 -52.5z" />
    <glyph glyph-name="afii10051" unicode="&#x402;" horiz-adv-x="816" 
d="M248 93v547h-96l-35 -138h-102v238h645v-238h-103l-31 138h-104v-244q72 42 141 42q113 0 172 -65t59 -172q0 -119 -75.5 -216t-218.5 -168l-44 61q160 123 160 309q0 72 -29.5 108.5t-94.5 36.5q-39 0 -70 -16v-223q34 -18 83 -25v-68h-340v68q49 7 83 25z" />
    <glyph glyph-name="afii10052" unicode="&#x403;" horiz-adv-x="610" 
d="M105 93v548q-35 18 -82 25v74h568l6 -237h-108l-46 139h-164v-549q34 -18 83 -25v-68h-340v68q49 7 83 25zM210 779l-22 51q43 19 103 58t92 69h42q35 -20 35 -65q0 -42 -37 -63q-24 -14 -89.5 -28.5t-123.5 -21.5z" />
    <glyph glyph-name="afii10053" unicode="&#x404;" horiz-adv-x="654" 
d="M581 198l55 -39q-40 -74 -112 -121.5t-162 -47.5q-152 0 -244 100.5t-92 262.5q0 170 98.5 283t257.5 113q110 0 223 -42v-203h-108l-34 122q-56 23 -120 23q-28 0 -52 -4q-67 -83 -74 -214h250v-102h-248q12 -113 63.5 -168.5t130.5 -55.5q55 0 94.5 23.5t73.5 69.5z
" />
    <glyph glyph-name="afii10054" unicode="&#x405;" horiz-adv-x="575" 
d="M37 57l-1 173h110l22 -104q68 -43 149 -43q16 0 24 1q46 36 46 89q0 35 -19.5 60t-50.5 40.5t-69 29.5t-76 30.5t-69 38.5t-50.5 60.5t-19.5 89.5q0 92 77.5 159.5t204.5 67.5q99 0 201 -51v-195h-109l-35 124q-56 24 -108 24q-13 0 -20 -1q-49 -34 -49 -87
q0 -30 19.5 -52.5t50.5 -37.5t68 -29t74.5 -32t68.5 -41t50.5 -62t19.5 -89q0 -100 -80.5 -165t-203.5 -65q-56 0 -118.5 17.5t-106.5 49.5z" />
    <glyph glyph-name="afii10055" unicode="&#x406;" horiz-adv-x="397" 
d="M285 642v-554q34 -18 83 -25v-63h-340v63q48 7 83 24v555q-33 18 -83 25v73h340v-73q-49 -7 -83 -25z" />
    <glyph glyph-name="afii10056" unicode="&#x407;" horiz-adv-x="397" 
d="M285 642v-554q34 -18 83 -25v-63h-340v63q48 7 83 24v555q-33 18 -83 25v73h340v-73q-49 -7 -83 -25zM170 864q0 -31 -21.5 -53t-52.5 -22q-32 0 -54 22t-22 53t22 52.5t54 21.5q31 0 52.5 -21.5t21.5 -52.5zM380 864q0 -31 -22 -53t-53 -22t-52.5 22t-21.5 53t21.5 52.5
t52.5 21.5t53 -21.5t22 -52.5z" />
    <glyph glyph-name="afii10057" unicode="&#x408;" horiz-adv-x="393" 
d="M288 641v-550q0 -114 -81.5 -192.5t-219.5 -91.5l-18 75q77 25 111 74.5t34 134.5v550q-34 18 -83 25v74h340v-74q-51 -8 -83 -25z" />
    <glyph glyph-name="afii10058" unicode="&#x409;" horiz-adv-x="1007" 
d="M649 641v-211h57q142 0 212.5 -56.5t70.5 -151.5q0 -108 -86 -165t-216 -57h-295v70q52 8 83 25v546h-128l-11 -180q-14 -229 -72.5 -350.5t-158.5 -121.5q-56 0 -90 27v110q83 0 140 18q47 117 59 323l11 174q-36 18 -83 25v74h590v-74q-49 -7 -83 -25zM700 337h-51
v-242h32q59 0 99 17q31 45 31 102q0 59 -28.5 91t-82.5 32z" />
    <glyph glyph-name="afii10059" unicode="&#x40a;" horiz-adv-x="1044" 
d="M686 641v-211h57q143 0 213.5 -56.5t70.5 -151.5q0 -108 -86.5 -165t-216.5 -57h-290v68q41 6 79 25v244h-234v-244q36 -19 77 -25v-68h-334v68q49 7 83 25v548q-34 18 -83 25v74h335v-74q-42 -6 -78 -25v-211h234v211q-38 19 -78 25v74h334v-74q-48 -7 -83 -25zM737 337
h-51v-242h32q60 0 100 17q30 44 30 102q0 59 -28.5 91t-82.5 32z" />
    <glyph glyph-name="afii10060" unicode="&#x40b;" horiz-adv-x="857" 
d="M592 94v169q0 46 -17 67t-56 21q-51 0 -97 -35v-222q38 -21 67 -26v-68h-324v68q48 7 83 26v545h-96l-35 -137h-102v238h645v-238h-103l-31 137h-104v-247q76 64 162 64q90 0 136 -50.5t46 -142.5v-169q37 -19 83 -26v-68h-323v68q30 5 66 26z" />
    <glyph glyph-name="afii10061" unicode="&#x40c;" horiz-adv-x="801" 
d="M546 0l-157 301q-7 14 -22 29q-24 6 -53 6h-35v-243q35 -18 82 -25v-68h-339v68q49 7 83 25v548q-34 18 -83 25v74h339v-74q-47 -7 -82 -25v-217l52 5q34 16 59 58l73 125q22 38 36.5 58t36.5 40.5t48.5 29t62.5 8.5q53 0 101 -23v-96q-87 0 -154 -9q-12 -16 -24 -36
l-68 -120q-21 -37 -52 -57q39 -6 68.5 -27t44.5 -49l126 -231q43 -23 102 -32v-68h-245zM286 779l-22 51q43 19 103 58t92 69h42q35 -20 35 -65q0 -42 -37 -63q-24 -14 -89.5 -28.5t-123.5 -21.5z" />
    <glyph glyph-name="uni040D" unicode="&#x40d;" horiz-adv-x="792" 
d="M513 93v366l-234 -311v-55q36 -19 77 -25v-68h-334v68q49 7 83 25v548q-34 18 -83 25v74h335v-74q-42 -6 -78 -25v-362l234 311v51q-38 19 -78 25v74h334v-74q-48 -7 -83 -25v-548q36 -18 83 -25v-68h-335v68q41 6 79 25zM537 835l-20 -56q-164 26 -230 52q-22 25 -22 55
q0 54 54 72h33q111 -83 185 -123z" />
    <glyph glyph-name="afii10062" unicode="&#x40e;" horiz-adv-x="726" 
d="M644 641l-213 -500q-35 -83 -82.5 -116.5t-114.5 -33.5q-55 0 -97 34v88q78 0 157 9q12 16 20 34l10 23l-242 462q-37 19 -83 26v73h358v-73q-47 -7 -84 -26l134 -275l111 275q-37 19 -83 26v73h292v-73q-46 -7 -83 -26zM319 941q2 -54 22 -87q22 -9 55 -9q32 0 53 9
q21 32 24 87h104q0 -83 -49.5 -120t-131.5 -37q-83 0 -132 37t-49 120h104z" />
    <glyph glyph-name="afii10145" unicode="&#x40f;" horiz-adv-x="792" 
d="M105 93v548q-34 18 -83 25v74h335v-74q-42 -6 -78 -25v-546h234v546q-38 19 -78 25v74h334v-74q-48 -7 -83 -25v-548q36 -18 83 -25v-68h-146q-87 0 -125 -8q-26 -64 -43 -207h-80q-17 143 -42 207q-39 8 -107 8h-204v68q49 7 83 25z" />
    <glyph glyph-name="afii10017" unicode="&#x410;" horiz-adv-x="824" 
d="M90 93l227 647h192l225 -647q36 -18 84 -25v-68h-353v68q49 7 83 25l-42 130h-251l-43 -130q35 -18 82 -25v-68h-288v68q48 7 84 25zM382 609l-96 -291h189z" />
    <glyph glyph-name="afii10018" unicode="&#x411;" horiz-adv-x="647" 
d="M105 93v548q-35 18 -83 25v74h559l6 -237h-108l-45 139h-155v-212h64q142 0 212.5 -56.5t70.5 -151.5q0 -108 -86 -165t-216 -57h-302v68q49 7 83 25zM337 337h-58v-242h39q59 0 99 17q32 45 32 102q0 59 -29 91t-83 32z" />
    <glyph glyph-name="afii10019" unicode="&#x412;" horiz-adv-x="666" 
d="M105 93v548q-35 18 -83 25v74h306q136 0 206.5 -49.5t70.5 -129.5q0 -107 -108 -163q65 -19 105 -66.5t40 -109.5q0 -108 -86.5 -165t-216.5 -57h-317v68q49 7 83 25zM353 337h-74v-243h54q60 0 100 18q31 45 31 102q0 59 -29 91t-82 32zM321 642h-42v-228l114 11
q50 42 50 116q0 49 -32 75t-90 26z" />
    <glyph glyph-name="afii10020" unicode="&#x413;" horiz-adv-x="610" 
d="M105 93v548q-35 18 -82 25v74h568l6 -237h-108l-46 139h-164v-549q34 -18 83 -25v-68h-340v68q49 7 83 25z" />
    <glyph glyph-name="afii10021" unicode="&#x414;" horiz-adv-x="763" 
d="M33 68q43 6 75 19q94 146 107 378l10 176q-36 18 -83 25v74h590v-74q-49 -7 -83 -25v-545h93l-11 -311h-88q-17 129 -47 196q-48 19 -119 19h-181q-68 0 -120 -20q-38 -77 -55 -195h-88v283zM337 476q-13 -250 -85 -380h223v545h-128z" />
    <glyph glyph-name="afii10022" unicode="&#x415;" horiz-adv-x="648" 
d="M105 93v548q-35 18 -83 25v74h581l6 -237h-109l-45 139h-176v-208h192v-105h-192v-234h181l59 137h107l-13 -232h-591v68q49 7 83 25z" />
    <glyph glyph-name="afii10024" unicode="&#x416;" horiz-adv-x="1168" 
d="M284 465l-53 119q-9 20 -21 36q-67 9 -157 9v96q48 23 101 23q71 0 112 -32t72 -104l53 -125q17 -40 51 -56l62 -7v217q-36 18 -84 25v74h327v-73q-47 -7 -82 -25v-218l61 7q34 16 51 56l53 125q31 72 71.5 104t112.5 32q53 0 101 -23v-96q-90 0 -157 -9q-12 -16 -21 -36
l-53 -119q-17 -39 -46 -57q74 -12 110 -86l108 -222q45 -23 103 -32v-68h-245l-138 301q-6 13 -19 28q-30 7 -54 7h-38v-241q32 -18 81 -25v-70h-326v70q51 7 84 25v241h-38q-24 0 -54 -7q-15 -17 -20 -28l-138 -301h-245v68q58 9 103 32l109 222q38 77 109 86
q-31 21 -46 57z" />
    <glyph glyph-name="afii10025" unicode="&#x417;" horiz-adv-x="606" 
d="M176 443q33 -12 84 -18q58 10 88 44.5t30 88.5q0 100 -108 100q-38 0 -76 -14l-30 -121h-118v156q108 72 239 72q129 0 201 -50.5t72 -131.5q0 -52 -39 -95.5t-120 -71.5q94 -21 139 -71.5t45 -113.5q0 -111 -86.5 -168.5t-234.5 -57.5q-129 0 -225 56v177h117l46 -147
q28 -7 63 -7q62 0 95 36t33 101q0 64 -28.5 97.5t-100.5 41.5q-46 -7 -86 -20q-10 23 -10 62q0 36 10 55z" />
    <glyph glyph-name="afii10026" unicode="&#x418;" horiz-adv-x="792" 
d="M513 93v366l-234 -311v-55q36 -19 77 -25v-68h-334v68q49 7 83 25v548q-34 18 -83 25v74h335v-74q-42 -6 -78 -25v-362l234 311v51q-38 19 -78 25v74h334v-74q-48 -7 -83 -25v-548q36 -18 83 -25v-68h-335v68q41 6 79 25z" />
    <glyph glyph-name="afii10027" unicode="&#x419;" horiz-adv-x="792" 
d="M513 93v366l-234 -311v-55q36 -19 77 -25v-68h-334v68q49 7 83 25v548q-34 18 -83 25v74h335v-74q-42 -6 -78 -25v-362l234 311v51q-38 19 -78 25v74h334v-74q-48 -7 -83 -25v-548q36 -18 83 -25v-68h-335v68q41 6 79 25zM319 941q2 -54 22 -87q22 -9 55 -9q32 0 53 9
q21 32 24 87h104q0 -83 -49.5 -120t-131.5 -37q-83 0 -132 37t-49 120h104z" />
    <glyph glyph-name="afii10028" unicode="&#x41a;" horiz-adv-x="801" 
d="M546 0l-157 301q-7 14 -22 29q-24 6 -53 6h-35v-243q35 -18 82 -25v-68h-339v68q49 7 83 25v548q-34 18 -83 25v74h339v-74q-47 -7 -82 -25v-217l52 5q34 16 59 58l73 125q22 38 36.5 58t36.5 40.5t48.5 29t62.5 8.5q53 0 101 -23v-96q-87 0 -154 -9q-12 -16 -24 -36
l-68 -120q-21 -37 -52 -57q39 -6 68.5 -27t44.5 -49l126 -231q43 -23 102 -32v-68h-245z" />
    <glyph glyph-name="afii10029" unicode="&#x41b;" horiz-adv-x="754" 
d="M105 -11q-56 0 -90 27v110q83 0 140 18q47 117 59 323l11 174q-36 18 -83 25v74h590v-74q-49 -7 -83 -25v-548q34 -18 83 -25v-68h-340v68q49 7 83 25v548h-128l-11 -180q-14 -229 -72.5 -350.5t-158.5 -121.5z" />
    <glyph glyph-name="afii10030" unicode="&#x41c;" horiz-adv-x="1010" 
d="M447 -1l-222 511v-417q34 -18 82 -25v-68h-286v68q50 7 84 25v551q-43 16 -89 22v74h283l215 -511l210 511h269v-74q-44 -6 -88 -20v-553q34 -18 82 -25v-68h-326v68q38 6 78 24v418l-218 -511h-74z" />
    <glyph glyph-name="afii10031" unicode="&#x41d;" horiz-adv-x="792" 
d="M513 93v238h-234v-238q36 -19 77 -25v-68h-334v68q49 7 83 25v548q-34 18 -83 25v74h335v-74q-42 -6 -78 -25v-208h234v208q-38 19 -78 25v74h334v-74q-48 -7 -83 -25v-548q36 -18 83 -25v-68h-335v68q43 6 79 25z" />
    <glyph glyph-name="afii10032" unicode="&#x41e;" horiz-adv-x="747" 
d="M27 372q0 166 93.5 272t261.5 106q153 0 246 -110.5t93 -273.5q0 -167 -96.5 -271.5t-258.5 -104.5q-155 0 -247 109.5t-92 272.5zM210 414q0 -169 55 -250t141 -81q34 0 67 11q65 78 65 228q0 159 -51.5 241.5t-145.5 82.5q-35 0 -80 -20q-51 -78 -51 -212z" />
    <glyph glyph-name="afii10033" unicode="&#x41f;" horiz-adv-x="792" 
d="M513 93v545h-234v-545q36 -19 77 -25v-68h-334v68q49 7 83 25v548q-34 18 -83 25v74h747v-74q-48 -7 -83 -25v-548q36 -18 83 -25v-68h-335v68q41 6 79 25z" />
    <glyph glyph-name="afii10034" unicode="&#x420;" horiz-adv-x="654" 
d="M105 93v548q-35 18 -82 25v74h299q153 0 230 -57t77 -167q0 -93 -68 -164.5t-190 -71.5q-46 0 -92 10v-197q34 -18 83 -25v-68h-340v68q49 7 83 25zM315 645h-36v-271q22 -7 50 -7q52 0 97 25q30 51 30 119q0 70 -32.5 102t-108.5 32z" />
    <glyph glyph-name="afii10035" unicode="&#x421;" horiz-adv-x="638" 
d="M566 200l56 -38q-37 -75 -108 -123.5t-159 -48.5q-149 0 -239 100.5t-90 262.5q0 170 96 283.5t251 113.5q106 0 215 -42v-204h-108l-31 122q-54 22 -111 22q-30 0 -51 -5q-74 -82 -74 -248q0 -146 53 -218.5t140 -72.5q94 0 160 96z" />
    <glyph glyph-name="afii10036" unicode="&#x422;" horiz-adv-x="674" 
d="M248 93v547h-96l-35 -138h-102v238h645v-238h-103l-31 138h-104v-547q34 -18 83 -25v-68h-340v68q49 7 83 25z" />
    <glyph glyph-name="afii10037" unicode="&#x423;" horiz-adv-x="726" 
d="M644 641l-213 -500q-35 -83 -82.5 -116.5t-114.5 -33.5q-55 0 -97 34v88q78 0 157 9q12 16 20 34l10 23l-242 462q-37 19 -83 26v73h358v-73q-47 -7 -84 -26l134 -275l111 275q-37 19 -83 26v73h292v-73q-46 -7 -83 -26z" />
    <glyph glyph-name="afii10038" unicode="&#x424;" horiz-adv-x="887" 
d="M529 686v-39q166 -1 246.5 -68.5t80.5 -180.5q0 -124 -92.5 -192.5t-234.5 -73.5v-39q35 -18 83 -25v-68h-340v68q49 7 83 25v39q-159 0 -246 71.5t-87 183.5q0 126 91 191.5t242 68.5v39q-29 15 -83 25v63h340v-63q-54 -10 -83 -25zM195 391q0 -82 40.5 -125.5
t119.5 -43.5h7v332q-75 -2 -128 -38q-39 -51 -39 -125zM683 390q0 164 -161 164v-332q71 3 119 38q42 51 42 130z" />
    <glyph glyph-name="afii10039" unicode="&#x425;" horiz-adv-x="781" 
d="M307 643l107 -172l114 172q-35 18 -72 24v73h300v-73q-62 -9 -94 -26l-181 -247l200 -300q34 -17 89 -25v-69h-367v69q44 6 78 24l-117 188l-130 -188q34 -18 77 -24v-69h-300v69q56 8 88 25l193 268l-185 279q-36 18 -89 26v73h367v-73q-45 -7 -78 -24z" />
    <glyph glyph-name="afii10040" unicode="&#x426;" horiz-adv-x="792" 
d="M105 93v548q-34 18 -83 25v74h335v-74q-42 -6 -78 -25v-546h234v546q-38 19 -78 25v74h334v-74q-48 -7 -83 -25v-545h92l-10 -311h-89q-15 123 -47 196q-47 19 -118 19h-492v68q49 7 83 25z" />
    <glyph glyph-name="afii10041" unicode="&#x427;" horiz-adv-x="752" 
d="M307 277q-96 0 -151 48.5t-55 139.5v176q-34 18 -83 25v74h323v-74q-28 -3 -67 -25v-176q0 -49 22 -70t66 -21q55 0 112 20v247q-41 22 -68 25v74h324v-74q-49 -7 -82 -25v-548q33 -18 82 -25v-68h-335v68q43 6 79 25v231q-80 -47 -167 -47z" />
    <glyph glyph-name="afii10042" unicode="&#x428;" horiz-adv-x="1124" 
d="M105 93v548q-34 18 -83 25v74h322v-74q-36 -9 -65 -25v-546h194v546q-30 19 -65 25v74h308v-74q-35 -5 -70 -25v-546h200v546q-33 20 -65 25v74h321v-74q-50 -8 -83 -25v-548q34 -18 83 -25v-68h-1080v68q49 7 83 25z" />
    <glyph glyph-name="afii10043" unicode="&#x429;" horiz-adv-x="1124" 
d="M105 93v548q-34 18 -83 25v74h322v-74q-36 -9 -65 -25v-546h194v546q-30 19 -65 25v74h308v-74q-35 -5 -70 -25v-546h200v546q-33 20 -65 25v74h321v-74q-50 -8 -83 -25v-545h92l-10 -311h-89q-15 123 -47 196q-47 19 -118 19h-825v68q49 7 83 25z" />
    <glyph glyph-name="afii10044" unicode="&#x42a;" horiz-adv-x="781" 
d="M15 740h486v-74q-42 -6 -78 -25v-211h57q142 0 212.5 -56.5t70.5 -151.5q0 -108 -86 -165t-216 -57h-295v68q50 7 84 25v561h-95l-37 -152h-103v238zM474 337h-51v-247h32q55 0 95 15q36 47 36 109q0 59 -29 91t-83 32z" />
    <glyph glyph-name="afii10045" unicode="&#x42b;" horiz-adv-x="1013" 
d="M279 641v-211h57q142 0 212.5 -56.5t70.5 -151.5q0 -108 -86 -165t-216 -57h-295v68q49 7 83 25v548q-34 18 -83 25v74h335v-74q-42 -6 -78 -25zM330 337h-51v-247h31q55 0 95 15q36 47 36 109q0 59 -28.5 91t-82.5 32zM899 642v-554q34 -18 83 -25v-63h-340v63
q48 7 83 24v555q-33 18 -83 25v73h340v-73q-49 -7 -83 -25z" />
    <glyph glyph-name="afii10046" unicode="&#x42c;" horiz-adv-x="636" 
d="M279 641v-211h57q142 0 212.5 -56.5t70.5 -151.5q0 -108 -86 -165t-216 -57h-295v68q49 7 83 25v548q-34 18 -83 25v74h335v-74q-42 -6 -78 -25zM330 337h-51v-247h31q55 0 95 15q36 47 36 109q0 59 -28.5 91t-82.5 32z" />
    <glyph glyph-name="afii10047" unicode="&#x42d;" horiz-adv-x="663" 
d="M285 750q168 0 259.5 -106t91.5 -264q0 -183 -97 -286.5t-237 -103.5q-190 0 -275 169l70 47q39 -43 91.5 -72t105.5 -29q42 0 69 8q44 33 63 84t21 132h-251v102h248q-12 106 -62.5 164.5t-128.5 58.5q-29 0 -51 -6l-37 -145h-107v204q107 43 227 43z" />
    <glyph glyph-name="afii10048" unicode="&#x42e;" horiz-adv-x="1087" 
d="M270 642v-210h115q16 143 106 231t238 88q149 0 240 -110.5t91 -274.5q0 -167 -94.5 -271.5t-252.5 -104.5q-140 0 -228.5 95.5t-100.5 243.5h-114v-237q34 -18 83 -25v-67h-340v67q49 7 83 25v550q-34 18 -83 25v73h340v-73q-49 -7 -83 -25zM567 415q0 -170 51.5 -251
t131.5 -81q34 0 65 12q60 76 60 227q0 159 -48.5 241.5t-135.5 82.5q-37 0 -77 -21q-47 -76 -47 -210z" />
    <glyph glyph-name="afii10049" unicode="&#x42f;" horiz-adv-x="759" 
d="M115 102l78 165q26 51 71 68q-72 24 -108 71.5t-36 111.5q0 108 91.5 165t230.5 57h295v-73q-49 -7 -83 -25v-548q32 -17 83 -25v-69h-335v69q42 6 78 25v220h-15q-22 0 -49 -5q-23 -17 -37 -47l-123 -262h-245v70q57 8 104 32zM300 520q0 -62 33 -98.5t91 -36.5h56v255
h-33q-68 0 -117 -26q-30 -40 -30 -94z" />
    <glyph glyph-name="afii10065" unicode="&#x430;" horiz-adv-x="528" 
d="M430 -8q-84 0 -116 65q-35 -35 -67.5 -51t-80.5 -16q-66 0 -105 39t-39 98q0 23 4.5 42t21.5 41.5t46 39.5t82 31.5t126 21.5v19q0 72 -18 99t-61 27q-16 0 -24 -1l-28 -96h-110v145q99 36 190 36q106 0 156 -56.5t50 -155.5v-197q0 -47 42 -47q12 0 20 4l7 -61
q-32 -27 -96 -27zM233 88q41 0 69 35v101q-62 -7 -129 -27q-6 -18 -6 -36q0 -73 66 -73z" />
    <glyph glyph-name="afii10066" unicode="&#x431;" horiz-adv-x="563" 
d="M539 256q0 -124 -71.5 -195t-187.5 -71q-113 0 -184 84t-71 245q0 77 13.5 139.5t35 103t53.5 72t63 48t71 29t69.5 17l65 10t52.5 9.5q9 23 9 41h51q19 -31 19 -66q0 -51 -41 -79t-93 -34t-117 -15.5t-96 -25.5q-38 -53 -53 -143q65 86 185 86q103 0 165 -69.5
t62 -185.5zM259 413q-18 0 -33 -6q-38 -41 -38 -138q0 -86 31 -140t88 -54q18 0 33 6q39 39 39 145q0 187 -120 187z" />
    <glyph glyph-name="afii10067" unicode="&#x432;" horiz-adv-x="571" 
d="M103 82v347q-28 15 -76 23v70h268q113 0 169 -34.5t56 -89.5q0 -76 -78 -113q48 -17 77 -50.5t29 -75.5q0 -55 -37 -92.5t-88 -52t-113 -14.5h-283v59q48 8 76 23zM311 228h-51v-141h43q45 0 74 18q13 25 13 50q0 34 -20 53.5t-59 19.5zM302 437h-42v-138l85 7
q31 28 31 70q0 29 -20 45t-54 16z" />
    <glyph glyph-name="afii10068" unicode="&#x433;" horiz-adv-x="531" 
d="M505 522l5 -191h-104l-31 106h-116v-355q32 -16 77 -23v-59h-309v59q48 8 76 23v346q-30 17 -76 22v72h478z" />
    <glyph glyph-name="afii10069" unicode="&#x434;" horiz-adv-x="613" 
d="M9 59q42 8 62 16q37 58 56.5 138.5t28.5 214.5q-32 17 -76 22v72h502v-72q-38 -3 -76 -22v-348h93l-13 -268h-74q-14 123 -37 176q-35 12 -108 12h-127q-70 0 -110 -15q-33 -69 -47 -173h-74v247zM265 431q-16 -228 -76 -351h160v351h-84z" />
    <glyph glyph-name="afii10070" unicode="&#x435;" horiz-adv-x="514" 
d="M442 156l48 -46q-29 -53 -85 -87t-130 -34q-120 0 -186 75.5t-66 195.5q0 109 70.5 190t186.5 81q91 0 148 -65.5t58 -167.5q-16 -30 -40 -52h-261q10 -78 48.5 -114.5t83.5 -36.5q71 0 125 61zM230 448q-42 -46 -47 -129q169 2 169 7q0 58 -27.5 90.5t-76.5 32.5
q-12 0 -18 -1z" />
    <glyph glyph-name="afii10072" unicode="&#x436;" horiz-adv-x="942" 
d="M717 0l-93 206q-5 11 -17 21q-22 4 -33 4h-25v-149q20 -14 56 -21v-61h-272v61q33 5 60 21v149h-26q-18 0 -30 -4q-13 -9 -19 -21l-93 -206h-214v59q16 2 45 12t42 18l62 134q26 55 86 60q-24 16 -40 44l-41 77q-4 8 -12 16q-61 11 -111 11v83q25 16 66 16q80 0 129 -76
l71 -113q18 -28 38 -37l47 -4v131q-28 16 -60 21v70h276v-70q-33 -5 -60 -21v-131l47 4q20 9 38 37l70 113q48 76 130 76q39 0 66 -16v-83q-51 0 -112 -11q-1 -1 -11 -16l-41 -77q-15 -27 -40 -44q60 -5 86 -60l62 -134q40 -23 87 -30v-59h-214z" />
    <glyph glyph-name="afii10073" unicode="&#x437;" horiz-adv-x="485" 
d="M35 356l1 124q90 51 197 51q110 0 163.5 -38t53.5 -96q0 -80 -117 -115q133 -30 133 -128q0 -77 -64 -118.5t-184 -41.5q-98 0 -187 39v138h110l35 -101q19 -4 39 -4q91 0 91 81q0 45 -34 64t-114 20v72q70 0 105.5 22.5t35.5 62.5q0 26 -18.5 45t-62.5 19q-25 0 -46 -6
l-23 -90h-114z" />
    <glyph glyph-name="afii10074" unicode="&#x438;" horiz-adv-x="672" 
d="M102 82v346q-32 17 -76 22v72h286v-72q-33 -5 -60 -21v-218l168 255v56h226v-72q-40 -3 -76 -22v-346q30 -16 76 -23v-59h-288v61q44 8 62 21v230l-168 -256v-56h-226v59q46 7 76 23z" />
    <glyph glyph-name="afii10075" unicode="&#x439;" horiz-adv-x="672" 
d="M102 82v346q-32 17 -76 22v72h286v-72q-33 -5 -60 -21v-218l168 255v56h226v-72q-40 -3 -76 -22v-346q30 -16 76 -23v-59h-288v61q44 8 62 21v230l-168 -256v-56h-226v59q46 7 76 23zM263 784q2 -64 22 -96q19 -8 44 -8q27 0 44 8q19 31 23 96h91q0 -86 -43 -124.5
t-115 -38.5q-71 0 -114 39t-43 124h91z" />
    <glyph glyph-name="afii10076" unicode="&#x43a;" horiz-adv-x="668" 
d="M443 0l-98 206q-5 12 -16 20q-20 5 -35 5h-35v-149q22 -15 56 -21v-61h-288v59q48 8 76 23v346q-30 17 -76 22v72h292v-72q-32 -4 -60 -21v-129l58 4q21 9 39 37l75 113q50 76 129 76q41 0 66 -16v-83q-46 0 -109 -10q-10 -10 -14 -17l-46 -77q-13 -22 -37 -41
q57 -7 84 -63l66 -134q40 -23 87 -30v-59h-214z" />
    <glyph glyph-name="afii10077" unicode="&#x43b;" horiz-adv-x="635" 
d="M533 428v-346q31 -16 76 -23v-59h-288v61q33 6 55 20v350h-88q-8 -138 -28.5 -232t-62 -151t-102.5 -57q-47 0 -84 17v87q63 2 102 8q51 94 67 326q-32 16 -77 21v72h506v-72q-40 -3 -76 -22z" />
    <glyph glyph-name="afii10078" unicode="&#x43c;" horiz-adv-x="820" 
d="M356 -1l-144 324v-241q22 -14 56 -21v-61h-241v59q48 8 76 23v352q-32 10 -76 16v72h245l143 -338l143 338h234v-72q-37 -4 -75 -14v-354q30 -16 76 -23v-59h-283v61q33 6 59 21v242l-141 -325h-72z" />
    <glyph glyph-name="afii10079" unicode="&#x43d;" horiz-adv-x="672" 
d="M102 82v346q-32 17 -76 22v72h288v-72q-30 -4 -56 -21v-121h156v121q-27 17 -56 21v72h288v-72q-40 -3 -76 -22v-346q30 -16 76 -23v-59h-288v61q34 6 56 21v144h-156v-144q21 -14 56 -21v-61h-288v59q46 7 76 23z" />
    <glyph glyph-name="afii10080" unicode="&#x43e;" horiz-adv-x="558" 
d="M23 266q0 124 72.5 195t190.5 71q115 0 182 -77t67 -199q0 -124 -72.5 -195t-189.5 -71q-115 0 -182.5 77t-67.5 199zM255 442q-18 0 -33 -6q-39 -43 -39 -138q0 -109 31 -169.5t89 -60.5q18 0 33 6q38 41 38 137q0 109 -31 170t-88 61z" />
    <glyph glyph-name="afii10081" unicode="&#x43f;" horiz-adv-x="673" 
d="M103 82v346q-30 17 -76 22v72h620v-72q-40 -3 -76 -22v-346q30 -16 76 -23v-59h-288v61q34 6 56 21v349h-156v-349q22 -15 56 -21v-61h-288v59q48 8 76 23z" />
    <glyph glyph-name="afii10082" unicode="&#x440;" horiz-adv-x="606" 
d="M89 -140v461q0 74 -4 102l-86 12v79l232 15q3 -30 5 -69q73 72 152 72q89 0 142 -72.5t53 -184.5q0 -129 -67 -207t-174 -78q-55 0 -98 23v-153q32 -16 77 -23v-59h-309v59q46 7 77 23zM244 155q0 -40 23.5 -61.5t62.5 -21.5q16 0 33 3q65 50 65 180q0 164 -116 164
q-32 0 -68 -17v-247z" />
    <glyph glyph-name="afii10083" unicode="&#x441;" horiz-adv-x="485" 
d="M23 251q0 123 71 202t191 79q81 0 166 -38v-163h-100l-20 82q-43 23 -94 23q-11 0 -17 -1q-36 -56 -36 -146q0 -101 36 -147.5t92 -46.5q65 0 114 61l48 -46q-29 -53 -83.5 -87t-122.5 -34q-114 0 -179.5 72t-65.5 190z" />
    <glyph glyph-name="afii10084" unicode="&#x442;" horiz-adv-x="560" 
d="M124 59q46 7 76 23v355h-64l-26 -106h-94v191h528v-191h-95l-21 106h-71v-355q31 -16 77 -23v-59h-310v59z" />
    <glyph glyph-name="afii10085" unicode="&#x443;" horiz-adv-x="601" 
d="M236 428l100 -245l91 245q-26 18 -60 22v72h248v-72q-42 -5 -77 -22l-200 -503q-32 -78 -68.5 -116.5t-96.5 -38.5q-48 0 -89 30v90q71 0 139 6q15 25 22 43l18 49l-200 440q-32 17 -76 22v72h309v-72q-34 -4 -60 -22z" />
    <glyph glyph-name="afii10086" unicode="&#x444;" horiz-adv-x="828" 
d="M336 -140v189q-60 -61 -130 -61q-83 0 -133 73t-50 186q0 128 63 205.5t163 77.5q48 0 87 -21v64q0 83 -4 102l-85 12v79l232 15q13 -84 13 -208v-103q62 61 130 61q83 0 133 -73t50 -186q0 -128 -62.5 -205.5t-162.5 -77.5q-49 0 -88 21v-150q32 -16 76 -23v-59h-309v59
q47 7 77 23zM551 429q-25 0 -61 -26v-247q0 -37 20 -56.5t54 -19.5q14 0 30 3q59 50 59 182q0 164 -102 164zM277 91q25 0 61 24v249q0 37 -20 56.5t-53 19.5q-15 0 -31 -3q-58 -50 -58 -183q0 -163 101 -163z" />
    <glyph glyph-name="afii10087" unicode="&#x445;" horiz-adv-x="607" 
d="M317 522v-72q-24 -3 -49 -21l65 -98l74 98q-24 19 -47 21v72h222v-72q-41 -5 -72 -23l-125 -156l138 -189q30 -16 76 -23v-59h-304v61q36 7 56 21l-75 108l-86 -108q22 -15 56 -21v-61h-237v59q46 7 76 23l139 169l-131 176q-29 19 -67 23v72h291z" />
    <glyph glyph-name="afii10088" unicode="&#x446;" horiz-adv-x="674" 
d="M103 82v346q-30 17 -76 22v72h288v-73q-30 -4 -56 -21v-348h152v348q-29 18 -56 21v73h288v-72q-40 -3 -76 -22v-348h92l-13 -268h-73q-16 123 -39 177q-36 11 -96 11h-411v59q48 8 76 23z" />
    <glyph glyph-name="afii10089" unicode="&#x447;" horiz-adv-x="646" 
d="M544 428v-346q32 -16 77 -23v-59h-310v59q45 7 77 23v143q-68 -31 -143 -31q-161 0 -161 163v71q-30 17 -76 22v72h288v-72q-31 -4 -56 -21v-71q0 -43 15 -60.5t50 -17.5q44 0 83 13v136q-27 17 -56 21v72h289v-72q-43 -5 -77 -22z" />
    <glyph glyph-name="afii10090" unicode="&#x448;" horiz-adv-x="966" 
d="M259 428v-348h147v348q-28 17 -56 21v73h268v-73q-33 -4 -56 -21v-348h146v348q-28 18 -57 21v73h289v-72q-44 -5 -76 -22v-346q30 -16 76 -23v-59h-913v59q48 8 76 23v346q-30 17 -76 22v72h288v-73q-31 -4 -56 -21z" />
    <glyph glyph-name="afii10091" unicode="&#x449;" horiz-adv-x="971" 
d="M864 428v-348h93l-14 -268h-74q-9 113 -37 177q-35 11 -107 11h-698v59q48 8 76 23v346q-30 17 -76 22v72h288v-73q-31 -4 -56 -21v-348h147v348q-28 17 -56 21v73h268v-73q-33 -4 -56 -21v-348h146v348q-28 18 -57 21v73h289v-72q-44 -5 -76 -22z" />
    <glyph glyph-name="afii10092" unicode="&#x44a;" horiz-adv-x="640" 
d="M16 522h413v-72q-43 -5 -76 -22v-106h52q114 0 172 -42.5t58 -114.5q0 -79 -67.5 -122t-170.5 -43h-276v59q46 7 76 23v365h-79l-35 -113h-67v188zM398 242h-45v-164h37q44 0 74 20q13 30 13 59q0 38 -20 61.5t-59 23.5z" />
    <glyph glyph-name="afii10093" unicode="&#x44b;" horiz-adv-x="887" 
d="M108 82v346q-30 17 -76 22v72h309v-72q-42 -5 -76 -22v-106h52q114 0 171.5 -42t57.5 -115q0 -78 -67.5 -121.5t-169.5 -43.5h-277v59q48 8 76 23zM785 428v-346q32 -16 76 -23v-59h-309v59q47 7 77 23v346q-32 17 -77 22v72h309v-72q-42 -5 -76 -22zM310 242h-45v-164
h37q45 0 74 21q13 29 13 58q0 38 -20 61.5t-59 23.5z" />
    <glyph glyph-name="afii10094" unicode="&#x44c;" horiz-adv-x="546" 
d="M103 82v346q-30 17 -76 22v72h309v-72q-42 -5 -76 -22v-106h52q114 0 171.5 -42t57.5 -115q0 -78 -67.5 -121.5t-169.5 -43.5h-277v59q48 8 76 23zM305 242h-45v-164h37q45 0 74 21q13 29 13 58q0 38 -20 61.5t-59 23.5z" />
    <glyph glyph-name="afii10095" unicode="&#x44d;" horiz-adv-x="487" 
d="M226 532q124 0 186 -73.5t62 -186.5q0 -128 -69 -205t-183 -77q-126 0 -200 107l55 63q27 -29 67.5 -48.5t78.5 -19.5q34 0 58 9q26 45 30 119h-172v80h173q-6 72 -34.5 106.5t-68.5 34.5q-16 0 -28 -3l-24 -82h-110v134q81 42 179 42z" />
    <glyph glyph-name="afii10096" unicode="&#x44e;" horiz-adv-x="865" 
d="M259 428v-120h89q12 105 80.5 164.5t172.5 59.5q111 0 176 -77t65 -199q0 -123 -70.5 -194t-184.5 -71q-101 0 -164.5 64.5t-74.5 170.5h-89v-144q32 -16 77 -23v-59h-309v59q48 8 76 23v346q-34 17 -76 22v72h309v-72q-43 -5 -77 -22zM572 441q-16 0 -30 -6
q-35 -42 -35 -136q0 -109 27.5 -169t80.5 -60q19 0 33 7q33 42 33 135q0 108 -28.5 168.5t-80.5 60.5z" />
    <glyph glyph-name="afii10097" unicode="&#x44f;" horiz-adv-x="615" 
d="M89 89l49 92q23 46 66 59q-67 17 -100 52t-33 81q0 73 68 111t193 38h258v-72q-39 -3 -77 -22v-346q32 -16 77 -23v-59h-289v61q36 7 57 21v140q-23 -2 -39 -7q-13 -10 -23 -29l-92 -186h-201v63q49 7 86 26zM236 367q0 -35 24 -55.5t66 -20.5h32v145h-22q-50 0 -75 -12
q-25 -24 -25 -57z" />
    <glyph glyph-name="uni0450" unicode="&#x450;" horiz-adv-x="514" 
d="M442 156l48 -46q-29 -53 -85 -87t-130 -34q-120 0 -186 75.5t-66 195.5q0 109 70.5 190t186.5 81q91 0 148 -65.5t58 -167.5q-16 -30 -40 -52h-261q10 -78 48.5 -114.5t83.5 -36.5q71 0 125 61zM230 448q-42 -46 -47 -129q169 2 169 7q0 58 -27.5 90.5t-76.5 32.5
q-12 0 -18 -1zM379 617l-33 -46q-162 70 -205 100q-7 15 -7 34q0 34 20.5 59t59.5 25q7 0 11 -1q75 -101 154 -171z" />
    <glyph glyph-name="afii10071" unicode="&#x451;" horiz-adv-x="514" 
d="M442 156l48 -46q-29 -53 -85 -87t-130 -34q-120 0 -186 75.5t-66 195.5q0 109 70.5 190t186.5 81q91 0 148 -65.5t58 -167.5q-16 -30 -40 -52h-261q10 -78 48.5 -114.5t83.5 -36.5q71 0 125 61zM230 448q-42 -46 -47 -129q169 2 169 7q0 58 -27.5 90.5t-76.5 32.5
q-12 0 -18 -1zM252 693q0 -34 -23 -57.5t-56 -23.5t-56.5 23.5t-23.5 57.5q0 33 23.5 56.5t56.5 23.5t56 -23.5t23 -56.5zM453 693q0 -34 -23 -57.5t-55 -23.5q-34 0 -57 23.5t-23 57.5q0 33 23 56.5t57 23.5q32 0 55 -23.5t23 -56.5z" />
    <glyph glyph-name="afii10099" unicode="&#x452;" horiz-adv-x="596" 
d="M3 564v77h87q-2 35 -3 43l-86 12v79l241 15q4 -78 4 -149h168v-77h-167v-106q72 74 154 74q72 0 115 -52t43 -135v-187q0 -143 -72 -246t-156 -103q-38 0 -74 21v82q85 4 139 15q7 45 7 104v294q0 91 -75 91q-38 0 -81 -24v-310q20 -14 55 -21v-61h-288v59q46 7 77 23
v482h-88z" />
    <glyph glyph-name="afii10100" unicode="&#x453;" horiz-adv-x="531" 
d="M505 522l5 -191h-104l-31 106h-116v-355q32 -16 77 -23v-59h-309v59q48 8 76 23v346q-30 17 -76 22v72h478zM166 574l-36 46q32 23 83.5 76t79.5 90h44q20 -8 33 -28t13 -42q0 -32 -27 -56q-21 -19 -79 -44.5t-111 -41.5z" />
    <glyph glyph-name="afii10101" unicode="&#x454;" horiz-adv-x="487" 
d="M25 251q0 123 71 202t191 79q81 0 167 -39v-139h-111l-16 70q-32 16 -71 16q-16 0 -33 -3q-34 -53 -37 -132h187v-79h-183q11 -68 44 -99t79 -31q63 0 114 61l49 -47q-29 -53 -83.5 -87t-122.5 -34q-114 0 -179.5 72t-65.5 190z" />
    <glyph glyph-name="afii10102" unicode="&#x455;" horiz-adv-x="470" 
d="M442 162q0 -80 -61 -126t-160 -46q-44 0 -92.5 12.5t-82.5 35.5l-9 125h98l26 -75q51 -23 116 -23q26 24 26 60q0 28 -28 46t-67.5 30t-79.5 27t-67.5 49t-27.5 85q0 69 60 119.5t161 50.5q79 0 161 -37v-132h-98l-28 72q-37 14 -72 14q-13 0 -20 -1q-24 -20 -24 -48
q0 -27 27.5 -45.5t67.5 -31t79.5 -28.5t67 -49.5t27.5 -83.5z" />
    <glyph glyph-name="afii10103" unicode="&#x456;" horiz-adv-x="352" 
d="M114 82v239q0 74 -4 102l-86 12v79l241 15q4 -110 4 -208v-239q32 -16 77 -23v-59h-309v59q46 7 77 23zM270 707q0 -38 -25.5 -64.5t-62.5 -26.5t-63.5 26.5t-26.5 64.5q0 37 26 63.5t64 26.5q37 0 62.5 -26t25.5 -64z" />
    <glyph glyph-name="afii10104" unicode="&#x457;" horiz-adv-x="352" 
d="M150 693q0 -34 -23 -57.5t-56 -23.5t-56.5 23.5t-23.5 57.5q0 33 23.5 56.5t56.5 23.5t56 -23.5t23 -56.5zM351 693q0 -34 -23 -57.5t-55 -23.5q-34 0 -57 23.5t-23 57.5q0 33 23 56.5t57 23.5q32 0 55 -23.5t23 -56.5zM114 82v239q0 74 -4 102l-86 12v79l241 15
q4 -110 4 -208v-239q32 -16 77 -23v-59h-309v59q46 7 77 23z" />
    <glyph glyph-name="afii10105" unicode="&#x458;" horiz-adv-x="321" 
d="M260 321v-336q0 -83 -68 -146t-192 -68l-10 72q61 15 87.5 48t26.5 94v336q0 74 -4 102l-86 12v79l241 15q5 -138 5 -208zM263 706q0 -39 -27 -66.5t-65 -27.5t-65 27.5t-27 66.5t27 66t65 27t65 -27t27 -66z" />
    <glyph glyph-name="afii10106" unicode="&#x459;" horiz-adv-x="818" 
d="M532 428v-106h52q114 0 171.5 -42t57.5 -115q0 -78 -67.5 -121.5t-169.5 -43.5h-277v59q46 7 76 23v349h-88q-8 -138 -28.5 -232t-61.5 -151t-102 -57q-47 0 -84 17v87q63 2 102 8q28 52 43.5 127t23.5 198q-34 17 -77 22v72h505v-72q-40 -3 -76 -22zM577 242h-45v-164
h36q44 0 73 20q14 29 14 59q0 39 -19.5 62t-58.5 23z" />
    <glyph glyph-name="afii10107" unicode="&#x45a;" horiz-adv-x="857" 
d="M102 82v346q-32 17 -76 22v72h288v-72q-30 -4 -56 -21v-121h156v121q-27 17 -56 21v72h289v-72q-41 -3 -77 -22v-106h52q114 0 171.5 -42t57.5 -115q0 -79 -67 -122t-169 -43h-257v61q34 6 56 21v144h-156v-144q21 -14 56 -21v-61h-288v59q46 7 76 23zM616 242h-46v-164
h37q45 0 74 21q13 29 13 58q0 38 -20 61.5t-58 23.5z" />
    <glyph glyph-name="afii10108" unicode="&#x45b;" horiz-adv-x="634" 
d="M14 0v59q46 7 77 23v482h-88v77h87q-2 35 -3 43l-86 12v79l241 15q4 -53 4 -149h213v-77h-212v-105q71 73 154 73q72 0 115 -52t43 -135v-263q30 -16 76 -23v-59h-289v61q35 6 57 21v243q0 91 -75 91q-38 0 -81 -24v-310q20 -14 55 -21v-61h-288z" />
    <glyph glyph-name="afii10109" unicode="&#x45c;" horiz-adv-x="668" 
d="M443 0l-98 206q-5 12 -16 20q-20 5 -35 5h-35v-149q22 -15 56 -21v-61h-288v59q48 8 76 23v346q-30 17 -76 22v72h292v-72q-32 -4 -60 -21v-129l58 4q21 9 39 37l75 113q50 76 129 76q41 0 66 -16v-83q-46 0 -109 -10q-10 -10 -14 -17l-46 -77q-13 -22 -37 -41
q57 -7 84 -63l66 -134q40 -23 87 -30v-59h-214zM272 574l-36 46q32 23 83.5 76t79.5 90h44q20 -8 33 -28t13 -42q0 -32 -27 -56q-21 -19 -79 -44.5t-111 -41.5z" />
    <glyph glyph-name="uni045D" unicode="&#x45d;" horiz-adv-x="672" 
d="M102 82v346q-32 17 -76 22v72h286v-72q-33 -5 -60 -21v-218l168 255v56h226v-72q-40 -3 -76 -22v-346q30 -16 76 -23v-59h-288v61q44 8 62 21v230l-168 -256v-56h-226v59q46 7 76 23zM460 618l-33 -46q-162 70 -205 100q-7 15 -7 34q0 34 20.5 59t59.5 25q7 0 11 -1
q75 -101 154 -171z" />
    <glyph glyph-name="afii10110" unicode="&#x45e;" horiz-adv-x="601" 
d="M236 428l100 -245l91 245q-26 18 -60 22v72h248v-72q-42 -5 -77 -22l-200 -503q-32 -78 -68.5 -116.5t-96.5 -38.5q-48 0 -89 30v90q71 0 139 6q15 25 22 43l18 49l-200 440q-32 17 -76 22v72h309v-72q-34 -4 -60 -22zM235 785q2 -64 22 -96q19 -8 44 -8q27 0 44 8
q19 31 23 96h91q0 -86 -43 -124.5t-115 -38.5q-71 0 -114 39t-43 124h91z" />
    <glyph glyph-name="afii10193" unicode="&#x45f;" horiz-adv-x="669" 
d="M103 82v346q-30 17 -76 22v72h288v-73q-30 -4 -56 -21v-348h152v348q-29 18 -56 21v73h288v-72q-40 -3 -76 -22v-346q30 -16 76 -23v-59h-142q-68 0 -100 -6q-19 -54 -34 -182h-62q-12 121 -34 182q-31 6 -99 6h-145v59q48 8 76 23z" />
    <glyph glyph-name="afii10146" unicode="&#x462;" horiz-adv-x="753" 
d="M394 675v-56h232v-181h-100l-26 96h-106v-130h57q143 0 213.5 -53t70.5 -142q0 -102 -86 -155.5t-216 -53.5h-295v68q49 7 83 25v441h-83l-29 -96h-100v181h212v56q-33 19 -83 26v73h335v-73q-42 -6 -79 -26zM445 311h-51v-221h32q59 0 96 14q35 41 35 97q0 52 -29 81
t-83 29z" />
    <glyph glyph-name="afii10194" unicode="&#x463;" horiz-adv-x="640" 
d="M197 82v391h-79l-35 -113h-67v188h181v34q0 74 -4 102l-85 12v79l241 15q4 -108 4 -208v-34h216v-188h-67l-36 113h-113v-151h52q114 0 172 -42.5t58 -114.5q0 -79 -67.5 -122t-170.5 -43h-276v59q46 7 76 23zM398 242h-45v-164h37q44 0 74 20q13 30 13 59q0 38 -20 61.5
t-59 23.5z" />
    <glyph glyph-name="afii10147" unicode="&#x472;" horiz-adv-x="747" 
d="M27 372q0 166 93.5 272t261.5 106q153 0 246 -110.5t93 -273.5q0 -167 -96.5 -271.5t-258.5 -104.5q-155 0 -247 109.5t-92 272.5zM473 94q65 80 65 239h-324q13 -128 65 -189t127 -61q34 0 67 11zM210 410h323q-13 116 -62.5 176t-129.5 60q-35 0 -80 -20
q-51 -78 -51 -216z" />
    <glyph glyph-name="afii10195" unicode="&#x473;" horiz-adv-x="558" 
d="M23 266q0 124 72.5 195t190.5 71q115 0 182 -77t67 -199q0 -124 -72.5 -195t-189.5 -71q-115 0 -182.5 77t-67.5 199zM336 74q38 43 38 152h-187q19 -158 116 -158q18 0 33 6zM255 442q-18 0 -33 -6q-39 -42 -39 -134h184q-24 140 -112 140z" />
    <glyph glyph-name="afii10148" unicode="&#x474;" horiz-adv-x="828" 
d="M273 641l155 -453l142 429q23 70 62.5 103t102.5 33q55 0 97 -23v-96q-72 0 -136 -10q-11 -13 -20 -35l-199 -589h-161l-234 641q-37 19 -83 26v73h358v-73q-47 -7 -84 -26z" />
    <glyph glyph-name="afii10196" unicode="&#x475;" horiz-adv-x="633" 
d="M296 522v-72q-36 -6 -60 -22l98 -302l101 300q36 105 138 105q44 0 69 -16v-83q-52 0 -115 -11q-6 -12 -9 -20l-142 -402h-152l-161 429q-32 17 -76 22v72h309z" />
    <glyph glyph-name="afii10050" unicode="&#x490;" horiz-adv-x="611" 
d="M105 95v546q-35 18 -82 25v74h416l50 137h110l-9 -235h-311v-547q31 -17 83 -25v-70h-340v70q52 8 83 25z" />
    <glyph glyph-name="afii10098" unicode="&#x491;" horiz-adv-x="531" 
d="M373 522l33 107h105l-6 -192h-246v-355q32 -16 77 -23v-59h-309v59q48 8 76 23v346q-30 17 -76 22v72h346z" />
    <glyph glyph-name="uni0492" unicode="&#x492;" horiz-adv-x="623" 
d="M-10 314v99h115v228q-35 18 -82 25v74h568l6 -237h-108l-46 139h-164v-229h194v-99h-194v-221q34 -18 83 -25v-68h-340v68q49 7 83 25v221h-115z" />
    <glyph glyph-name="uni0493" unicode="&#x493;" horiz-adv-x="531" 
d="M505 522l5 -191h-104l-31 106h-116v-156h133v-80h-133v-119q32 -16 77 -23v-59h-309v59q48 8 76 23v119h-94v80h94v148q-28 15 -76 23v70h478z" />
    <glyph glyph-name="uni0496" unicode="&#x496;" horiz-adv-x="1168" 
d="M284 465l-53 119q-11 23 -21 36q-67 9 -157 9v96q48 23 101 23q71 0 112 -32t72 -104l53 -125q17 -40 51 -56l62 -7v217q-36 18 -84 25v74h327v-73q-47 -7 -82 -25v-218l61 7q34 16 51 56l53 125q31 72 71.5 104t112.5 32q53 0 101 -23v-96q-84 0 -158 -10
q-9 -11 -20 -35l-53 -119q-17 -39 -46 -57q75 -14 110 -86l108 -222q49 -25 106 -32l-10 -283h-88q-18 128 -50 199q-30 13 -100 16l-138 301q-5 11 -20 28q-30 7 -53 7h-38v-241q32 -18 81 -25v-70h-326v70q51 7 84 25v241h-38q-26 0 -54 -7q-15 -17 -20 -28l-138 -301
h-245v68q58 9 103 32l109 222q37 75 108 86q-29 20 -45 57z" />
    <glyph glyph-name="uni0497" unicode="&#x497;" horiz-adv-x="942" 
d="M393 82v149h-26q-18 0 -31 -4q-12 -10 -18 -21l-93 -206h-214v59q16 2 45 12t42 18l62 134q26 55 85 60q-24 16 -39 44l-41 77q-4 8 -12 16q-61 11 -111 11v83q25 16 66 16q80 0 129 -76l71 -113q18 -28 38 -37l47 -4v131q-28 16 -60 21v70h276v-70q-33 -5 -60 -21v-131
l47 4q20 9 38 37l70 113q48 76 130 76q39 0 66 -16v-83q-51 0 -112 -11q-8 -10 -11 -16l-41 -77q-15 -27 -40 -44q61 -5 86 -60l62 -134q43 -21 87 -30l-13 -247h-73q-11 118 -40 182q-29 6 -88 6l-93 206q-6 11 -18 21q-20 4 -32 4h-25v-149q20 -14 56 -21v-61h-272v61
q33 5 60 21z" />
    <glyph glyph-name="uni049A" unicode="&#x49a;" horiz-adv-x="801" 
d="M546 0l-157 301q-9 16 -22 29q-23 6 -53 6h-35v-243q35 -18 82 -25v-68h-339v68q49 7 83 25v548q-34 18 -83 25v74h339v-74q-47 -7 -82 -25v-217l52 5q34 16 59 58l73 125q22 38 36.5 58t36.5 40.5t48.5 29t62.5 8.5q53 0 101 -23v-96q-88 0 -154 -9q-8 -10 -24 -36
l-68 -120q-22 -38 -53 -57q78 -11 114 -76l126 -231q47 -25 105 -32l-9 -283h-89q-17 131 -48 198q-31 14 -102 17z" />
    <glyph glyph-name="uni049B" unicode="&#x49b;" horiz-adv-x="668" 
d="M443 0l-98 206q-5 12 -17 20q-18 5 -34 5h-35v-149q22 -15 56 -21v-61h-288v59q48 8 76 23v347q-28 15 -76 23v70h292v-71q-32 -4 -60 -21v-131l58 5q21 9 39 37l75 113q50 76 129 76q41 0 66 -16v-83q-49 0 -110 -11q-8 -8 -13 -16l-46 -77q-15 -26 -38 -41
q58 -7 85 -63l66 -134q42 -21 87 -30l-12 -247h-74q-9 118 -40 182q-28 6 -88 6z" />
    <glyph glyph-name="uni049C" unicode="&#x49c;" horiz-adv-x="870" 
d="M336 177v159h-57v-243q35 -18 82 -25v-68h-339v68q49 7 83 25v548q-34 18 -83 25v74h339v-74q-47 -7 -82 -25v-220l57 3v150h87v-145q40 14 58 58l51 125q30 72 71 104t113 32q53 0 101 -23v-96q-93 0 -159 -10q-10 -12 -19 -34l-46 -116q-17 -43 -49 -62q40 -6 69 -27
t41 -49l104 -231q43 -23 103 -32v-68h-246l-135 301q-9 20 -20 27t-37 8v-159h-87z" />
    <glyph glyph-name="uni049D" unicode="&#x49d;" horiz-adv-x="708" 
d="M103 82v347q-28 15 -76 23v70h292v-71q-32 -4 -60 -21v-131l50 2v110h70v-105q21 10 33 35l55 110q39 79 128 79q41 0 66 -16v-83q-46 0 -109 -10q-8 -12 -12 -20l-35 -74q-13 -27 -31 -41q58 -5 81 -62l55 -135q40 -23 87 -30v-59h-214l-75 204q-7 19 -29 24v-120h-70
v123h-50v-149q22 -15 56 -21v-61h-288v59q48 8 76 23z" />
    <glyph glyph-name="uni04A2" unicode="&#x4a2;" horiz-adv-x="792" 
d="M513 93v238h-234v-238q36 -19 77 -25v-68h-334v68q49 7 83 25v548q-34 18 -83 25v74h335v-74q-42 -6 -78 -25v-208h234v208q-38 19 -78 25v74h334v-74q-48 -7 -83 -25v-548q44 -20 87 -25l-9 -283h-89q-17 131 -48 198q-39 17 -96 17h-97v68q43 6 79 25z" />
    <glyph glyph-name="uni04A3" unicode="&#x4a3;" horiz-adv-x="660" 
d="M570 429v-348q28 -14 76 -22l-13 -247h-73q-11 117 -40 181q-28 7 -91 7h-71v61q34 6 56 21v144h-156v-144q21 -14 56 -21v-61h-288v59q46 7 76 23v347q-30 16 -76 23v70h288v-71q-30 -4 -56 -21v-122h156v122q-23 15 -56 21v71h288v-70q-41 -5 -76 -23z" />
    <glyph glyph-name="uni04AE" unicode="&#x4ae;" horiz-adv-x="726" 
d="M276 93v192l-194 356q-37 19 -83 26v73h358v-73q-47 -7 -84 -26l122 -241l123 241q-37 19 -83 26v73h292v-73q-46 -7 -83 -26l-195 -354v-194q34 -18 83 -25v-68h-340v68q48 7 84 25z" />
    <glyph glyph-name="uni04AF" unicode="&#x4af;" horiz-adv-x="601" 
d="M296 522v-75q-35 -6 -60 -22l96 -274l95 274q-23 16 -60 22v75h248v-73q-46 -7 -77 -23l-160 -402v-164q31 -16 76 -23v-59h-309v59q47 7 77 23v162l-159 404q-30 16 -76 23v73h309z" />
    <glyph glyph-name="uni04B0" unicode="&#x4b0;" horiz-adv-x="726" 
d="M644 641l-195 -330v-35h153v-104h-153v-79q34 -18 83 -25v-68h-340v68q48 7 84 25v79h-157v104h157v33l-194 332q-37 19 -83 26v73h358v-73q-47 -7 -84 -26l122 -224l123 224q-37 19 -83 26v73h292v-73q-46 -7 -83 -26z" />
    <glyph glyph-name="uni04B1" unicode="&#x4b1;" horiz-adv-x="601" 
d="M296 522v-75q-35 -6 -60 -22l96 -274l95 274q-23 16 -60 22v75h248v-73q-46 -7 -77 -23l-137 -344h102v-82h-125v-140q31 -16 76 -23v-59h-309v59q47 7 77 23v140h-132v82h108l-135 344q-30 16 -76 23v73h309z" />
    <glyph glyph-name="uni04B2" unicode="&#x4b2;" horiz-adv-x="781" 
d="M662 641l-181 -248l200 -299q43 -20 94 -26l-10 -283h-89q-17 131 -48 198q-39 17 -96 17h-129v69q44 6 78 24l-117 188l-130 -188q34 -18 77 -24v-69h-300v69q56 8 88 25l193 268l-185 279q-36 18 -89 26v73h367v-73q-45 -7 -78 -24l106 -171l115 171q-35 18 -72 24v73
h300v-73q-62 -9 -94 -26z" />
    <glyph glyph-name="uni04B3" unicode="&#x4b3;" horiz-adv-x="607" 
d="M317 522v-74q-27 -4 -49 -22l65 -97l74 97q-21 18 -47 22v74h222v-74q-37 -5 -72 -23l-125 -155l138 -188q32 -17 78 -23l-12 -247h-74q-11 118 -40 182q-29 6 -67 6h-113v61q36 7 56 21l-75 107l-86 -107q22 -15 56 -21v-61h-237v59q46 7 76 23l138 168l-130 175
q-25 16 -67 23v74h291z" />
    <glyph glyph-name="uni04B6" unicode="&#x4b6;" horiz-adv-x="752" 
d="M648 641v-548q42 -20 87 -25l-10 -283h-88q-18 130 -49 198q-37 17 -102 17h-91v68q43 6 79 25v231q-80 -47 -167 -47q-96 0 -151 48.5t-55 139.5v176q-34 18 -83 25v74h323v-74q-28 -3 -67 -25v-176q0 -49 22 -70t66 -21q55 0 112 20v247q-41 22 -68 25v74h324v-74
q-49 -7 -82 -25z" />
    <glyph glyph-name="uni04B7" unicode="&#x4b7;" horiz-adv-x="646" 
d="M544 428v-346q33 -17 79 -23l-12 -247h-74q-9 118 -40 182q-28 6 -88 6h-98v59q45 7 77 23v143q-68 -31 -143 -31q-161 0 -161 163v71q-30 17 -76 22v72h288v-72q-31 -4 -56 -21v-71q0 -43 15 -60.5t50 -17.5q43 0 83 12v137q-27 17 -56 21v72h289v-72q-43 -5 -77 -22z
" />
    <glyph glyph-name="uni04B8" unicode="&#x4b8;" horiz-adv-x="752" 
d="M307 277q-96 0 -151 48.5t-55 139.5v176q-34 18 -83 25v74h323v-74q-28 -3 -67 -25v-176q0 -76 57 -88v144h90v-141q25 4 53 14v247q-41 22 -68 25v74h324v-74q-49 -7 -82 -25v-548q33 -18 82 -25v-68h-335v68q43 6 79 25v231q-29 -17 -53 -26v-146h-90v126q-8 -1 -24 -1
z" />
    <glyph glyph-name="uni04B9" unicode="&#x4b9;" horiz-adv-x="646" 
d="M544 428v-346q32 -16 77 -23v-59h-310v59q45 7 77 23v143q-28 -12 -35 -14v-109h-69v94q-13 -2 -39 -2q-161 0 -161 163v71q-30 17 -76 22v72h288v-72q-31 -4 -56 -21v-71q0 -36 10.5 -53.5t33.5 -22.5v95h69v-93q16 3 35 9v136q-27 17 -56 21v72h289v-72q-43 -5 -77 -22
z" />
    <glyph glyph-name="uni04BA" unicode="&#x4ba;" horiz-adv-x="752" 
d="M450 494q96 0 151 -49t55 -140v-206q37 -19 83 -26v-73h-323v74q29 3 66 25v206q0 50 -22 71t-65 21q-57 0 -112 -21v-277q35 -21 67 -26v-73h-324v73q48 7 83 26v548q-33 18 -82 25v68h334v-68q-42 -6 -78 -25v-201q82 48 167 48z" />
    <glyph glyph-name="uni04BB" unicode="&#x4bb;" horiz-adv-x="634" 
d="M91 82v475q0 73 -4 101l-86 13v79l241 15q5 -138 5 -208v-98q71 73 154 73q72 0 115 -52t43 -135v-263q30 -16 76 -23v-59h-289v61q35 6 57 21v243q0 91 -75 91q-38 0 -81 -24v-310q20 -14 55 -21v-61h-288v59q46 7 77 23z" />
    <glyph glyph-name="uni04C0" unicode="&#x4c0;" horiz-adv-x="397" 
d="M285 642v-554q34 -18 83 -25v-63h-340v63q48 7 83 24v555q-33 18 -83 25v73h340v-73q-49 -7 -83 -25z" />
    <glyph glyph-name="uni04CF" unicode="&#x4cf;" horiz-adv-x="378" 
d="M267 661v-579q32 -16 77 -23v-59h-309v59q46 7 76 23v579q-35 18 -76 23v71h309v-71q-40 -5 -77 -23z" />
    <glyph glyph-name="uni04D8" unicode="&#x4d8;" horiz-adv-x="697" 
d="M321 750q94 0 162.5 -29.5t108.5 -83t59 -121t19 -151.5q0 -168 -90.5 -271.5t-241.5 -103.5q-134 0 -212 85.5t-89 234.5q19 42 54 73h403q-5 143 -51 209.5t-141 66.5q-49 0 -87 -11l-34 -141h-98v200q107 43 238 43zM422 89q68 76 72 227q-159 -2 -287 -13
q14 -224 153 -224q31 0 62 10z" />
    <glyph glyph-name="afii10846" unicode="&#x4d9;" horiz-adv-x="514" 
d="M73 365l-48 45q29 53 85 87t130 34q120 0 185.5 -75t65.5 -195q0 -109 -66.5 -190.5t-175.5 -81.5q-98 0 -158.5 66t-61.5 169q15 28 39 51h261q-10 78 -48.5 114.5t-82.5 36.5q-69 0 -125 -61zM284 73q42 46 47 129q-168 -2 -168 -7q0 -53 27.5 -88t77.5 -35q11 0 16 1z
" />
    <glyph glyph-name="uni04E2" unicode="&#x4e2;" horiz-adv-x="792" 
d="M513 93v366l-234 -311v-55q36 -19 77 -25v-68h-334v68q49 7 83 25v548q-34 18 -83 25v74h335v-74q-42 -6 -78 -25v-362l234 311v51q-38 19 -78 25v74h334v-74q-48 -7 -83 -25v-548q36 -18 83 -25v-68h-335v68q41 6 79 25zM218 807v81h356v-81h-356z" />
    <glyph glyph-name="uni04E3" unicode="&#x4e3;" horiz-adv-x="672" 
d="M102 82v346q-32 17 -76 22v72h286v-72q-33 -5 -60 -21v-218l168 255v56h226v-72q-40 -3 -76 -22v-346q30 -16 76 -23v-59h-288v61q44 8 62 21v230l-168 -256v-56h-226v59q46 7 76 23zM182 648v92h309v-92h-309z" />
    <glyph glyph-name="uni04E8" unicode="&#x4e8;" horiz-adv-x="747" 
d="M27 372q0 166 93.5 272t261.5 106q153 0 246 -110.5t93 -273.5q0 -167 -96.5 -271.5t-258.5 -104.5q-155 0 -247 109.5t-92 272.5zM473 94q65 80 65 239h-324q13 -128 65 -189t127 -61q34 0 67 11zM210 410h323q-13 116 -62.5 176t-129.5 60q-35 0 -80 -20
q-51 -78 -51 -216z" />
    <glyph glyph-name="uni04E9" unicode="&#x4e9;" horiz-adv-x="558" 
d="M23 266q0 124 72.5 195t190.5 71q115 0 182 -77t67 -199q0 -124 -72.5 -195t-189.5 -71q-115 0 -182.5 77t-67.5 199zM336 74q38 43 38 152h-187q19 -158 116 -158q18 0 33 6zM255 442q-18 0 -33 -6q-39 -42 -39 -134h184q-24 140 -112 140z" />
    <glyph glyph-name="uni04EE" unicode="&#x4ee;" horiz-adv-x="726" 
d="M644 641l-213 -500q-35 -83 -82.5 -116.5t-114.5 -33.5q-55 0 -97 34v88q78 0 157 9q12 16 20 34l10 23l-242 462q-37 19 -83 26v73h358v-73q-47 -7 -84 -26l134 -275l111 275q-37 19 -83 26v73h292v-73q-46 -7 -83 -26zM185 807v81h356v-81h-356z" />
    <glyph glyph-name="uni04EF" unicode="&#x4ef;" horiz-adv-x="601" 
d="M236 428l100 -245l91 245q-26 18 -60 22v72h248v-72q-42 -5 -77 -22l-200 -503q-32 -78 -68.5 -116.5t-96.5 -38.5q-48 0 -89 30v90q71 0 139 6q15 25 22 43l18 49l-200 440q-32 17 -76 22v72h309v-72q-34 -4 -60 -22zM146 648v92h309v-92h-309z" />
    <glyph glyph-name="Wgrave" unicode="&#x1e80;" horiz-adv-x="1145" 
d="M303 0l-212 641q-36 19 -85 26v73h342v-73q-43 -6 -82 -26l139 -448l118 340l-35 108q-37 19 -83 26v73h339v-73q-44 -7 -83 -26l133 -439l137 439q-38 20 -81 26v73h289v-73q-48 -7 -86 -26l-213 -641h-143l-118 361l-133 -361h-143zM697 835l-20 -56q-164 26 -230 52
q-22 25 -22 55q0 54 54 72h33q111 -83 185 -123z" />
    <glyph glyph-name="wgrave" unicode="&#x1e81;" horiz-adv-x="876" 
d="M290 522v-72q-37 -4 -67 -22l95 -302l85 257l-14 44q-31 18 -68 23v72h275v-75q-37 -6 -60 -21l85 -291l87 290q-23 16 -61 22v75h238v-73q-48 -8 -76 -23l-145 -427h-137l-82 253l-86 -253h-143l-153 429q-36 17 -76 22v72h303zM575 618l-33 -46q-162 70 -205 100
q-7 15 -7 34q0 34 20.5 59t59.5 25q7 0 11 -1q75 -101 154 -171z" />
    <glyph glyph-name="Wacute" unicode="&#x1e82;" horiz-adv-x="1145" 
d="M303 0l-212 641q-36 19 -85 26v73h342v-73q-43 -6 -82 -26l139 -448l118 340l-35 108q-37 19 -83 26v73h339v-73q-44 -7 -83 -26l133 -439l137 439q-38 20 -81 26v73h289v-73q-48 -7 -86 -26l-213 -641h-143l-118 361l-133 -361h-143zM481 779l-22 51q43 19 103 58t92 69
h42q35 -20 35 -65q0 -42 -37 -63q-24 -14 -89.5 -28.5t-123.5 -21.5z" />
    <glyph glyph-name="wacute" unicode="&#x1e83;" horiz-adv-x="876" 
d="M290 522v-72q-37 -4 -67 -22l95 -302l85 257l-14 44q-31 18 -68 23v72h275v-75q-37 -6 -60 -21l85 -291l87 290q-23 16 -61 22v75h238v-73q-48 -8 -76 -23l-145 -427h-137l-82 253l-86 -253h-143l-153 429q-36 17 -76 22v72h303zM370 574l-36 46q32 23 83.5 76t79.5 90
h44q20 -8 33 -28t13 -42q0 -32 -27 -56q-21 -19 -79 -44.5t-111 -41.5z" />
    <glyph glyph-name="Wdieresis" unicode="&#x1e84;" horiz-adv-x="1145" 
d="M303 0l-212 641q-36 19 -85 26v73h342v-73q-43 -6 -82 -26l139 -448l118 340l-35 108q-37 19 -83 26v73h339v-73q-44 -7 -83 -26l133 -439l137 439q-38 20 -81 26v73h289v-73q-48 -7 -86 -26l-213 -641h-143l-118 361l-133 -361h-143zM553 864q0 -31 -21.5 -53t-52.5 -22
q-32 0 -54 22t-22 53t22 52.5t54 21.5q31 0 52.5 -21.5t21.5 -52.5zM763 864q0 -31 -22 -53t-53 -22t-52.5 22t-21.5 53t21.5 52.5t52.5 21.5t53 -21.5t22 -52.5z" />
    <glyph glyph-name="wdieresis" unicode="&#x1e85;" horiz-adv-x="876" 
d="M290 522v-72q-37 -4 -67 -22l95 -302l85 257l-14 44q-31 18 -68 23v72h275v-75q-37 -6 -60 -21l85 -291l87 290q-23 16 -61 22v75h238v-73q-48 -8 -76 -23l-145 -427h-137l-82 253l-86 -253h-143l-153 429q-36 17 -76 22v72h303zM439 693q0 -34 -23 -57.5t-56 -23.5
t-56.5 23.5t-23.5 57.5q0 33 23.5 56.5t56.5 23.5t56 -23.5t23 -56.5zM640 693q0 -34 -23 -57.5t-55 -23.5q-34 0 -57 23.5t-23 57.5q0 33 23 56.5t57 23.5q32 0 55 -23.5t23 -56.5z" />
    <glyph glyph-name="uni1E8A" unicode="&#x1e8a;" horiz-adv-x="781" 
d="M307 643l107 -172l114 172q-35 18 -72 24v73h300v-73q-62 -9 -94 -26l-181 -247l200 -300q34 -17 89 -25v-69h-367v69q44 6 78 24l-117 188l-130 -188q34 -18 77 -24v-69h-300v69q56 8 88 25l193 268l-185 279q-36 18 -89 26v73h367v-73q-45 -7 -78 -24zM475 870
q0 -34 -24 -57.5t-59 -23.5q-36 0 -60.5 23.5t-24.5 57.5t24.5 57.5t60.5 23.5q35 0 59 -23.5t24 -57.5z" />
    <glyph glyph-name="uni1E8B" unicode="&#x1e8b;" horiz-adv-x="607" 
d="M317 522v-72q-24 -3 -49 -21l65 -98l74 98q-24 19 -47 21v72h222v-72q-41 -5 -72 -23l-125 -156l138 -189q30 -16 76 -23v-59h-304v61q36 7 56 21l-75 108l-86 -108q22 -15 56 -21v-61h-237v59q46 7 76 23l139 169l-131 176q-29 19 -67 23v72h291zM392 707
q0 -38 -25.5 -64.5t-62.5 -26.5t-63.5 26.5t-26.5 64.5q0 37 26 63.5t64 26.5q37 0 62.5 -26t25.5 -64z" />
    <glyph glyph-name="uni1EA0" unicode="&#x1ea0;" horiz-adv-x="824" 
d="M90 93l227 647h192l225 -647q36 -18 84 -25v-68h-353v68q49 7 83 25l-42 130h-251l-43 -130q35 -18 82 -25v-68h-288v68q48 7 84 25zM382 609l-96 -291h189zM463 -120q0 -33 -22.5 -56t-54.5 -23t-54.5 23t-22.5 56q0 32 22.5 54.5t54.5 22.5t54.5 -22.5t22.5 -54.5z" />
    <glyph glyph-name="uni1EA1" unicode="&#x1ea1;" horiz-adv-x="528" 
d="M430 -8q-84 0 -116 65q-35 -35 -67.5 -51t-80.5 -16q-66 0 -105 39t-39 98q0 23 4.5 42t21.5 41.5t46 39.5t82 31.5t126 21.5v19q0 72 -18 99t-61 27q-16 0 -24 -1l-28 -96h-110v145q99 36 190 36q106 0 156 -56.5t50 -155.5v-197q0 -47 42 -47q12 0 20 4l7 -61
q-32 -27 -96 -27zM233 88q41 0 69 35v101q-62 -7 -129 -27q-6 -18 -6 -36q0 -73 66 -73zM355 -120q0 -33 -22.5 -56t-54.5 -23t-54.5 23t-22.5 56q0 32 22.5 54.5t54.5 22.5t54.5 -22.5t22.5 -54.5z" />
    <glyph glyph-name="uni1EA2" unicode="&#x1ea2;" horiz-adv-x="824" 
d="M90 93l227 647h192l225 -647q36 -18 84 -25v-68h-353v68q49 7 83 25l-42 130h-251l-43 -130q35 -18 82 -25v-68h-288v68q48 7 84 25zM382 609l-96 -291h189zM366 774l-20 34q63 21 63 49t-50 28q-35 0 -56 -8l-32 58q52 26 124 26q62 0 95.5 -20.5t33.5 -51.5
q0 -74 -158 -115z" />
    <glyph glyph-name="uni1EA3" unicode="&#x1ea3;" horiz-adv-x="528" 
d="M430 -8q-84 0 -116 65q-35 -35 -67.5 -51t-80.5 -16q-66 0 -105 39t-39 98q0 23 4.5 42t21.5 41.5t46 39.5t82 31.5t126 21.5v19q0 72 -18 99t-61 27q-16 0 -24 -1l-28 -96h-110v145q99 36 190 36q106 0 156 -56.5t50 -155.5v-197q0 -47 42 -47q12 0 20 4l7 -61
q-32 -27 -96 -27zM233 88q41 0 69 35v101q-62 -7 -129 -27q-6 -18 -6 -36q0 -73 66 -73zM225 574l-20 35q56 26 56 62q0 35 -44 35q-33 0 -53 -10l-28 58q47 37 118 37q55 0 86 -24t31 -60q0 -86 -146 -133z" />
    <glyph glyph-name="uni1EA4" unicode="&#x1ea4;" horiz-adv-x="824" 
d="M90 93l227 647h192l225 -647q36 -18 84 -25v-68h-353v68q49 7 83 25l-42 130h-251l-43 -130q35 -18 82 -25v-68h-288v68q48 7 84 25zM382 609l-96 -291h189zM268 767l-28 42q106 77 140 134h55q34 -57 140 -134l-28 -42l-140 61zM560 868l-44 30q67 110 82 173
q19 26 53 26q26 0 45.5 -15.5t19.5 -40.5q0 -17 -11 -37q-32 -59 -145 -136z" />
    <glyph glyph-name="uni1EA5" unicode="&#x1ea5;" horiz-adv-x="528" 
d="M430 -8q-84 0 -116 65q-35 -35 -67.5 -51t-80.5 -16q-66 0 -105 39t-39 98q0 23 4.5 42t21.5 41.5t46 39.5t82 31.5t126 21.5v19q0 72 -18 99t-61 27q-16 0 -24 -1l-28 -96h-110v145q99 36 190 36q106 0 156 -56.5t50 -155.5v-197q0 -47 42 -47q12 0 20 4l7 -61
q-32 -27 -96 -27zM233 88q41 0 69 35v101q-62 -7 -129 -27q-6 -18 -6 -36q0 -73 66 -73zM399 704l-46 24q50 110 56 174q19 36 59 36q27 0 47 -17t20 -44q0 -15 -7 -30q-30 -67 -129 -143zM124 558l-37 45q107 97 140 160h56q32 -65 140 -160l-38 -45l-131 87z" />
    <glyph glyph-name="uni1EA6" unicode="&#x1ea6;" horiz-adv-x="824" 
d="M90 93l227 647h192l225 -647q36 -18 84 -25v-68h-353v68q49 7 83 25l-42 130h-251l-43 -130q35 -18 82 -25v-68h-288v68q48 7 84 25zM382 609l-96 -291h189zM656 898l-44 -30q-111 76 -145 136q-10 19 -10 36q0 25 19 41t45 16q33 0 52 -26q16 -64 83 -173zM268 767
l-28 42q106 77 140 134h55q34 -57 140 -134l-28 -42l-140 61z" />
    <glyph glyph-name="uni1EA7" unicode="&#x1ea7;" horiz-adv-x="528" 
d="M430 -8q-84 0 -116 65q-35 -35 -67.5 -51t-80.5 -16q-66 0 -105 39t-39 98q0 23 4.5 42t21.5 41.5t46 39.5t82 31.5t126 21.5v19q0 72 -18 99t-61 27q-16 0 -24 -1l-28 -96h-110v145q99 36 190 36q106 0 156 -56.5t50 -155.5v-197q0 -47 42 -47q12 0 20 4l7 -61
q-32 -27 -96 -27zM233 88q41 0 69 35v101q-62 -7 -129 -27q-6 -18 -6 -36q0 -73 66 -73zM124 545l-37 45q107 97 140 160h56q32 -65 140 -160l-38 -45l-131 87zM478 698l-45 -24q-99 74 -130 143q-7 15 -7 31q0 26 20 43t47 17q40 0 59 -36q6 -64 56 -174z" />
    <glyph glyph-name="uni1EA8" unicode="&#x1ea8;" horiz-adv-x="824" 
d="M90 93l227 647h192l225 -647q36 -18 84 -25v-68h-353v68q49 7 83 25l-42 130h-251l-43 -130q35 -18 82 -25v-68h-288v68q48 7 84 25zM382 609l-96 -291h189zM541 873l-20 34q63 21 63 49t-50 28q-35 0 -56 -8l-32 58q52 26 124 26q62 0 95.5 -20.5t33.5 -51.5
q0 -74 -158 -115zM268 767l-28 42q106 77 140 134h55q34 -57 140 -134l-28 -42l-140 61z" />
    <glyph glyph-name="uni1EA9" unicode="&#x1ea9;" horiz-adv-x="528" 
d="M430 -8q-84 0 -116 65q-35 -35 -67.5 -51t-80.5 -16q-66 0 -105 39t-39 98q0 23 4.5 42t21.5 41.5t46 39.5t82 31.5t126 21.5v19q0 72 -18 99t-61 27q-16 0 -24 -1l-28 -96h-110v145q99 36 190 36q106 0 156 -56.5t50 -155.5v-197q0 -47 42 -47q12 0 20 4l7 -61
q-32 -27 -96 -27zM233 88q41 0 69 35v101q-62 -7 -129 -27q-6 -18 -6 -36q0 -73 66 -73zM120 545l-37 45q107 97 140 160h56q32 -65 140 -160l-38 -45l-131 87zM362 692l-20 35q56 26 56 62q0 35 -44 35q-33 0 -53 -10l-28 58q47 37 118 37q55 0 86 -24t31 -60
q0 -86 -146 -133z" />
    <glyph glyph-name="uni1EAA" unicode="&#x1eaa;" horiz-adv-x="824" 
d="M90 93l227 647h192l225 -647q36 -18 84 -25v-68h-353v68q49 7 83 25l-42 130h-251l-43 -130q35 -18 82 -25v-68h-288v68q48 7 84 25zM382 609l-96 -291h189zM467 945q-40 0 -89 37.5t-60 41.5q-27 -27 -27 -72h-65q0 75 34 114.5t85 39.5q31 0 57.5 -15.5t51 -36
t42.5 -27.5q26 26 26 72h65q-1 -75 -35 -114.5t-85 -39.5zM264 755l-28 42q106 77 140 134h55q34 -57 140 -134l-28 -42l-140 61z" />
    <glyph glyph-name="uni1EAB" unicode="&#x1eab;" horiz-adv-x="528" 
d="M430 -8q-84 0 -116 65q-35 -35 -67.5 -51t-80.5 -16q-66 0 -105 39t-39 98q0 23 4.5 42t21.5 41.5t46 39.5t82 31.5t126 21.5v19q0 72 -18 99t-61 27q-16 0 -24 -1l-28 -96h-110v145q99 36 190 36q106 0 156 -56.5t50 -155.5v-197q0 -47 42 -47q12 0 20 4l7 -61
q-32 -27 -96 -27zM233 88q41 0 69 35v101q-62 -7 -129 -27q-6 -18 -6 -36q0 -73 66 -73zM122 540l-37 45q107 97 140 160h56q32 -65 140 -160l-38 -45l-131 87zM320 760q-26 0 -48.5 14t-44.5 35t-36 29q-25 -27 -25 -71h-58q1 76 28 116t71 40q26 0 48.5 -14t44.5 -35
t37 -29q24 25 24 71h57q0 -76 -27 -116t-71 -40z" />
    <glyph glyph-name="uni1EAC" unicode="&#x1eac;" horiz-adv-x="824" 
d="M90 93l227 647h192l225 -647q36 -18 84 -25v-68h-353v68q49 7 83 25l-42 130h-251l-43 -130q35 -18 82 -25v-68h-288v68q48 7 84 25zM382 609l-96 -291h189zM272 780l-28 42q106 77 140 134h55q34 -57 140 -134l-28 -42l-140 61zM463 -120q0 -33 -22.5 -56t-54.5 -23
t-54.5 23t-22.5 56q0 32 22.5 54.5t54.5 22.5t54.5 -22.5t22.5 -54.5z" />
    <glyph glyph-name="uni1EAD" unicode="&#x1ead;" horiz-adv-x="528" 
d="M430 -8q-84 0 -116 65q-35 -35 -67.5 -51t-80.5 -16q-66 0 -105 39t-39 98q0 23 4.5 42t21.5 41.5t46 39.5t82 31.5t126 21.5v19q0 72 -18 99t-61 27q-16 0 -24 -1l-28 -96h-110v145q99 36 190 36q106 0 156 -56.5t50 -155.5v-197q0 -47 42 -47q12 0 20 4l7 -61
q-32 -27 -96 -27zM233 88q41 0 69 35v101q-62 -7 -129 -27q-6 -18 -6 -36q0 -73 66 -73zM133 581l-37 45q107 97 140 160h56q32 -65 140 -160l-38 -45l-131 87zM355 -120q0 -33 -22.5 -56t-54.5 -23t-54.5 23t-22.5 56q0 32 22.5 54.5t54.5 22.5t54.5 -22.5t22.5 -54.5z" />
    <glyph glyph-name="uni1EAE" unicode="&#x1eae;" horiz-adv-x="824" 
d="M90 93l227 647h192l225 -647q36 -18 84 -25v-68h-353v68q49 7 83 25l-42 130h-251l-43 -130q35 -18 82 -25v-68h-288v68q48 7 84 25zM382 609l-96 -291h189zM406 895l-44 30q67 110 82 173q19 26 53 26q26 0 45.5 -15.5t19.5 -40.5q0 -17 -11 -37q-32 -59 -145 -136z
M406 771q-86 0 -133 40t-47 116h65q3 -37 29 -52.5t86 -15.5t86 15.5t30 52.5h65q0 -76 -47.5 -116t-133.5 -40z" />
    <glyph glyph-name="uni1EAF" unicode="&#x1eaf;" horiz-adv-x="528" 
d="M430 -8q-84 0 -116 65q-35 -35 -67.5 -51t-80.5 -16q-66 0 -105 39t-39 98q0 23 4.5 42t21.5 41.5t46 39.5t82 31.5t126 21.5v19q0 72 -18 99t-61 27q-16 0 -24 -1l-28 -96h-110v145q99 36 190 36q106 0 156 -56.5t50 -155.5v-197q0 -47 42 -47q12 0 20 4l7 -61
q-32 -27 -96 -27zM233 88q41 0 69 35v101q-62 -7 -129 -27q-6 -18 -6 -36q0 -73 66 -73zM249 563q-72 0 -113.5 46t-41.5 136h57q2 -50 25 -68.5t72 -18.5q50 0 73.5 18.5t26.5 68.5h56q0 -90 -41.5 -136t-113.5 -46zM259 714l-46 24q50 110 56 174q19 36 59 36q27 0 47 -17
t20 -44q0 -15 -7 -30q-30 -67 -129 -143z" />
    <glyph glyph-name="uni1EB0" unicode="&#x1eb0;" horiz-adv-x="824" 
d="M90 93l227 647h192l225 -647q36 -18 84 -25v-68h-353v68q49 7 83 25l-42 130h-251l-43 -130q35 -18 82 -25v-68h-288v68q48 7 84 25zM382 609l-96 -291h189zM406 771q-86 0 -133 40t-47 116h65q3 -37 29 -52.5t86 -15.5t86 15.5t30 52.5h65q0 -76 -47.5 -116t-133.5 -40z
M444 925l-44 -30q-111 76 -145 136q-10 19 -10 36q0 25 19 41t45 16q33 0 52 -26q16 -64 83 -173z" />
    <glyph glyph-name="uni1EB1" unicode="&#x1eb1;" horiz-adv-x="528" 
d="M430 -8q-84 0 -116 65q-35 -35 -67.5 -51t-80.5 -16q-66 0 -105 39t-39 98q0 23 4.5 42t21.5 41.5t46 39.5t82 31.5t126 21.5v19q0 72 -18 99t-61 27q-16 0 -24 -1l-28 -96h-110v145q99 36 190 36q106 0 156 -56.5t50 -155.5v-197q0 -47 42 -47q12 0 20 4l7 -61
q-32 -27 -96 -27zM233 88q41 0 69 35v101q-62 -7 -129 -27q-6 -18 -6 -36q0 -73 66 -73zM300 738l-45 -24q-99 74 -130 143q-7 15 -7 31q0 26 20 43t47 17q40 0 59 -36q6 -64 56 -174zM249 565q-72 0 -113.5 46t-41.5 136h57q2 -50 25 -68.5t72 -18.5q50 0 73.5 18.5
t26.5 68.5h56q0 -90 -41.5 -136t-113.5 -46z" />
    <glyph glyph-name="uni1EB2" unicode="&#x1eb2;" horiz-adv-x="824" 
d="M90 93l227 647h192l225 -647q36 -18 84 -25v-68h-353v68q49 7 83 25l-42 130h-251l-43 -130q35 -18 82 -25v-68h-288v68q48 7 84 25zM382 609l-96 -291h189zM381 917l-20 34q63 21 63 49t-50 28q-35 0 -56 -8l-32 58q52 26 124 26q62 0 95.5 -20.5t33.5 -51.5
q0 -74 -158 -115zM406 771q-86 0 -133 40t-47 116h65q3 -37 29 -52.5t86 -15.5t86 15.5t30 52.5h65q0 -76 -47.5 -116t-133.5 -40z" />
    <glyph glyph-name="uni1EB3" unicode="&#x1eb3;" horiz-adv-x="528" 
d="M430 -8q-84 0 -116 65q-35 -35 -67.5 -51t-80.5 -16q-66 0 -105 39t-39 98q0 23 4.5 42t21.5 41.5t46 39.5t82 31.5t126 21.5v19q0 72 -18 99t-61 27q-16 0 -24 -1l-28 -96h-110v145q99 36 190 36q106 0 156 -56.5t50 -155.5v-197q0 -47 42 -47q12 0 20 4l7 -61
q-32 -27 -96 -27zM233 88q41 0 69 35v101q-62 -7 -129 -27q-6 -18 -6 -36q0 -73 66 -73zM226 733l-20 35q56 26 56 62q0 35 -44 35q-33 0 -53 -10l-28 58q47 37 118 37q55 0 86 -24t31 -60q0 -86 -146 -133zM249 565q-72 0 -113.5 46t-41.5 136h57q2 -50 25 -68.5t72 -18.5
q50 0 73.5 18.5t26.5 68.5h56q0 -90 -41.5 -136t-113.5 -46z" />
    <glyph glyph-name="uni1EB4" unicode="&#x1eb4;" horiz-adv-x="824" 
d="M90 93l227 647h192l225 -647q36 -18 84 -25v-68h-353v68q49 7 83 25l-42 130h-251l-43 -130q35 -18 82 -25v-68h-288v68q48 7 84 25zM382 609l-96 -291h189zM467 945q-40 0 -89 37.5t-60 41.5q-27 -27 -27 -72h-65q0 75 34 114.5t85 39.5q31 0 57.5 -15.5t51 -36
t42.5 -27.5q26 26 26 72h65q-1 -75 -35 -114.5t-85 -39.5zM406 771q-86 0 -133 40t-47 116h65q3 -37 29 -52.5t86 -15.5t86 15.5t30 52.5h65q0 -76 -47.5 -116t-133.5 -40z" />
    <glyph glyph-name="uni1EB5" unicode="&#x1eb5;" horiz-adv-x="528" 
d="M430 -8q-84 0 -116 65q-35 -35 -67.5 -51t-80.5 -16q-66 0 -105 39t-39 98q0 23 4.5 42t21.5 41.5t46 39.5t82 31.5t126 21.5v19q0 72 -18 99t-61 27q-16 0 -24 -1l-28 -96h-110v145q99 36 190 36q106 0 156 -56.5t50 -155.5v-197q0 -47 42 -47q12 0 20 4l7 -61
q-32 -27 -96 -27zM233 88q41 0 69 35v101q-62 -7 -129 -27q-6 -18 -6 -36q0 -73 66 -73zM307 760q-26 0 -48.5 14t-44.5 35t-36 29q-25 -27 -25 -71h-58q1 76 28 116t71 40q26 0 48.5 -14t44.5 -35t37 -29q24 25 24 71h57q0 -76 -27 -116t-71 -40zM253 562q-72 0 -113.5 46
t-41.5 136h57q2 -50 25 -68.5t72 -18.5q50 0 73.5 18.5t26.5 68.5h56q0 -90 -41.5 -136t-113.5 -46z" />
    <glyph glyph-name="uni1EB6" unicode="&#x1eb6;" horiz-adv-x="824" 
d="M90 93l227 647h192l225 -647q36 -18 84 -25v-68h-353v68q49 7 83 25l-42 130h-251l-43 -130q35 -18 82 -25v-68h-288v68q48 7 84 25zM382 609l-96 -291h189zM412 784q-86 0 -133 40t-47 116h65q3 -37 29 -52.5t86 -15.5t86 15.5t30 52.5h65q0 -76 -47.5 -116t-133.5 -40z
M463 -120q0 -33 -22.5 -56t-54.5 -23t-54.5 23t-22.5 56q0 32 22.5 54.5t54.5 22.5t54.5 -22.5t22.5 -54.5z" />
    <glyph glyph-name="uni1EB7" unicode="&#x1eb7;" horiz-adv-x="528" 
d="M430 -8q-84 0 -116 65q-35 -35 -67.5 -51t-80.5 -16q-66 0 -105 39t-39 98q0 23 4.5 42t21.5 41.5t46 39.5t82 31.5t126 21.5v19q0 72 -18 99t-61 27q-16 0 -24 -1l-28 -96h-110v145q99 36 190 36q106 0 156 -56.5t50 -155.5v-197q0 -47 42 -47q12 0 20 4l7 -61
q-32 -27 -96 -27zM233 88q41 0 69 35v101q-62 -7 -129 -27q-6 -18 -6 -36q0 -73 66 -73zM265 603q-72 0 -113.5 46t-41.5 136h57q2 -50 25 -68.5t72 -18.5q50 0 73.5 18.5t26.5 68.5h56q0 -90 -41.5 -136t-113.5 -46zM355 -120q0 -33 -22.5 -56t-54.5 -23t-54.5 23t-22.5 56
q0 32 22.5 54.5t54.5 22.5t54.5 -22.5t22.5 -54.5z" />
    <glyph glyph-name="uni1EB8" unicode="&#x1eb8;" horiz-adv-x="648" 
d="M105 93v548q-35 18 -83 25v74h581l6 -237h-109l-45 139h-176v-208h192v-105h-192v-234h181l59 137h107l-13 -232h-591v68q49 7 83 25zM425 -120q0 -33 -22.5 -56t-54.5 -23t-54.5 23t-22.5 56q0 32 22.5 54.5t54.5 22.5t54.5 -22.5t22.5 -54.5z" />
    <glyph glyph-name="uni1EB9" unicode="&#x1eb9;" horiz-adv-x="514" 
d="M442 156l48 -46q-29 -53 -85 -87t-130 -34q-120 0 -186 75.5t-66 195.5q0 109 70.5 190t186.5 81q91 0 148 -65.5t58 -167.5q-16 -30 -40 -52h-261q10 -78 48.5 -114.5t83.5 -36.5q71 0 125 61zM230 448q-42 -46 -47 -129q169 2 169 7q0 58 -27.5 90.5t-76.5 32.5
q-12 0 -18 -1zM347 -120q0 -33 -22.5 -56t-54.5 -23t-54.5 23t-22.5 56q0 32 22.5 54.5t54.5 22.5t54.5 -22.5t22.5 -54.5z" />
    <glyph glyph-name="uni1EBA" unicode="&#x1eba;" horiz-adv-x="648" 
d="M105 93v548q-35 18 -83 25v74h581l6 -237h-109l-45 139h-176v-208h192v-105h-192v-234h181l59 137h107l-13 -232h-591v68q49 7 83 25zM307 774l-20 34q63 21 63 49t-50 28q-35 0 -56 -8l-32 58q52 26 124 26q62 0 95.5 -20.5t33.5 -51.5q0 -74 -158 -115z" />
    <glyph glyph-name="uni1EBB" unicode="&#x1ebb;" horiz-adv-x="514" 
d="M442 156l48 -46q-29 -53 -85 -87t-130 -34q-120 0 -186 75.5t-66 195.5q0 109 70.5 190t186.5 81q91 0 148 -65.5t58 -167.5q-16 -30 -40 -52h-261q10 -78 48.5 -114.5t83.5 -36.5q71 0 125 61zM230 448q-42 -46 -47 -129q169 2 169 7q0 58 -27.5 90.5t-76.5 32.5
q-12 0 -18 -1zM248 574l-20 35q56 26 56 62q0 35 -44 35q-33 0 -53 -10l-28 58q47 37 118 37q55 0 86 -24t31 -60q0 -86 -146 -133z" />
    <glyph glyph-name="uni1EBC" unicode="&#x1ebc;" horiz-adv-x="648" 
d="M105 93v548q-35 18 -83 25v74h581l6 -237h-109l-45 139h-176v-208h192v-105h-192v-234h181l59 137h107l-13 -232h-591v68q49 7 83 25zM413 780q-40 0 -89 37.5t-60 41.5q-27 -27 -27 -72h-65q0 75 34 114.5t85 39.5q31 0 57.5 -15.5t51 -36t42.5 -27.5q26 26 26 72h65
q-1 -75 -35 -114.5t-85 -39.5z" />
    <glyph glyph-name="uni1EBD" unicode="&#x1ebd;" horiz-adv-x="514" 
d="M442 156l48 -46q-29 -53 -85 -87t-130 -34q-120 0 -186 75.5t-66 195.5q0 109 70.5 190t186.5 81q91 0 148 -65.5t58 -167.5q-16 -30 -40 -52h-261q10 -78 48.5 -114.5t83.5 -36.5q71 0 125 61zM230 448q-42 -46 -47 -129q169 2 169 7q0 58 -27.5 90.5t-76.5 32.5
q-12 0 -18 -1zM333 609q-26 0 -48.5 14t-44.5 35t-36 29q-25 -27 -25 -71h-58q1 76 28 116t71 40q26 0 48.5 -14t44.5 -35t37 -29q24 26 24 71h57q0 -76 -27 -116t-71 -40z" />
    <glyph glyph-name="uni1EBE" unicode="&#x1ebe;" horiz-adv-x="648" 
d="M105 93v548q-35 18 -83 25v74h581l6 -237h-109l-45 139h-176v-208h192v-105h-192v-234h181l59 137h107l-13 -232h-591v68q49 7 83 25zM202 767l-28 42q106 77 140 134h55q34 -57 140 -134l-28 -42l-140 61zM493 868l-44 30q67 110 82 173q19 26 53 26q26 0 45.5 -15.5
t19.5 -40.5q0 -17 -11 -37q-32 -59 -145 -136z" />
    <glyph glyph-name="uni1EBF" unicode="&#x1ebf;" horiz-adv-x="514" 
d="M442 156l48 -46q-29 -53 -85 -87t-130 -34q-120 0 -186 75.5t-66 195.5q0 109 70.5 190t186.5 81q91 0 148 -65.5t58 -167.5q-16 -30 -40 -52h-261q10 -78 48.5 -114.5t83.5 -36.5q71 0 125 61zM230 448q-42 -46 -47 -129q169 2 169 7q0 58 -27.5 90.5t-76.5 32.5
q-12 0 -18 -1zM416 704l-46 24q50 110 56 174q19 36 59 36q27 0 47 -17t20 -44q0 -15 -7 -30q-30 -67 -129 -143zM141 558l-37 45q107 97 140 160h56q32 -65 140 -160l-38 -45l-131 87z" />
    <glyph glyph-name="uni1EC0" unicode="&#x1ec0;" horiz-adv-x="648" 
d="M105 93v548q-35 18 -83 25v74h581l6 -237h-109l-45 139h-176v-208h192v-105h-192v-234h181l59 137h107l-13 -232h-591v68q49 7 83 25zM584 898l-44 -30q-111 76 -145 136q-10 19 -10 36q0 25 19 41t45 16q33 0 52 -26q16 -64 83 -173zM196 767l-28 42q106 77 140 134h55
q34 -57 140 -134l-28 -42l-140 61z" />
    <glyph glyph-name="uni1EC1" unicode="&#x1ec1;" horiz-adv-x="514" 
d="M442 156l48 -46q-29 -53 -85 -87t-130 -34q-120 0 -186 75.5t-66 195.5q0 109 70.5 190t186.5 81q91 0 148 -65.5t58 -167.5q-16 -30 -40 -52h-261q10 -78 48.5 -114.5t83.5 -36.5q71 0 125 61zM230 448q-42 -46 -47 -129q169 2 169 7q0 58 -27.5 90.5t-76.5 32.5
q-12 0 -18 -1zM140 545l-37 45q107 97 140 160h56q32 -65 140 -160l-38 -45l-131 87zM495 698l-45 -24q-99 74 -130 143q-7 15 -7 31q0 26 20 43t47 17q40 0 59 -36q6 -64 56 -174z" />
    <glyph glyph-name="uni1EC2" unicode="&#x1ec2;" horiz-adv-x="648" 
d="M105 93v548q-35 18 -83 25v74h581l6 -237h-109l-45 139h-176v-208h192v-105h-192v-234h181l59 137h107l-13 -232h-591v68q49 7 83 25zM202 765l-28 42q106 77 140 134h55q34 -57 140 -134l-28 -42l-140 61zM474 864l-20 34q63 21 63 49t-50 28q-35 0 -56 -8l-32 58
q52 26 124 26q62 0 95.5 -20.5t33.5 -51.5q0 -74 -158 -115z" />
    <glyph glyph-name="uni1EC3" unicode="&#x1ec3;" horiz-adv-x="514" 
d="M442 156l48 -46q-29 -53 -85 -87t-130 -34q-120 0 -186 75.5t-66 195.5q0 109 70.5 190t186.5 81q91 0 148 -65.5t58 -167.5q-16 -30 -40 -52h-261q10 -78 48.5 -114.5t83.5 -36.5q71 0 125 61zM230 448q-42 -46 -47 -129q169 2 169 7q0 58 -27.5 90.5t-76.5 32.5
q-12 0 -18 -1zM145 540l-37 45q107 97 140 160h56q32 -65 140 -160l-38 -45l-131 87zM392 685l-20 35q56 26 56 62q0 35 -44 35q-33 0 -53 -10l-28 58q47 37 118 37q55 0 86 -24t31 -60q0 -86 -146 -133z" />
    <glyph glyph-name="uni1EC4" unicode="&#x1ec4;" horiz-adv-x="648" 
d="M105 93v548q-35 18 -83 25v74h581l6 -237h-109l-45 139h-176v-208h192v-105h-192v-234h181l59 137h107l-13 -232h-591v68q49 7 83 25zM198 756l-28 42q106 77 140 134h55q34 -57 140 -134l-28 -42l-140 61zM400 945q-40 0 -89 37.5t-60 41.5q-27 -27 -27 -72h-65
q0 75 34 114.5t85 39.5q31 0 57.5 -15.5t51 -36t42.5 -27.5q26 26 26 72h65q-1 -75 -35 -114.5t-85 -39.5z" />
    <glyph glyph-name="uni1EC5" unicode="&#x1ec5;" horiz-adv-x="514" 
d="M442 156l48 -46q-29 -53 -85 -87t-130 -34q-120 0 -186 75.5t-66 195.5q0 109 70.5 190t186.5 81q91 0 148 -65.5t58 -167.5q-16 -30 -40 -52h-261q10 -78 48.5 -114.5t83.5 -36.5q71 0 125 61zM230 448q-42 -46 -47 -129q169 2 169 7q0 58 -27.5 90.5t-76.5 32.5
q-12 0 -18 -1zM134 540l-37 45q107 97 140 160h56q32 -65 140 -160l-38 -45l-131 87zM333 760q-26 0 -48.5 14t-44.5 35t-36 29q-25 -27 -25 -71h-58q1 76 28 116t71 40q26 0 48.5 -14t44.5 -35t37 -29q24 25 24 71h57q0 -76 -27 -116t-71 -40z" />
    <glyph glyph-name="uni1EC6" unicode="&#x1ec6;" horiz-adv-x="648" 
d="M105 93v548q-35 18 -83 25v74h581l6 -237h-109l-45 139h-176v-208h192v-105h-192v-234h181l59 137h107l-13 -232h-591v68q49 7 83 25zM184 780l-28 42q106 77 140 134h55q34 -57 140 -134l-28 -42l-140 61zM425 -120q0 -33 -22.5 -56t-54.5 -23t-54.5 23t-22.5 56
q0 32 22.5 54.5t54.5 22.5t54.5 -22.5t22.5 -54.5z" />
    <glyph glyph-name="uni1EC7" unicode="&#x1ec7;" horiz-adv-x="514" 
d="M442 156l48 -46q-29 -53 -85 -87t-130 -34q-120 0 -186 75.5t-66 195.5q0 109 70.5 190t186.5 81q91 0 148 -65.5t58 -167.5q-16 -30 -40 -52h-261q10 -78 48.5 -114.5t83.5 -36.5q71 0 125 61zM230 448q-42 -46 -47 -129q169 2 169 7q0 58 -27.5 90.5t-76.5 32.5
q-12 0 -18 -1zM142 580l-37 45q107 97 140 160h56q32 -65 140 -160l-38 -45l-131 87zM347 -120q0 -33 -22.5 -56t-54.5 -23t-54.5 23t-22.5 56q0 32 22.5 54.5t54.5 22.5t54.5 -22.5t22.5 -54.5z" />
    <glyph glyph-name="uni1EC8" unicode="&#x1ec8;" horiz-adv-x="397" 
d="M285 642v-554q34 -18 83 -25v-63h-340v63q48 7 83 24v555q-33 18 -83 25v73h340v-73q-49 -7 -83 -25zM170 774l-20 34q63 21 63 49t-50 28q-35 0 -56 -8l-32 58q52 26 124 26q62 0 95.5 -20.5t33.5 -51.5q0 -74 -158 -115z" />
    <glyph glyph-name="uni1EC9" unicode="&#x1ec9;" horiz-adv-x="352" 
d="M114 82v239q0 74 -4 102l-86 12v79l241 15q4 -110 4 -208v-239q32 -16 77 -23v-59h-309v59q46 7 77 23zM143 574l-20 35q56 26 56 62q0 35 -44 35q-33 0 -53 -10l-28 58q47 37 118 37q55 0 86 -24t31 -60q0 -86 -146 -133z" />
    <glyph glyph-name="uni1ECA" unicode="&#x1eca;" horiz-adv-x="397" 
d="M285 642v-554q34 -18 83 -25v-63h-340v63q48 7 83 24v555q-33 18 -83 25v73h340v-73q-49 -7 -83 -25zM278 -120q0 -33 -22.5 -56t-54.5 -23t-54.5 23t-22.5 56q0 32 22.5 54.5t54.5 22.5t54.5 -22.5t22.5 -54.5z" />
    <glyph glyph-name="uni1ECB" unicode="&#x1ecb;" horiz-adv-x="352" 
d="M270 707q0 -38 -25.5 -64.5t-62.5 -26.5t-63.5 26.5t-26.5 64.5q0 37 26 63.5t64 26.5q37 0 62.5 -26t25.5 -64zM114 82v239q0 74 -4 102l-86 12v79l241 15q4 -110 4 -208v-239q32 -16 77 -23v-59h-309v59q46 7 77 23zM264 -120q0 -33 -22.5 -56t-54.5 -23t-54.5 23
t-22.5 56q0 32 22.5 54.5t54.5 22.5t54.5 -22.5t22.5 -54.5z" />
    <glyph glyph-name="uni1ECC" unicode="&#x1ecc;" horiz-adv-x="747" 
d="M27 372q0 166 93.5 272t261.5 106q153 0 246 -110.5t93 -273.5q0 -167 -96.5 -271.5t-258.5 -104.5q-155 0 -247 109.5t-92 272.5zM210 414q0 -169 55 -250t141 -81q34 0 67 11q65 78 65 228q0 159 -51.5 241.5t-145.5 82.5q-35 0 -80 -20q-51 -78 -51 -212zM451 -120
q0 -33 -22.5 -56t-54.5 -23t-54.5 23t-22.5 56q0 32 22.5 54.5t54.5 22.5t54.5 -22.5t22.5 -54.5z" />
    <glyph glyph-name="uni1ECD" unicode="&#x1ecd;" horiz-adv-x="558" 
d="M23 266q0 124 72.5 195t190.5 71q115 0 182 -77t67 -199q0 -124 -72.5 -195t-189.5 -71q-115 0 -182.5 77t-67.5 199zM255 442q-18 0 -33 -6q-39 -43 -39 -138q0 -109 31 -169.5t89 -60.5q18 0 33 6q38 41 38 137q0 109 -31 170t-88 61zM356 -120q0 -33 -22.5 -56
t-54.5 -23t-54.5 23t-22.5 56q0 32 22.5 54.5t54.5 22.5t54.5 -22.5t22.5 -54.5z" />
    <glyph glyph-name="uni1ECE" unicode="&#x1ece;" horiz-adv-x="747" 
d="M27 372q0 166 93.5 272t261.5 106q153 0 246 -110.5t93 -273.5q0 -167 -96.5 -271.5t-258.5 -104.5q-155 0 -247 109.5t-92 272.5zM210 414q0 -169 55 -250t141 -81q34 0 67 11q65 78 65 228q0 159 -51.5 241.5t-145.5 82.5q-35 0 -80 -20q-51 -78 -51 -212zM352 774
l-20 34q63 21 63 49t-50 28q-35 0 -56 -8l-32 58q52 26 124 26q62 0 95.5 -20.5t33.5 -51.5q0 -74 -158 -115z" />
    <glyph glyph-name="uni1ECF" unicode="&#x1ecf;" horiz-adv-x="558" 
d="M23 266q0 124 72.5 195t190.5 71q115 0 182 -77t67 -199q0 -124 -72.5 -195t-189.5 -71q-115 0 -182.5 77t-67.5 199zM255 442q-18 0 -33 -6q-39 -43 -39 -138q0 -109 31 -169.5t89 -60.5q18 0 33 6q38 41 38 137q0 109 -31 170t-88 61zM268 574l-20 35q56 26 56 62
q0 35 -44 35q-33 0 -53 -10l-28 58q47 37 118 37q55 0 86 -24t31 -60q0 -86 -146 -133z" />
    <glyph glyph-name="uni1ED0" unicode="&#x1ed0;" horiz-adv-x="747" 
d="M27 372q0 166 93.5 272t261.5 106q153 0 246 -110.5t93 -273.5q0 -167 -96.5 -271.5t-258.5 -104.5q-155 0 -247 109.5t-92 272.5zM210 414q0 -169 55 -250t141 -81q34 0 67 11q65 78 65 228q0 159 -51.5 241.5t-145.5 82.5q-35 0 -80 -20q-51 -78 -51 -212zM242 767
l-28 42q106 77 140 134h55q34 -57 140 -134l-28 -42l-140 61zM533 868l-44 30q67 110 82 173q19 26 53 26q26 0 45.5 -15.5t19.5 -40.5q0 -17 -11 -37q-32 -59 -145 -136z" />
    <glyph glyph-name="uni1ED1" unicode="&#x1ed1;" horiz-adv-x="558" 
d="M23 266q0 124 72.5 195t190.5 71q115 0 182 -77t67 -199q0 -124 -72.5 -195t-189.5 -71q-115 0 -182.5 77t-67.5 199zM255 442q-18 0 -33 -6q-39 -43 -39 -138q0 -109 31 -169.5t89 -60.5q18 0 33 6q38 41 38 137q0 109 -31 170t-88 61zM160 558l-37 45q107 97 140 160
h56q32 -65 140 -160l-38 -45l-131 87zM435 704l-46 24q50 110 56 174q19 36 59 36q27 0 47 -17t20 -44q0 -15 -7 -30q-30 -67 -129 -143z" />
    <glyph glyph-name="uni1ED2" unicode="&#x1ed2;" horiz-adv-x="747" 
d="M27 372q0 166 93.5 272t261.5 106q153 0 246 -110.5t93 -273.5q0 -167 -96.5 -271.5t-258.5 -104.5q-155 0 -247 109.5t-92 272.5zM210 414q0 -169 55 -250t141 -81q34 0 67 11q65 78 65 228q0 159 -51.5 241.5t-145.5 82.5q-35 0 -80 -20q-51 -78 -51 -212zM248 767
l-28 42q106 77 140 134h55q34 -57 140 -134l-28 -42l-140 61zM635 898l-44 -30q-111 76 -145 136q-10 19 -10 36q0 25 19 41t45 16q33 0 52 -26q16 -64 83 -173z" />
    <glyph glyph-name="uni1ED3" unicode="&#x1ed3;" horiz-adv-x="558" 
d="M23 266q0 124 72.5 195t190.5 71q115 0 182 -77t67 -199q0 -124 -72.5 -195t-189.5 -71q-115 0 -182.5 77t-67.5 199zM255 442q-18 0 -33 -6q-39 -43 -39 -138q0 -109 31 -169.5t89 -60.5q18 0 33 6q38 41 38 137q0 109 -31 170t-88 61zM507 698l-45 -24q-99 74 -130 143
q-7 15 -7 31q0 26 20 43t47 17q40 0 59 -36q6 -64 56 -174zM153 545l-37 45q107 97 140 160h56q32 -65 140 -160l-38 -45l-131 87z" />
    <glyph glyph-name="uni1ED4" unicode="&#x1ed4;" horiz-adv-x="747" 
d="M27 372q0 166 93.5 272t261.5 106q153 0 246 -110.5t93 -273.5q0 -167 -96.5 -271.5t-258.5 -104.5q-155 0 -247 109.5t-92 272.5zM210 414q0 -169 55 -250t141 -81q34 0 67 11q65 78 65 228q0 159 -51.5 241.5t-145.5 82.5q-35 0 -80 -20q-51 -78 -51 -212zM249 765
l-28 42q106 77 140 134h55q34 -57 140 -134l-28 -42l-140 61zM521 864l-20 34q63 21 63 49t-50 28q-35 0 -56 -8l-32 58q52 26 124 26q62 0 95.5 -20.5t33.5 -51.5q0 -74 -158 -115z" />
    <glyph glyph-name="uni1ED5" unicode="&#x1ed5;" horiz-adv-x="558" 
d="M23 266q0 124 72.5 195t190.5 71q115 0 182 -77t67 -199q0 -124 -72.5 -195t-189.5 -71q-115 0 -182.5 77t-67.5 199zM255 442q-18 0 -33 -6q-39 -43 -39 -138q0 -109 31 -169.5t89 -60.5q18 0 33 6q38 41 38 137q0 109 -31 170t-88 61zM406 685l-20 35q56 26 56 62
q0 35 -44 35q-33 0 -53 -10l-28 58q47 37 118 37q55 0 86 -24t31 -60q0 -86 -146 -133zM159 540l-37 45q107 97 140 160h56q32 -65 140 -160l-38 -45l-131 87z" />
    <glyph glyph-name="uni1ED6" unicode="&#x1ed6;" horiz-adv-x="747" 
d="M27 372q0 166 93.5 272t261.5 106q153 0 246 -110.5t93 -273.5q0 -167 -96.5 -271.5t-258.5 -104.5q-155 0 -247 109.5t-92 272.5zM210 414q0 -169 55 -250t141 -81q34 0 67 11q65 78 65 228q0 159 -51.5 241.5t-145.5 82.5q-35 0 -80 -20q-51 -78 -51 -212zM241 756
l-28 42q106 77 140 134h55q34 -57 140 -134l-28 -42l-140 61zM443 945q-40 0 -89 37.5t-60 41.5q-27 -27 -27 -72h-65q0 75 34 114.5t85 39.5q31 0 57.5 -15.5t51 -36t42.5 -27.5q26 26 26 72h65q-1 -75 -35 -114.5t-85 -39.5z" />
    <glyph glyph-name="uni1ED7" unicode="&#x1ed7;" horiz-adv-x="558" 
d="M23 266q0 124 72.5 195t190.5 71q115 0 182 -77t67 -199q0 -124 -72.5 -195t-189.5 -71q-115 0 -182.5 77t-67.5 199zM255 442q-18 0 -33 -6q-39 -43 -39 -138q0 -109 31 -169.5t89 -60.5q18 0 33 6q38 41 38 137q0 109 -31 170t-88 61zM339 760q-26 0 -48.5 14t-44.5 35
t-36 29q-25 -27 -25 -71h-58q1 76 28 116t71 40q26 0 48.5 -14t44.5 -35t37 -29q24 25 24 71h57q0 -76 -27 -116t-71 -40zM148 540l-37 45q107 97 140 160h56q32 -65 140 -160l-38 -45l-131 87z" />
    <glyph glyph-name="uni1ED8" unicode="&#x1ed8;" horiz-adv-x="747" 
d="M27 372q0 166 93.5 272t261.5 106q153 0 246 -110.5t93 -273.5q0 -167 -96.5 -271.5t-258.5 -104.5q-155 0 -247 109.5t-92 272.5zM210 414q0 -169 55 -250t141 -81q34 0 67 11q65 78 65 228q0 159 -51.5 241.5t-145.5 82.5q-35 0 -80 -20q-51 -78 -51 -212zM240 780
l-28 42q106 77 140 134h55q34 -57 140 -134l-28 -42l-140 61zM451 -120q0 -33 -22.5 -56t-54.5 -23t-54.5 23t-22.5 56q0 32 22.5 54.5t54.5 22.5t54.5 -22.5t22.5 -54.5z" />
    <glyph glyph-name="uni1ED9" unicode="&#x1ed9;" horiz-adv-x="558" 
d="M23 266q0 124 72.5 195t190.5 71q115 0 182 -77t67 -199q0 -124 -72.5 -195t-189.5 -71q-115 0 -182.5 77t-67.5 199zM255 442q-18 0 -33 -6q-39 -43 -39 -138q0 -109 31 -169.5t89 -60.5q18 0 33 6q38 41 38 137q0 109 -31 170t-88 61zM148 580l-37 45q107 97 140 160
h56q32 -65 140 -160l-38 -45l-131 87zM356 -120q0 -33 -22.5 -56t-54.5 -23t-54.5 23t-22.5 56q0 32 22.5 54.5t54.5 22.5t54.5 -22.5t22.5 -54.5z" />
    <glyph glyph-name="uni1EDA" unicode="&#x1eda;" horiz-adv-x="747" 
d="M27 372q0 166 93.5 272t261.5 106q161 0 255 -122q28 2 45 24.5t17 57.5q0 20 -6 43h122q6 -16 6 -41q0 -56 -38.5 -95t-103.5 -39h-9q51 -93 51 -212q0 -167 -96.5 -271.5t-258.5 -104.5q-155 0 -247 109.5t-92 272.5zM210 414q0 -169 55 -250t141 -81q34 0 67 11
q65 78 65 228q0 159 -51.5 241.5t-145.5 82.5q-35 0 -80 -20q-51 -78 -51 -212zM294 779l-22 51q43 19 103 58t92 69h42q35 -20 35 -65q0 -42 -37 -63q-24 -14 -89.5 -28.5t-123.5 -21.5z" />
    <glyph glyph-name="uni1EDB" unicode="&#x1edb;" horiz-adv-x="678" 
d="M23 266q0 124 72.5 195t190.5 71q135 0 202 -104q54 14 54 86q0 25 -5 46h106q6 -18 6 -46q0 -65 -36.5 -102.5t-96.5 -39.5q19 -55 19 -116q0 -124 -72.5 -195t-189.5 -71q-115 0 -182.5 77t-67.5 199zM255 442q-18 0 -33 -6q-39 -43 -39 -138q0 -109 31 -169.5
t89 -60.5q18 0 33 6q38 41 38 137q0 109 -31 170t-88 61zM202 573l-36 46q32 23 83.5 76t79.5 90h44q20 -8 33 -28t13 -42q0 -32 -27 -56q-21 -19 -79 -44.5t-111 -41.5z" />
    <glyph glyph-name="uni1EDC" unicode="&#x1edc;" horiz-adv-x="747" 
d="M27 372q0 166 93.5 272t261.5 106q161 0 255 -122q28 2 45 24.5t17 57.5q0 20 -6 43h122q6 -16 6 -41q0 -56 -38.5 -95t-103.5 -39h-9q51 -93 51 -212q0 -167 -96.5 -271.5t-258.5 -104.5q-155 0 -247 109.5t-92 272.5zM210 414q0 -169 55 -250t141 -81q34 0 67 11
q65 78 65 228q0 159 -51.5 241.5t-145.5 82.5q-35 0 -80 -20q-51 -78 -51 -212zM479 835l-20 -56q-164 26 -230 52q-22 25 -22 55q0 54 54 72h33q111 -83 185 -123z" />
    <glyph glyph-name="uni1EDD" unicode="&#x1edd;" horiz-adv-x="678" 
d="M23 266q0 124 72.5 195t190.5 71q135 0 202 -104q54 14 54 86q0 25 -5 46h106q6 -18 6 -46q0 -65 -36.5 -102.5t-96.5 -39.5q19 -55 19 -116q0 -124 -72.5 -195t-189.5 -71q-115 0 -182.5 77t-67.5 199zM255 442q-18 0 -33 -6q-39 -43 -39 -138q0 -109 31 -169.5
t89 -60.5q18 0 33 6q38 41 38 137q0 109 -31 170t-88 61zM386 617l-33 -46q-162 70 -205 100q-7 15 -7 34q0 34 20.5 59t59.5 25q7 0 11 -1q75 -101 154 -171z" />
    </font>
</defs>
</svg>
